<?xml version="1.0" encoding="UTF-8" standalone="no"?><svg xmlns="http://www.w3.org/2000/svg" xmlns:xlink="http://www.w3.org/1999/xlink" contentStyleType="text/css" height="460px" preserveAspectRatio="none" style="width:1057px;height:460px;background:#FFFFFF;" version="1.1" viewBox="0 0 1057 460" width="1057px" zoomAndPan="magnify"><defs/><g><!--class tier--><g id="elem_tier"><rect codeLine="4" fill="#F1F1F1" height="96.8906" id="tier" rx="2.5" ry="2.5" style="stroke:#181818;stroke-width:0.5;" width="61" x="7" y="357"/><ellipse cx="22.45" cy="373" fill="#EB937F" rx="11" ry="11" style="stroke:#181818;stroke-width:1.0;"/><path d="M21.2469,373.875 L22.7,373.875 L22.7,373.9844 C22.7,374.3906 22.7313,374.5469 22.8094,374.7031 C22.9656,374.9531 23.2469,375.1094 23.5438,375.1094 C23.7938,375.1094 24.0594,374.9688 24.2156,374.75 C24.3406,374.5938 24.3719,374.4375 24.3719,373.9844 L24.3719,372.0625 C24.3719,371.9063 24.3719,371.8594 24.3563,371.7031 C24.2938,371.2344 23.9813,370.9219 23.5281,370.9219 C23.2781,370.9219 23.0125,371.0625 22.8406,371.2813 C22.7313,371.4531 22.7,371.6094 22.7,372.0625 L22.7,372.1875 L21.2469,372.1875 L21.2469,369.7813 L25.2313,369.7813 L25.2313,370.6406 C25.2313,371.0469 25.2625,371.2188 25.3406,371.375 C25.5125,371.625 25.7938,371.7813 26.075,371.7813 C26.3406,371.7813 26.6063,371.6406 26.7781,371.4219 C26.8875,371.25 26.9188,371.1094 26.9188,370.6406 L26.9188,368.0938 L19.2938,368.0938 C18.8563,368.0938 18.7313,368.1094 18.575,368.2031 C18.325,368.3594 18.1688,368.6563 18.1688,368.9375 C18.1688,369.2188 18.3094,369.4688 18.5281,369.6406 C18.6844,369.75 18.8719,369.7813 19.2938,369.7813 L19.5438,369.7813 L19.5438,376.2969 L19.2938,376.2969 C18.8875,376.2969 18.7313,376.3125 18.575,376.4219 C18.325,376.5938 18.1688,376.8594 18.1688,377.1563 C18.1688,377.4219 18.3094,377.6719 18.5281,377.8281 C18.6688,377.9531 18.9031,378 19.2938,378 L27.2938,378 L27.2938,375.4219 C27.2938,374.9844 27.2625,374.8438 27.1844,374.6875 C27.0125,374.4375 26.7313,374.2813 26.45,374.2813 C26.1844,374.2813 25.9188,374.3906 25.7469,374.6406 C25.6375,374.7969 25.6063,374.9375 25.6063,375.4219 L25.6063,376.2969 L21.2469,376.2969 L21.2469,373.875 Z " fill="#000000"/><text fill="#000000" font-family="sans-serif" font-size="14" lengthAdjust="spacing" textLength="28" x="36.55" y="377.8467">Tier</text><line style="stroke:#181818;stroke-width:0.5;" x1="8" x2="67" y1="389" y2="389"/><text fill="#000000" font-family="sans-serif" font-size="14" lengthAdjust="spacing" textLength="40" x="13" y="405.9951">Cloud</text><text fill="#000000" font-family="sans-serif" font-size="14" lengthAdjust="spacing" textLength="36" x="13" y="422.292">Edge</text><text fill="#000000" font-family="sans-serif" font-size="14" lengthAdjust="spacing" textLength="49" x="13" y="438.5889">Devcie</text><line style="stroke:#181818;stroke-width:0.5;" x1="8" x2="67" y1="445.8906" y2="445.8906"/></g><!--class pct--><g id="elem_pct"><rect codeLine="10" fill="#F1F1F1" height="129.4844" id="pct" rx="2.5" ry="2.5" style="stroke:#181818;stroke-width:0.5;" width="228" x="66.5" y="158"/><ellipse cx="81.5" cy="174" fill="#EB937F" rx="11" ry="11" style="stroke:#181818;stroke-width:1.0;"/><path d="M80.2969,174.875 L81.75,174.875 L81.75,174.9844 C81.75,175.3906 81.7813,175.5469 81.8594,175.7031 C82.0156,175.9531 82.2969,176.1094 82.5938,176.1094 C82.8438,176.1094 83.1094,175.9688 83.2656,175.75 C83.3906,175.5938 83.4219,175.4375 83.4219,174.9844 L83.4219,173.0625 C83.4219,172.9063 83.4219,172.8594 83.4063,172.7031 C83.3438,172.2344 83.0313,171.9219 82.5781,171.9219 C82.3281,171.9219 82.0625,172.0625 81.8906,172.2813 C81.7813,172.4531 81.75,172.6094 81.75,173.0625 L81.75,173.1875 L80.2969,173.1875 L80.2969,170.7813 L84.2813,170.7813 L84.2813,171.6406 C84.2813,172.0469 84.3125,172.2188 84.3906,172.375 C84.5625,172.625 84.8438,172.7813 85.125,172.7813 C85.3906,172.7813 85.6563,172.6406 85.8281,172.4219 C85.9375,172.25 85.9688,172.1094 85.9688,171.6406 L85.9688,169.0938 L78.3438,169.0938 C77.9063,169.0938 77.7813,169.1094 77.625,169.2031 C77.375,169.3594 77.2188,169.6563 77.2188,169.9375 C77.2188,170.2188 77.3594,170.4688 77.5781,170.6406 C77.7344,170.75 77.9219,170.7813 78.3438,170.7813 L78.5938,170.7813 L78.5938,177.2969 L78.3438,177.2969 C77.9375,177.2969 77.7813,177.3125 77.625,177.4219 C77.375,177.5938 77.2188,177.8594 77.2188,178.1563 C77.2188,178.4219 77.3594,178.6719 77.5781,178.8281 C77.7188,178.9531 77.9531,179 78.3438,179 L86.3438,179 L86.3438,176.4219 C86.3438,175.9844 86.3125,175.8438 86.2344,175.6875 C86.0625,175.4375 85.7813,175.2813 85.5,175.2813 C85.2344,175.2813 84.9688,175.3906 84.7969,175.6406 C84.6875,175.7969 84.6563,175.9375 84.6563,176.4219 L84.6563,177.2969 L80.2969,177.2969 L80.2969,174.875 Z " fill="#000000"/><text fill="#000000" font-family="sans-serif" font-size="14" lengthAdjust="spacing" textLength="196" x="95.5" y="178.8467">PulverizedComponentType</text><line style="stroke:#181818;stroke-width:0.5;" x1="67.5" x2="293.5" y1="190" y2="190"/><text fill="#000000" font-family="sans-serif" font-size="14" lengthAdjust="spacing" textLength="157" x="72.5" y="206.9951">BehaviourComponent</text><text fill="#000000" font-family="sans-serif" font-size="14" lengthAdjust="spacing" textLength="126" x="72.5" y="223.292">StateComponent</text><text fill="#000000" font-family="sans-serif" font-size="14" lengthAdjust="spacing" textLength="156" x="72.5" y="239.5889">ActuatorsComponent</text><text fill="#000000" font-family="sans-serif" font-size="14" lengthAdjust="spacing" textLength="142" x="72.5" y="255.8857">SensorsComponent</text><text fill="#000000" font-family="sans-serif" font-size="14" lengthAdjust="spacing" textLength="199" x="72.5" y="272.1826">CommunicationComponent</text><line style="stroke:#181818;stroke-width:0.5;" x1="67.5" x2="293.5" y1="279.4844" y2="279.4844"/></g><!--class ldc--><g id="elem_ldc"><rect codeLine="18" fill="#F1F1F1" height="96.8906" id="ldc" rx="2.5" ry="2.5" style="stroke:#181818;stroke-width:0.5;" width="369" x="365" y="174"/><ellipse cx="446.75" cy="190" fill="#ADD1B2" rx="11" ry="11" style="stroke:#181818;stroke-width:1.0;"/><path d="M449.0938,185.6719 C448.1563,185.2344 447.5625,185.0938 446.6875,185.0938 C444.0625,185.0938 442.0625,187.1719 442.0625,189.8906 L442.0625,191.0156 C442.0625,193.5938 444.1719,195.4844 447.0625,195.4844 C448.2813,195.4844 449.4375,195.1875 450.1875,194.6406 C450.7656,194.2344 451.0938,193.7813 451.0938,193.3906 C451.0938,192.9375 450.7031,192.5469 450.2344,192.5469 C450.0156,192.5469 449.8125,192.625 449.625,192.8125 C449.1719,193.2969 449.1719,193.2969 448.9844,193.3906 C448.5625,193.6563 447.875,193.7813 447.1094,193.7813 C445.0625,193.7813 443.7656,192.6875 443.7656,190.9844 L443.7656,189.8906 C443.7656,188.1094 445.0156,186.7969 446.75,186.7969 C447.3281,186.7969 447.9375,186.9531 448.4063,187.2031 C448.8906,187.4844 449.0625,187.7031 449.1563,188.1094 C449.2188,188.5156 449.25,188.6406 449.3906,188.7656 C449.5313,188.9063 449.7656,189.0156 449.9844,189.0156 C450.25,189.0156 450.5156,188.875 450.6875,188.6563 C450.7969,188.5 450.8281,188.3125 450.8281,187.8906 L450.8281,186.4688 C450.8281,186.0313 450.8125,185.9063 450.7188,185.75 C450.5625,185.4844 450.2813,185.3438 449.9844,185.3438 C449.6875,185.3438 449.4844,185.4375 449.2656,185.75 L449.0938,185.6719 Z " fill="#000000"/><text fill="#000000" font-family="sans-serif" font-size="14" lengthAdjust="spacing" textLength="197" x="467.25" y="194.8467">LogicalDeviceConfiguration</text><line style="stroke:#181818;stroke-width:0.5;" x1="366" x2="733" y1="206" y2="206"/><ellipse cx="376" cy="219.6484" fill="none" rx="3" ry="3" style="stroke:#038048;stroke-width:1.0;"/><text fill="#000000" font-family="sans-serif" font-size="14" lengthAdjust="spacing" textLength="141" x="385" y="222.9951">deviceName: String</text><ellipse cx="376" cy="235.9453" fill="none" rx="3" ry="3" style="stroke:#038048;stroke-width:1.0;"/><text fill="#000000" font-family="sans-serif" font-size="14" lengthAdjust="spacing" textLength="343" x="385" y="239.292">components: Set&lt;PulverizedComponentType&gt;</text><ellipse cx="376" cy="252.2422" fill="none" rx="3" ry="3" style="stroke:#038048;stroke-width:1.0;"/><text fill="#000000" font-family="sans-serif" font-size="14" lengthAdjust="spacing" textLength="299" x="385" y="255.5889">deploymentUnits: Set&lt;DeploymentUnit&gt;</text><line style="stroke:#181818;stroke-width:0.5;" x1="366" x2="733" y1="262.8906" y2="262.8906"/></g><!--class du--><g id="elem_du"><rect codeLine="24" fill="#F1F1F1" height="80.5938" id="du" rx="2.5" ry="2.5" style="stroke:#181818;stroke-width:0.5;" width="451" x="138" y="365"/><ellipse cx="299.75" cy="381" fill="#ADD1B2" rx="11" ry="11" style="stroke:#181818;stroke-width:1.0;"/><path d="M302.0938,376.6719 C301.1563,376.2344 300.5625,376.0938 299.6875,376.0938 C297.0625,376.0938 295.0625,378.1719 295.0625,380.8906 L295.0625,382.0156 C295.0625,384.5938 297.1719,386.4844 300.0625,386.4844 C301.2813,386.4844 302.4375,386.1875 303.1875,385.6406 C303.7656,385.2344 304.0938,384.7813 304.0938,384.3906 C304.0938,383.9375 303.7031,383.5469 303.2344,383.5469 C303.0156,383.5469 302.8125,383.625 302.625,383.8125 C302.1719,384.2969 302.1719,384.2969 301.9844,384.3906 C301.5625,384.6563 300.875,384.7813 300.1094,384.7813 C298.0625,384.7813 296.7656,383.6875 296.7656,381.9844 L296.7656,380.8906 C296.7656,379.1094 298.0156,377.7969 299.75,377.7969 C300.3281,377.7969 300.9375,377.9531 301.4063,378.2031 C301.8906,378.4844 302.0625,378.7031 302.1563,379.1094 C302.2188,379.5156 302.25,379.6406 302.3906,379.7656 C302.5313,379.9063 302.7656,380.0156 302.9844,380.0156 C303.25,380.0156 303.5156,379.875 303.6875,379.6563 C303.7969,379.5 303.8281,379.3125 303.8281,378.8906 L303.8281,377.4688 C303.8281,377.0313 303.8125,376.9063 303.7188,376.75 C303.5625,376.4844 303.2813,376.3438 302.9844,376.3438 C302.6875,376.3438 302.4844,376.4375 302.2656,376.75 L302.0938,376.6719 Z " fill="#000000"/><text fill="#000000" font-family="sans-serif" font-size="14" lengthAdjust="spacing" textLength="119" x="320.25" y="385.8467">DeploymentUnit</text><line style="stroke:#181818;stroke-width:0.5;" x1="139" x2="588" y1="397" y2="397"/><ellipse cx="149" cy="410.6484" fill="none" rx="3" ry="3" style="stroke:#038048;stroke-width:1.0;"/><text fill="#000000" font-family="sans-serif" font-size="14" lengthAdjust="spacing" textLength="425" x="158" y="413.9951">deployableComponents: Set&lt;PulverizedComponentType&gt;</text><ellipse cx="149" cy="426.9453" fill="none" rx="3" ry="3" style="stroke:#038048;stroke-width:1.0;"/><text fill="#000000" font-family="sans-serif" font-size="14" lengthAdjust="spacing" textLength="81" x="158" y="430.292">where: Tier</text><line style="stroke:#181818;stroke-width:0.5;" x1="139" x2="588" y1="437.5938" y2="437.5938"/></g><!--class drc--><g id="elem_drc"><rect codeLine="29" fill="#F1F1F1" height="64.2969" id="drc" rx="2.5" ry="2.5" style="stroke:#181818;stroke-width:0.5;" width="246" x="804.5" y="190.5"/><ellipse cx="819.5" cy="206.5" fill="#ADD1B2" rx="11" ry="11" style="stroke:#181818;stroke-width:1.0;"/><path d="M821.8438,202.1719 C820.9063,201.7344 820.3125,201.5938 819.4375,201.5938 C816.8125,201.5938 814.8125,203.6719 814.8125,206.3906 L814.8125,207.5156 C814.8125,210.0938 816.9219,211.9844 819.8125,211.9844 C821.0313,211.9844 822.1875,211.6875 822.9375,211.1406 C823.5156,210.7344 823.8438,210.2813 823.8438,209.8906 C823.8438,209.4375 823.4531,209.0469 822.9844,209.0469 C822.7656,209.0469 822.5625,209.125 822.375,209.3125 C821.9219,209.7969 821.9219,209.7969 821.7344,209.8906 C821.3125,210.1563 820.625,210.2813 819.8594,210.2813 C817.8125,210.2813 816.5156,209.1875 816.5156,207.4844 L816.5156,206.3906 C816.5156,204.6094 817.7656,203.2969 819.5,203.2969 C820.0781,203.2969 820.6875,203.4531 821.1563,203.7031 C821.6406,203.9844 821.8125,204.2031 821.9063,204.6094 C821.9688,205.0156 822,205.1406 822.1406,205.2656 C822.2813,205.4063 822.5156,205.5156 822.7344,205.5156 C823,205.5156 823.2656,205.375 823.4375,205.1563 C823.5469,205 823.5781,204.8125 823.5781,204.3906 L823.5781,202.9688 C823.5781,202.5313 823.5625,202.4063 823.4688,202.25 C823.3125,201.9844 823.0313,201.8438 822.7344,201.8438 C822.4375,201.8438 822.2344,201.9375 822.0156,202.25 L821.8438,202.1719 Z " fill="#000000"/><text fill="#000000" font-family="sans-serif" font-size="14" lengthAdjust="spacing" textLength="214" x="833.5" y="211.3467">DeviceRelationsConfiguration</text><line style="stroke:#181818;stroke-width:0.5;" x1="805.5" x2="1049.5" y1="222.5" y2="222.5"/><ellipse cx="815.5" cy="236.1484" fill="none" rx="3" ry="3" style="stroke:#038048;stroke-width:1.0;"/><text fill="#000000" font-family="sans-serif" font-size="14" lengthAdjust="spacing" textLength="168" x="824.5" y="239.4951">links: Set&lt;DeviceLink&gt;</text><line style="stroke:#181818;stroke-width:0.5;" x1="805.5" x2="1049.5" y1="246.7969" y2="246.7969"/></g><!--class dl--><g id="elem_dl"><rect codeLine="33" fill="#F1F1F1" height="80.5938" id="dl" rx="2.5" ry="2.5" style="stroke:#181818;stroke-width:0.5;" width="168" x="843.5" y="365"/><ellipse cx="884.15" cy="381" fill="#ADD1B2" rx="11" ry="11" style="stroke:#181818;stroke-width:1.0;"/><path d="M886.4938,376.6719 C885.5563,376.2344 884.9625,376.0938 884.0875,376.0938 C881.4625,376.0938 879.4625,378.1719 879.4625,380.8906 L879.4625,382.0156 C879.4625,384.5938 881.5719,386.4844 884.4625,386.4844 C885.6813,386.4844 886.8375,386.1875 887.5875,385.6406 C888.1656,385.2344 888.4938,384.7813 888.4938,384.3906 C888.4938,383.9375 888.1031,383.5469 887.6344,383.5469 C887.4156,383.5469 887.2125,383.625 887.025,383.8125 C886.5719,384.2969 886.5719,384.2969 886.3844,384.3906 C885.9625,384.6563 885.275,384.7813 884.5094,384.7813 C882.4625,384.7813 881.1656,383.6875 881.1656,381.9844 L881.1656,380.8906 C881.1656,379.1094 882.4156,377.7969 884.15,377.7969 C884.7281,377.7969 885.3375,377.9531 885.8063,378.2031 C886.2906,378.4844 886.4625,378.7031 886.5563,379.1094 C886.6188,379.5156 886.65,379.6406 886.7906,379.7656 C886.9313,379.9063 887.1656,380.0156 887.3844,380.0156 C887.65,380.0156 887.9156,379.875 888.0875,379.6563 C888.1969,379.5 888.2281,379.3125 888.2281,378.8906 L888.2281,377.4688 C888.2281,377.0313 888.2125,376.9063 888.1188,376.75 C887.9625,376.4844 887.6813,376.3438 887.3844,376.3438 C887.0875,376.3438 886.8844,376.4375 886.6656,376.75 L886.4938,376.6719 Z " fill="#000000"/><text fill="#000000" font-family="sans-serif" font-size="14" lengthAdjust="spacing" textLength="79" x="903.85" y="385.8467">DeviceLink</text><line style="stroke:#181818;stroke-width:0.5;" x1="844.5" x2="1010.5" y1="397" y2="397"/><ellipse cx="854.5" cy="410.6484" fill="none" rx="3" ry="3" style="stroke:#038048;stroke-width:1.0;"/><text fill="#000000" font-family="sans-serif" font-size="14" lengthAdjust="spacing" textLength="100" x="863.5" y="413.9951">device: String</text><ellipse cx="854.5" cy="426.9453" fill="none" rx="3" ry="3" style="stroke:#038048;stroke-width:1.0;"/><text fill="#000000" font-family="sans-serif" font-size="14" lengthAdjust="spacing" textLength="142" x="863.5" y="430.292">otherDevice: String</text><line style="stroke:#181818;stroke-width:0.5;" x1="844.5" x2="1010.5" y1="437.5938" y2="437.5938"/></g><!--class pc--><g id="elem_pc"><rect codeLine="38" fill="#F1F1F1" height="80.5938" id="pc" rx="2.5" ry="2.5" style="stroke:#181818;stroke-width:0.5;" width="380" x="548.5" y="7"/><ellipse cx="638.75" cy="23" fill="#ADD1B2" rx="11" ry="11" style="stroke:#181818;stroke-width:1.0;"/><path d="M641.0938,18.6719 C640.1563,18.2344 639.5625,18.0938 638.6875,18.0938 C636.0625,18.0938 634.0625,20.1719 634.0625,22.8906 L634.0625,24.0156 C634.0625,26.5938 636.1719,28.4844 639.0625,28.4844 C640.2813,28.4844 641.4375,28.1875 642.1875,27.6406 C642.7656,27.2344 643.0938,26.7813 643.0938,26.3906 C643.0938,25.9375 642.7031,25.5469 642.2344,25.5469 C642.0156,25.5469 641.8125,25.625 641.625,25.8125 C641.1719,26.2969 641.1719,26.2969 640.9844,26.3906 C640.5625,26.6563 639.875,26.7813 639.1094,26.7813 C637.0625,26.7813 635.7656,25.6875 635.7656,23.9844 L635.7656,22.8906 C635.7656,21.1094 637.0156,19.7969 638.75,19.7969 C639.3281,19.7969 639.9375,19.9531 640.4063,20.2031 C640.8906,20.4844 641.0625,20.7031 641.1563,21.1094 C641.2188,21.5156 641.25,21.6406 641.3906,21.7656 C641.5313,21.9063 641.7656,22.0156 641.9844,22.0156 C642.25,22.0156 642.5156,21.875 642.6875,21.6563 C642.7969,21.5 642.8281,21.3125 642.8281,20.8906 L642.8281,19.4688 C642.8281,19.0313 642.8125,18.9063 642.7188,18.75 C642.5625,18.4844 642.2813,18.3438 641.9844,18.3438 C641.6875,18.3438 641.4844,18.4375 641.2656,18.75 L641.0938,18.6719 Z " fill="#000000"/><text fill="#000000" font-family="sans-serif" font-size="14" lengthAdjust="spacing" textLength="191" x="659.25" y="27.8467">PulverizationConfiguration</text><line style="stroke:#181818;stroke-width:0.5;" x1="549.5" x2="927.5" y1="39" y2="39"/><ellipse cx="559.5" cy="52.6484" fill="none" rx="3" ry="3" style="stroke:#038048;stroke-width:1.0;"/><text fill="#000000" font-family="sans-serif" font-size="14" lengthAdjust="spacing" textLength="354" x="568.5" y="55.9951">devicesConfig: Set&lt;LogicalDeviceConfiguration&gt;</text><ellipse cx="559.5" cy="68.9453" fill="none" rx="3" ry="3" style="stroke:#038048;stroke-width:1.0;"/><text fill="#000000" font-family="sans-serif" font-size="14" lengthAdjust="spacing" textLength="314" x="568.5" y="72.292">devicesLinks: DeviceRelationsConfiguration</text><line style="stroke:#181818;stroke-width:0.5;" x1="549.5" x2="927.5" y1="79.5938" y2="79.5938"/></g><!--reverse link pc to ldc--><g id="link_pc_ldc"><path codeLine="43" d="M685.353,97.148 C659.08,121.196 627.496,150.107 601.395,173.998 " fill="none" id="pc-backto-ldc" style="stroke:#181818;stroke-width:1.0;"/><polygon fill="#181818" points="695.14,88.19,688.0133,89.2902,686.2879,96.2918,693.4145,95.1916,695.14,88.19" style="stroke:#181818;stroke-width:1.0;"/><text fill="#000000" font-family="sans-serif" font-size="13" lengthAdjust="spacing" textLength="24" x="583.2546" y="162.8574">1..n</text></g><!--reverse link pc to drc--><g id="link_pc_drc"><path codeLine="44" d="M791.701,97.197 C824.331,127.064 865.137,164.417 893.457,190.339 " fill="none" id="pc-backto-drc" style="stroke:#181818;stroke-width:1.0;"/><polygon fill="none" points="781.86,88.19,783.5855,95.1916,790.7121,96.2918,788.9867,89.2902,781.86,88.19" style="stroke:#181818;stroke-width:1.0;"/><text fill="#000000" font-family="sans-serif" font-size="13" lengthAdjust="spacing" textLength="8" x="877.6106" y="179.2089">1</text></g><!--reverse link drc to dl--><g id="link_drc_dl"><path codeLine="46" d="M927.5,267.964 C927.5,297.646 927.5,336.333 927.5,364.9448 " fill="none" id="drc-backto-dl" style="stroke:#181818;stroke-width:1.0;"/><polygon fill="none" points="927.5,254.615,923.5,260.615,927.5,266.615,931.5,260.615,927.5,254.615" style="stroke:#181818;stroke-width:1.0;"/><text fill="#000000" font-family="sans-serif" font-size="13" lengthAdjust="spacing" textLength="24" x="901.4375" y="353.7988">1..n</text></g><!--link pct to ldc--><g id="link_pct_ldc"><path codeLine="48" d="M294.731,222.5 C313.733,222.5 332.735,222.5 351.737,222.5 " fill="none" id="pct-to-ldc" style="stroke:#181818;stroke-width:1.0;"/><polygon fill="#181818" points="364.892,222.5,358.892,218.5,352.892,222.5,358.892,226.5,364.892,222.5" style="stroke:#181818;stroke-width:1.0;"/><text fill="#000000" font-family="sans-serif" font-size="13" lengthAdjust="spacing" textLength="24" x="302.4232" y="219.0992">1..5</text></g><!--reverse link ldc to du--><g id="link_ldc_du"><path codeLine="49" d="M491.252,280.182 C462.977,307.697 429.696,340.083 404.193,364.9011 " fill="none" id="ldc-backto-du" style="stroke:#181818;stroke-width:1.0;"/><polygon fill="#181818" points="500.631,271.056,493.5413,272.3734,492.0305,279.4244,499.1202,278.1071,500.631,271.056" style="stroke:#181818;stroke-width:1.0;"/><text fill="#000000" font-family="sans-serif" font-size="13" lengthAdjust="spacing" textLength="24" x="384.9453" y="354.0461">1..n</text></g><!--link tier to du--><g id="link_tier_du"><path codeLine="51" d="M68.0625,405.5 C86.9721,405.5 105.8818,405.5 124.791,405.5 " fill="none" id="tier-to-du" style="stroke:#181818;stroke-width:1.0;"/><polygon fill="#181818" points="137.883,405.5,131.883,401.5,125.883,405.5,131.883,409.5,137.883,405.5" style="stroke:#181818;stroke-width:1.0;"/><text fill="#000000" font-family="sans-serif" font-size="13" lengthAdjust="spacing" textLength="8" x="76.0551" y="400.8605">1</text></g><!--link pct to du--><g id="link_pct_du"><path codeLine="53" d="M244.762,287.059 C267.446,309.496 292.589,334.364 313.875,355.4178 " fill="none" id="pct-to-du" style="stroke:#181818;stroke-width:1.0;"/><polygon fill="#181818" points="323.362,364.8006,321.9089,357.7374,314.8302,356.3621,316.2833,363.4253,323.362,364.8006" style="stroke:#181818;stroke-width:1.0;"/><text fill="#000000" font-family="sans-serif" font-size="13" lengthAdjust="spacing" textLength="24" x="226.8048" y="307.4374">1..5</text></g><!--SRC=[ZPFDIWCn4CVlUOgmnygA7aGGMT3MMn7H-W0ncMv3iqd8HwMAx-uakzlTRQbuIlZDrtzc4h-LsZB76ggD00-MtbuHVu2EwMq72UZOq68bmHMKUHhmGhy9fNDbei3pITI0nm9sN0BvwGDUejg1aryWvgQnHeCEgxs5dCFoa5CymeRjf8dku8BmBR00O_30GsJ1E3_n0ksF4DwRg2LdGHez650HLynxMYnDZLQ5IYN72dejw-YoTrQb1C-gBaHsU6ODtA4Q9tMTAEypUgGGxiyqMBKPh3Bx1j6xbdt0OWAhaR2f9OiHiTUIJEn33IFvH_tF3JWKdvOsAPFwUWMLU_Qd4n2kcu2IkFzUTGfQ8gXEKYNQ1ghnvCPJCm6bBAPuIDFtqAtiM8-TBAGJtCewlyjg5B5i-_YhyQG6wypAaXRNbvTO6Dz18YQJ8Ws5a3GPCxW8HKXwBhDImJgq-AP8xxh3Od2DXEG_atALhfnbadv05zInNm00]--></g></svg>