<?xml version="1.0" encoding="UTF-8" standalone="no"?><svg xmlns="http://www.w3.org/2000/svg" xmlns:xlink="http://www.w3.org/1999/xlink" contentStyleType="text/css" height="59px" preserveAspectRatio="none" style="width:393px;height:59px;background:#FFFFFF;" version="1.1" viewBox="0 0 393 59" width="393px" zoomAndPan="magnify"><defs/><g><!--entity core--><g id="elem_core"><rect fill="#F1F1F1" height="46.2969" rx="2.5" ry="2.5" style="stroke:#181818;stroke-width:0.5;" width="72" x="191" y="7"/><rect fill="#F1F1F1" height="10" style="stroke:#181818;stroke-width:0.5;" width="15" x="243" y="12"/><rect fill="#F1F1F1" height="2" style="stroke:#181818;stroke-width:0.5;" width="4" x="241" y="14"/><rect fill="#F1F1F1" height="2" style="stroke:#181818;stroke-width:0.5;" width="4" x="241" y="18"/><text fill="#000000" font-family="sans-serif" font-size="14" lengthAdjust="spacing" textLength="32" x="206" y="39.9951">core</text></g><!--entity dsl--><g id="elem_dsl"><rect fill="#F1F1F1" height="46.2969" rx="2.5" ry="2.5" style="stroke:#181818;stroke-width:0.5;" width="60" x="327" y="7"/><rect fill="#F1F1F1" height="10" style="stroke:#181818;stroke-width:0.5;" width="15" x="367" y="12"/><rect fill="#F1F1F1" height="2" style="stroke:#181818;stroke-width:0.5;" width="4" x="365" y="14"/><rect fill="#F1F1F1" height="2" style="stroke:#181818;stroke-width:0.5;" width="4" x="365" y="18"/><text fill="#000000" font-family="sans-serif" font-size="14" lengthAdjust="spacing" textLength="20" x="342" y="39.9951">dsl</text></g><!--entity component--><g id="elem_component"><rect fill="#F1F1F1" height="46.2969" rx="2.5" ry="2.5" style="stroke:#181818;stroke-width:0.5;" width="124" x="7" y="7"/><rect fill="#F1F1F1" height="10" style="stroke:#181818;stroke-width:0.5;" width="15" x="111" y="12"/><rect fill="#F1F1F1" height="2" style="stroke:#181818;stroke-width:0.5;" width="4" x="109" y="14"/><rect fill="#F1F1F1" height="2" style="stroke:#181818;stroke-width:0.5;" width="4" x="109" y="18"/><text fill="#000000" font-family="sans-serif" font-size="14" lengthAdjust="spacing" textLength="84" x="22" y="39.9951">component</text></g><!--reverse link component to core--><g id="link_component_core"><path d="M136.679,30 C155.328,30 174.837,30 190.931,30 " fill="none" id="component-backto-core" style="stroke:#181818;stroke-width:1.0;"/><polygon fill="#181818" points="131.446,30,140.446,34,136.446,30,140.446,26,131.446,30" style="stroke:#181818;stroke-width:1.0;"/><text fill="#000000" font-family="sans-serif" font-size="13" lengthAdjust="spacing" textLength="23" x="149.5" y="23.0669">use</text></g><!--reverse link core to dsl--><g id="link_core_dsl"><path d="M268.459,30 C287.372,30 309.36,30 326.693,30 " fill="none" id="core-backto-dsl" style="stroke:#181818;stroke-width:1.0;"/><polygon fill="#181818" points="263.212,30,272.212,34,268.212,30,272.212,26,263.212,30" style="stroke:#181818;stroke-width:1.0;"/><text fill="#000000" font-family="sans-serif" font-size="13" lengthAdjust="spacing" textLength="23" x="285.5" y="23.0669">use</text></g><!--SRC=[IyxFBSZFIyqhKKZEBqhbIePpKufpk92uS1P8i2XLGJSdDQr4rmuXhc2bK5gS2f6qqItAJCyeqGKP0XHN0iae0G00]--></g></svg>