<?xml version="1.0" encoding="UTF-8" standalone="no"?><svg xmlns="http://www.w3.org/2000/svg" xmlns:xlink="http://www.w3.org/1999/xlink" contentStyleType="text/css" height="437px" preserveAspectRatio="none" style="width:970px;height:437px;background:#FFFFFF;" version="1.1" viewBox="0 0 970 437" width="970px" zoomAndPan="magnify"><defs/><g><!--class pc--><g id="elem_pc"><rect codeLine="3" fill="#F1F1F1" height="96.8906" id="pc" rx="2.5" ry="2.5" style="stroke:#181818;stroke-width:0.5;" width="188" x="247.5" y="7"/><ellipse cx="262.5" cy="23" fill="#B4A7E5" rx="11" ry="11" style="stroke:#181818;stroke-width:1.0;"/><path d="M263.4531,19.7813 L265.1719,19.7813 C265.5625,19.7813 265.75,19.75 265.875,19.6719 C266.1406,19.5156 266.2813,19.2344 266.2813,18.9375 C266.2813,18.6719 266.1719,18.4063 265.9375,18.2344 C265.7656,18.125 265.625,18.0938 265.1719,18.0938 L260.0313,18.0938 C259.5938,18.0938 259.4688,18.1094 259.3125,18.2031 C259.0625,18.3594 258.9063,18.6563 258.9063,18.9375 C258.9063,19.2188 259.0469,19.4688 259.2656,19.6406 C259.4219,19.75 259.6094,19.7813 260.0313,19.7813 L261.75,19.7813 L261.75,26.2969 L260.0313,26.2969 C259.5938,26.2969 259.4688,26.3125 259.3125,26.4219 C259.0625,26.5781 258.9063,26.8594 258.9063,27.1563 C258.9063,27.4063 259.0469,27.6719 259.2656,27.8281 C259.4219,27.9531 259.625,28 260.0313,28 L265.1719,28 C265.9219,28 266.2813,27.7188 266.2813,27.1563 C266.2813,26.875 266.1719,26.625 265.9375,26.4531 C265.7656,26.3281 265.625,26.2969 265.1719,26.2969 L263.4531,26.2969 L263.4531,19.7813 Z " fill="#000000"/><text fill="#000000" font-family="sans-serif" font-size="14" font-style="italic" lengthAdjust="spacing" textLength="156" x="276.5" y="27.8467">PulverizedComponent</text><line style="stroke:#181818;stroke-width:0.5;" x1="248.5" x2="434.5" y1="39" y2="39"/><ellipse cx="258.5" cy="52.6484" fill="none" rx="3" ry="3" style="stroke:#038048;stroke-width:1.0;"/><text fill="#000000" font-family="sans-serif" font-size="14" lengthAdjust="spacing" textLength="113" x="267.5" y="55.9951">deviceId: String</text><line style="stroke:#181818;stroke-width:0.5;" x1="248.5" x2="434.5" y1="63.2969" y2="63.2969"/><ellipse cx="258.5" cy="76.9453" fill="#84BE84" rx="3" ry="3" style="stroke:#038048;stroke-width:1.0;"/><text fill="#000000" font-family="sans-serif" font-size="14" lengthAdjust="spacing" textLength="71" x="267.5" y="80.292">initialize()</text><ellipse cx="258.5" cy="93.2422" fill="#84BE84" rx="3" ry="3" style="stroke:#038048;stroke-width:1.0;"/><text fill="#000000" font-family="sans-serif" font-size="14" lengthAdjust="spacing" textLength="62" x="267.5" y="96.5889">finalize()</text></g><!--class state--><g id="elem_state"><rect codeLine="8" fill="#F1F1F1" height="80.5938" id="state" rx="2.5" ry="2.5" style="stroke:#181818;stroke-width:0.5;" width="87" x="7" y="225"/><ellipse cx="30.1" cy="241" fill="#B4A7E5" rx="11" ry="11" style="stroke:#181818;stroke-width:1.0;"/><path d="M31.0531,237.7813 L32.7719,237.7813 C33.1625,237.7813 33.35,237.75 33.475,237.6719 C33.7406,237.5156 33.8813,237.2344 33.8813,236.9375 C33.8813,236.6719 33.7719,236.4063 33.5375,236.2344 C33.3656,236.125 33.225,236.0938 32.7719,236.0938 L27.6313,236.0938 C27.1938,236.0938 27.0688,236.1094 26.9125,236.2031 C26.6625,236.3594 26.5063,236.6563 26.5063,236.9375 C26.5063,237.2188 26.6469,237.4688 26.8656,237.6406 C27.0219,237.75 27.2094,237.7813 27.6313,237.7813 L29.35,237.7813 L29.35,244.2969 L27.6313,244.2969 C27.1938,244.2969 27.0688,244.3125 26.9125,244.4219 C26.6625,244.5781 26.5063,244.8594 26.5063,245.1563 C26.5063,245.4063 26.6469,245.6719 26.8656,245.8281 C27.0219,245.9531 27.225,246 27.6313,246 L32.7719,246 C33.5219,246 33.8813,245.7188 33.8813,245.1563 C33.8813,244.875 33.7719,244.625 33.5375,244.4531 C33.3656,244.3281 33.225,244.2969 32.7719,244.2969 L31.0531,244.2969 L31.0531,237.7813 Z " fill="#000000"/><text fill="#000000" font-family="sans-serif" font-size="14" font-style="italic" lengthAdjust="spacing" textLength="37" x="45.9" y="245.8467">State</text><line style="stroke:#181818;stroke-width:0.5;" x1="8" x2="93" y1="257" y2="257"/><line style="stroke:#181818;stroke-width:0.5;" x1="8" x2="93" y1="265" y2="265"/><ellipse cx="18" cy="278.6484" fill="#84BE84" rx="3" ry="3" style="stroke:#038048;stroke-width:1.0;"/><text fill="#000000" font-family="sans-serif" font-size="14" lengthAdjust="spacing" textLength="35" x="27" y="281.9951">get()</text><ellipse cx="18" cy="294.9453" fill="#84BE84" rx="3" ry="3" style="stroke:#038048;stroke-width:1.0;"/><text fill="#000000" font-family="sans-serif" font-size="14" lengthAdjust="spacing" textLength="61" x="27" y="298.292">update()</text></g><!--class bhv--><g id="elem_bhv"><rect codeLine="13" fill="#F1F1F1" height="64.2969" id="bhv" rx="2.5" ry="2.5" style="stroke:#181818;stroke-width:0.5;" width="105" x="129" y="233.5"/><ellipse cx="144" cy="249.5" fill="#B4A7E5" rx="11" ry="11" style="stroke:#181818;stroke-width:1.0;"/><path d="M144.9531,246.2813 L146.6719,246.2813 C147.0625,246.2813 147.25,246.25 147.375,246.1719 C147.6406,246.0156 147.7813,245.7344 147.7813,245.4375 C147.7813,245.1719 147.6719,244.9063 147.4375,244.7344 C147.2656,244.625 147.125,244.5938 146.6719,244.5938 L141.5313,244.5938 C141.0938,244.5938 140.9688,244.6094 140.8125,244.7031 C140.5625,244.8594 140.4063,245.1563 140.4063,245.4375 C140.4063,245.7188 140.5469,245.9688 140.7656,246.1406 C140.9219,246.25 141.1094,246.2813 141.5313,246.2813 L143.25,246.2813 L143.25,252.7969 L141.5313,252.7969 C141.0938,252.7969 140.9688,252.8125 140.8125,252.9219 C140.5625,253.0781 140.4063,253.3594 140.4063,253.6563 C140.4063,253.9063 140.5469,254.1719 140.7656,254.3281 C140.9219,254.4531 141.125,254.5 141.5313,254.5 L146.6719,254.5 C147.4219,254.5 147.7813,254.2188 147.7813,253.6563 C147.7813,253.375 147.6719,253.125 147.4375,252.9531 C147.2656,252.8281 147.125,252.7969 146.6719,252.7969 L144.9531,252.7969 L144.9531,246.2813 Z " fill="#000000"/><text fill="#000000" font-family="sans-serif" font-size="14" font-style="italic" lengthAdjust="spacing" textLength="73" x="158" y="254.3467">Behaviour</text><line style="stroke:#181818;stroke-width:0.5;" x1="130" x2="233" y1="265.5" y2="265.5"/><line style="stroke:#181818;stroke-width:0.5;" x1="130" x2="233" y1="273.5" y2="273.5"/><ellipse cx="140" cy="287.1484" fill="#84BE84" rx="3" ry="3" style="stroke:#038048;stroke-width:1.0;"/><text fill="#000000" font-family="sans-serif" font-size="14" lengthAdjust="spacing" textLength="58" x="149" y="290.4951">invoke()</text></g><!--class comm--><g id="elem_comm"><rect codeLine="17" fill="#F1F1F1" height="80.5938" id="comm" rx="2.5" ry="2.5" style="stroke:#181818;stroke-width:0.5;" width="145" x="269" y="225"/><ellipse cx="284" cy="241" fill="#B4A7E5" rx="11" ry="11" style="stroke:#181818;stroke-width:1.0;"/><path d="M284.9531,237.7813 L286.6719,237.7813 C287.0625,237.7813 287.25,237.75 287.375,237.6719 C287.6406,237.5156 287.7813,237.2344 287.7813,236.9375 C287.7813,236.6719 287.6719,236.4063 287.4375,236.2344 C287.2656,236.125 287.125,236.0938 286.6719,236.0938 L281.5313,236.0938 C281.0938,236.0938 280.9688,236.1094 280.8125,236.2031 C280.5625,236.3594 280.4063,236.6563 280.4063,236.9375 C280.4063,237.2188 280.5469,237.4688 280.7656,237.6406 C280.9219,237.75 281.1094,237.7813 281.5313,237.7813 L283.25,237.7813 L283.25,244.2969 L281.5313,244.2969 C281.0938,244.2969 280.9688,244.3125 280.8125,244.4219 C280.5625,244.5781 280.4063,244.8594 280.4063,245.1563 C280.4063,245.4063 280.5469,245.6719 280.7656,245.8281 C280.9219,245.9531 281.125,246 281.5313,246 L286.6719,246 C287.4219,246 287.7813,245.7188 287.7813,245.1563 C287.7813,244.875 287.6719,244.625 287.4375,244.4531 C287.2656,244.3281 287.125,244.2969 286.6719,244.2969 L284.9531,244.2969 L284.9531,237.7813 Z " fill="#000000"/><text fill="#000000" font-family="sans-serif" font-size="14" font-style="italic" lengthAdjust="spacing" textLength="113" x="298" y="245.8467">Communication</text><line style="stroke:#181818;stroke-width:0.5;" x1="270" x2="413" y1="257" y2="257"/><line style="stroke:#181818;stroke-width:0.5;" x1="270" x2="413" y1="265" y2="265"/><ellipse cx="280" cy="278.6484" fill="#84BE84" rx="3" ry="3" style="stroke:#038048;stroke-width:1.0;"/><text fill="#000000" font-family="sans-serif" font-size="14" lengthAdjust="spacing" textLength="44" x="289" y="281.9951">send()</text><ellipse cx="280" cy="294.9453" fill="#84BE84" rx="3" ry="3" style="stroke:#038048;stroke-width:1.0;"/><text fill="#000000" font-family="sans-serif" font-size="14" lengthAdjust="spacing" textLength="63" x="289" y="298.292">receive()</text></g><!--class sens--><g id="elem_sens"><rect codeLine="22" fill="#F1F1F1" height="64.2969" id="sens" rx="2.5" ry="2.5" style="stroke:#181818;stroke-width:0.5;" width="81" x="488" y="366"/><ellipse cx="503" cy="382" fill="#B4A7E5" rx="11" ry="11" style="stroke:#181818;stroke-width:1.0;"/><path d="M503.9531,378.7813 L505.6719,378.7813 C506.0625,378.7813 506.25,378.75 506.375,378.6719 C506.6406,378.5156 506.7813,378.2344 506.7813,377.9375 C506.7813,377.6719 506.6719,377.4063 506.4375,377.2344 C506.2656,377.125 506.125,377.0938 505.6719,377.0938 L500.5313,377.0938 C500.0938,377.0938 499.9688,377.1094 499.8125,377.2031 C499.5625,377.3594 499.4063,377.6563 499.4063,377.9375 C499.4063,378.2188 499.5469,378.4688 499.7656,378.6406 C499.9219,378.75 500.1094,378.7813 500.5313,378.7813 L502.25,378.7813 L502.25,385.2969 L500.5313,385.2969 C500.0938,385.2969 499.9688,385.3125 499.8125,385.4219 C499.5625,385.5781 499.4063,385.8594 499.4063,386.1563 C499.4063,386.4063 499.5469,386.6719 499.7656,386.8281 C499.9219,386.9531 500.125,387 500.5313,387 L505.6719,387 C506.4219,387 506.7813,386.7188 506.7813,386.1563 C506.7813,385.875 506.6719,385.625 506.4375,385.4531 C506.2656,385.3281 506.125,385.2969 505.6719,385.2969 L503.9531,385.2969 L503.9531,378.7813 Z " fill="#000000"/><text fill="#000000" font-family="sans-serif" font-size="14" font-style="italic" lengthAdjust="spacing" textLength="49" x="517" y="386.8467">Sensor</text><line style="stroke:#181818;stroke-width:0.5;" x1="489" x2="568" y1="398" y2="398"/><line style="stroke:#181818;stroke-width:0.5;" x1="489" x2="568" y1="406" y2="406"/><ellipse cx="499" cy="419.6484" fill="#84BE84" rx="3" ry="3" style="stroke:#038048;stroke-width:1.0;"/><text fill="#000000" font-family="sans-serif" font-size="14" lengthAdjust="spacing" textLength="51" x="508" y="422.9951">sense()</text></g><!--class act--><g id="elem_act"><rect codeLine="26" fill="#F1F1F1" height="64.2969" id="act" rx="2.5" ry="2.5" style="stroke:#181818;stroke-width:0.5;" width="93" x="683" y="366"/><ellipse cx="698" cy="382" fill="#B4A7E5" rx="11" ry="11" style="stroke:#181818;stroke-width:1.0;"/><path d="M698.9531,378.7813 L700.6719,378.7813 C701.0625,378.7813 701.25,378.75 701.375,378.6719 C701.6406,378.5156 701.7813,378.2344 701.7813,377.9375 C701.7813,377.6719 701.6719,377.4063 701.4375,377.2344 C701.2656,377.125 701.125,377.0938 700.6719,377.0938 L695.5313,377.0938 C695.0938,377.0938 694.9688,377.1094 694.8125,377.2031 C694.5625,377.3594 694.4063,377.6563 694.4063,377.9375 C694.4063,378.2188 694.5469,378.4688 694.7656,378.6406 C694.9219,378.75 695.1094,378.7813 695.5313,378.7813 L697.25,378.7813 L697.25,385.2969 L695.5313,385.2969 C695.0938,385.2969 694.9688,385.3125 694.8125,385.4219 C694.5625,385.5781 694.4063,385.8594 694.4063,386.1563 C694.4063,386.4063 694.5469,386.6719 694.7656,386.8281 C694.9219,386.9531 695.125,387 695.5313,387 L700.6719,387 C701.4219,387 701.7813,386.7188 701.7813,386.1563 C701.7813,385.875 701.6719,385.625 701.4375,385.4531 C701.2656,385.3281 701.125,385.2969 700.6719,385.2969 L698.9531,385.2969 L698.9531,378.7813 Z " fill="#000000"/><text fill="#000000" font-family="sans-serif" font-size="14" font-style="italic" lengthAdjust="spacing" textLength="61" x="712" y="386.8467">Actuator</text><line style="stroke:#181818;stroke-width:0.5;" x1="684" x2="775" y1="398" y2="398"/><line style="stroke:#181818;stroke-width:0.5;" x1="684" x2="775" y1="406" y2="406"/><ellipse cx="694" cy="419.6484" fill="#84BE84" rx="3" ry="3" style="stroke:#038048;stroke-width:1.0;"/><text fill="#000000" font-family="sans-serif" font-size="14" lengthAdjust="spacing" textLength="65" x="703" y="422.9951">actuate()</text></g><!--class sens_cont--><g id="elem_sens_cont"><rect codeLine="30" fill="#F1F1F1" height="48" id="sens_cont" rx="2.5" ry="2.5" style="stroke:#181818;stroke-width:0.5;" width="159" x="449" y="241.5"/><ellipse cx="464" cy="257.5" fill="#ADD1B2" rx="11" ry="11" style="stroke:#181818;stroke-width:1.0;"/><path d="M466.3438,253.1719 C465.4063,252.7344 464.8125,252.5938 463.9375,252.5938 C461.3125,252.5938 459.3125,254.6719 459.3125,257.3906 L459.3125,258.5156 C459.3125,261.0938 461.4219,262.9844 464.3125,262.9844 C465.5313,262.9844 466.6875,262.6875 467.4375,262.1406 C468.0156,261.7344 468.3438,261.2813 468.3438,260.8906 C468.3438,260.4375 467.9531,260.0469 467.4844,260.0469 C467.2656,260.0469 467.0625,260.125 466.875,260.3125 C466.4219,260.7969 466.4219,260.7969 466.2344,260.8906 C465.8125,261.1563 465.125,261.2813 464.3594,261.2813 C462.3125,261.2813 461.0156,260.1875 461.0156,258.4844 L461.0156,257.3906 C461.0156,255.6094 462.2656,254.2969 464,254.2969 C464.5781,254.2969 465.1875,254.4531 465.6563,254.7031 C466.1406,254.9844 466.3125,255.2031 466.4063,255.6094 C466.4688,256.0156 466.5,256.1406 466.6406,256.2656 C466.7813,256.4063 467.0156,256.5156 467.2344,256.5156 C467.5,256.5156 467.7656,256.375 467.9375,256.1563 C468.0469,256 468.0781,255.8125 468.0781,255.3906 L468.0781,253.9688 C468.0781,253.5313 468.0625,253.4063 467.9688,253.25 C467.8125,252.9844 467.5313,252.8438 467.2344,252.8438 C466.9375,252.8438 466.7344,252.9375 466.5156,253.25 L466.3438,253.1719 Z " fill="#000000"/><text fill="#000000" font-family="sans-serif" font-size="14" lengthAdjust="spacing" textLength="127" x="478" y="262.3467">SensorsContainer</text><line style="stroke:#181818;stroke-width:0.5;" x1="450" x2="607" y1="273.5" y2="273.5"/><line style="stroke:#181818;stroke-width:0.5;" x1="450" x2="607" y1="281.5" y2="281.5"/></g><!--class act_cont--><g id="elem_act_cont"><rect codeLine="31" fill="#F1F1F1" height="48" id="act_cont" rx="2.5" ry="2.5" style="stroke:#181818;stroke-width:0.5;" width="173" x="643" y="241.5"/><ellipse cx="658" cy="257.5" fill="#ADD1B2" rx="11" ry="11" style="stroke:#181818;stroke-width:1.0;"/><path d="M660.3438,253.1719 C659.4063,252.7344 658.8125,252.5938 657.9375,252.5938 C655.3125,252.5938 653.3125,254.6719 653.3125,257.3906 L653.3125,258.5156 C653.3125,261.0938 655.4219,262.9844 658.3125,262.9844 C659.5313,262.9844 660.6875,262.6875 661.4375,262.1406 C662.0156,261.7344 662.3438,261.2813 662.3438,260.8906 C662.3438,260.4375 661.9531,260.0469 661.4844,260.0469 C661.2656,260.0469 661.0625,260.125 660.875,260.3125 C660.4219,260.7969 660.4219,260.7969 660.2344,260.8906 C659.8125,261.1563 659.125,261.2813 658.3594,261.2813 C656.3125,261.2813 655.0156,260.1875 655.0156,258.4844 L655.0156,257.3906 C655.0156,255.6094 656.2656,254.2969 658,254.2969 C658.5781,254.2969 659.1875,254.4531 659.6563,254.7031 C660.1406,254.9844 660.3125,255.2031 660.4063,255.6094 C660.4688,256.0156 660.5,256.1406 660.6406,256.2656 C660.7813,256.4063 661.0156,256.5156 661.2344,256.5156 C661.5,256.5156 661.7656,256.375 661.9375,256.1563 C662.0469,256 662.0781,255.8125 662.0781,255.3906 L662.0781,253.9688 C662.0781,253.5313 662.0625,253.4063 661.9688,253.25 C661.8125,252.9844 661.5313,252.8438 661.2344,252.8438 C660.9375,252.8438 660.7344,252.9375 660.5156,253.25 L660.3438,253.1719 Z " fill="#000000"/><text fill="#000000" font-family="sans-serif" font-size="14" lengthAdjust="spacing" textLength="141" x="672" y="262.3467">ActuatorsContainer</text><line style="stroke:#181818;stroke-width:0.5;" x1="644" x2="815" y1="273.5" y2="273.5"/><line style="stroke:#181818;stroke-width:0.5;" x1="644" x2="815" y1="281.5" y2="281.5"/></g><!--class pct--><g id="elem_pct"><rect codeLine="33" fill="#F1F1F1" height="48" id="pct" rx="2.5" ry="2.5" style="stroke:#181818;stroke-width:0.5;" width="228" x="470.5" y="31.5"/><ellipse cx="485.5" cy="47.5" fill="#EB937F" rx="11" ry="11" style="stroke:#181818;stroke-width:1.0;"/><path d="M484.2969,48.375 L485.75,48.375 L485.75,48.4844 C485.75,48.8906 485.7813,49.0469 485.8594,49.2031 C486.0156,49.4531 486.2969,49.6094 486.5938,49.6094 C486.8438,49.6094 487.1094,49.4688 487.2656,49.25 C487.3906,49.0938 487.4219,48.9375 487.4219,48.4844 L487.4219,46.5625 C487.4219,46.4063 487.4219,46.3594 487.4063,46.2031 C487.3438,45.7344 487.0313,45.4219 486.5781,45.4219 C486.3281,45.4219 486.0625,45.5625 485.8906,45.7813 C485.7813,45.9531 485.75,46.1094 485.75,46.5625 L485.75,46.6875 L484.2969,46.6875 L484.2969,44.2813 L488.2813,44.2813 L488.2813,45.1406 C488.2813,45.5469 488.3125,45.7188 488.3906,45.875 C488.5625,46.125 488.8438,46.2813 489.125,46.2813 C489.3906,46.2813 489.6563,46.1406 489.8281,45.9219 C489.9375,45.75 489.9688,45.6094 489.9688,45.1406 L489.9688,42.5938 L482.3438,42.5938 C481.9063,42.5938 481.7813,42.6094 481.625,42.7031 C481.375,42.8594 481.2188,43.1563 481.2188,43.4375 C481.2188,43.7188 481.3594,43.9688 481.5781,44.1406 C481.7344,44.25 481.9219,44.2813 482.3438,44.2813 L482.5938,44.2813 L482.5938,50.7969 L482.3438,50.7969 C481.9375,50.7969 481.7813,50.8125 481.625,50.9219 C481.375,51.0938 481.2188,51.3594 481.2188,51.6563 C481.2188,51.9219 481.3594,52.1719 481.5781,52.3281 C481.7188,52.4531 481.9531,52.5 482.3438,52.5 L490.3438,52.5 L490.3438,49.9219 C490.3438,49.4844 490.3125,49.3438 490.2344,49.1875 C490.0625,48.9375 489.7813,48.7813 489.5,48.7813 C489.2344,48.7813 488.9688,48.8906 488.7969,49.1406 C488.6875,49.2969 488.6563,49.4375 488.6563,49.9219 L488.6563,50.7969 L484.2969,50.7969 L484.2969,48.375 Z " fill="#000000"/><text fill="#000000" font-family="sans-serif" font-size="14" lengthAdjust="spacing" textLength="196" x="499.5" y="52.3467">PulverizedComponentType</text><line style="stroke:#181818;stroke-width:0.5;" x1="471.5" x2="697.5" y1="63.5" y2="63.5"/><line style="stroke:#181818;stroke-width:0.5;" x1="471.5" x2="697.5" y1="71.5" y2="71.5"/></g><!--class ldc--><g id="elem_ldc"><rect codeLine="34" fill="#F1F1F1" height="48" id="ldc" rx="2.5" ry="2.5" style="stroke:#181818;stroke-width:0.5;" width="229" x="734" y="31.5"/><ellipse cx="749" cy="47.5" fill="#ADD1B2" rx="11" ry="11" style="stroke:#181818;stroke-width:1.0;"/><path d="M751.3438,43.1719 C750.4063,42.7344 749.8125,42.5938 748.9375,42.5938 C746.3125,42.5938 744.3125,44.6719 744.3125,47.3906 L744.3125,48.5156 C744.3125,51.0938 746.4219,52.9844 749.3125,52.9844 C750.5313,52.9844 751.6875,52.6875 752.4375,52.1406 C753.0156,51.7344 753.3438,51.2813 753.3438,50.8906 C753.3438,50.4375 752.9531,50.0469 752.4844,50.0469 C752.2656,50.0469 752.0625,50.125 751.875,50.3125 C751.4219,50.7969 751.4219,50.7969 751.2344,50.8906 C750.8125,51.1563 750.125,51.2813 749.3594,51.2813 C747.3125,51.2813 746.0156,50.1875 746.0156,48.4844 L746.0156,47.3906 C746.0156,45.6094 747.2656,44.2969 749,44.2969 C749.5781,44.2969 750.1875,44.4531 750.6563,44.7031 C751.1406,44.9844 751.3125,45.2031 751.4063,45.6094 C751.4688,46.0156 751.5,46.1406 751.6406,46.2656 C751.7813,46.4063 752.0156,46.5156 752.2344,46.5156 C752.5,46.5156 752.7656,46.375 752.9375,46.1563 C753.0469,46 753.0781,45.8125 753.0781,45.3906 L753.0781,43.9688 C753.0781,43.5313 753.0625,43.4063 752.9688,43.25 C752.8125,42.9844 752.5313,42.8438 752.2344,42.8438 C751.9375,42.8438 751.7344,42.9375 751.5156,43.25 L751.3438,43.1719 Z " fill="#000000"/><text fill="#000000" font-family="sans-serif" font-size="14" lengthAdjust="spacing" textLength="197" x="763" y="52.3467">LogicalDeviceConfiguration</text><line style="stroke:#181818;stroke-width:0.5;" x1="735" x2="962" y1="63.5" y2="63.5"/><line style="stroke:#181818;stroke-width:0.5;" x1="735" x2="962" y1="71.5" y2="71.5"/></g><!--reverse link pc to bhv--><g id="link_pc_bhv"><path codeLine="36" d="M292.443,120.274 C263.547,157.839 228.283,203.682 205.381,233.454 " fill="none" id="pc-backto-bhv" style="stroke:#181818;stroke-width:1.0;"/><polygon fill="none" points="287.05,115.804,304.793,104.219,298.147,124.34,287.05,115.804" style="stroke:#181818;stroke-width:1.0;"/></g><!--reverse link pc to state--><g id="link_pc_state"><path codeLine="37" d="M258.287,115.979 C204.867,154.162 137.639,202.215 94.3684,233.144 " fill="none" id="pc-backto-state" style="stroke:#181818;stroke-width:1.0;"/><polygon fill="none" points="254.397,110.155,274.739,104.219,262.538,121.544,254.397,110.155" style="stroke:#181818;stroke-width:1.0;"/></g><!--reverse link pc to comm--><g id="link_pc_comm"><path codeLine="38" d="M341.5,124.516 C341.5,157.669 341.5,196.385 341.5,224.688 " fill="none" id="pc-backto-comm" style="stroke:#181818;stroke-width:1.0;"/><polygon fill="none" points="334.5,124.219,341.5,104.219,348.5,124.219,334.5,124.219" style="stroke:#181818;stroke-width:1.0;"/></g><!--reverse link pc to act_cont--><g id="link_pc_act_cont"><path codeLine="39" d="M448.382,113.798 C526.85,155.863 629.317,210.794 686.363,241.375 " fill="none" id="pc-backto-act_cont" style="stroke:#181818;stroke-width:1.0;"/><polygon fill="none" points="444.835,119.838,430.515,104.219,451.449,107.5,444.835,119.838" style="stroke:#181818;stroke-width:1.0;"/></g><!--reverse link pc to sens_cont--><g id="link_pc_sens_cont"><path codeLine="40" d="M397.849,119.177 C434.951,160.446 481.374,212.081 507.71,241.375 " fill="none" id="pc-backto-sens_cont" style="stroke:#181818;stroke-width:1.0;"/><polygon fill="none" points="392.567,123.772,384.402,104.219,402.979,114.412,392.567,123.772" style="stroke:#181818;stroke-width:1.0;"/></g><!--reverse link sens_cont to sens--><g id="link_sens_cont_sens"><path codeLine="42" d="M528.5,302.732 C528.5,322.57 528.5,346.9014 528.5,365.8754 " fill="none" id="sens_cont-backto-sens" style="stroke:#181818;stroke-width:1.0;"/><polygon fill="none" points="528.5,289.53,524.5,295.53,528.5,301.53,532.5,295.53,528.5,289.53" style="stroke:#181818;stroke-width:1.0;"/><text fill="#000000" font-family="sans-serif" font-size="13" lengthAdjust="spacing" textLength="7" x="520.7781" y="354.7528">*</text></g><!--reverse link act_cont to act--><g id="link_act_cont_act"><path codeLine="43" d="M729.5,302.732 C729.5,322.57 729.5,346.9014 729.5,365.8754 " fill="none" id="act_cont-backto-act" style="stroke:#181818;stroke-width:1.0;"/><polygon fill="none" points="729.5,289.53,725.5,295.53,729.5,301.53,733.5,295.53,729.5,289.53" style="stroke:#181818;stroke-width:1.0;"/><text fill="#000000" font-family="sans-serif" font-size="13" lengthAdjust="spacing" textLength="7" x="721.7781" y="354.7528">*</text></g><!--link pc to pct--><g id="link_pc_pct"><path codeLine="45" d="M435.947,55.5 C447.456,55.5 458.965,55.5 470.474,55.5 " fill="none" id="pc-pct" style="stroke:#181818;stroke-width:1.0;"/></g><!--link pct to ldc--><g id="link_pct_ldc"><path codeLine="46" d="M698.711,55.5 C710.413,55.5 722.115,55.5 733.818,55.5 " fill="none" id="pct-ldc" style="stroke:#181818;stroke-width:1.0;"/></g><!--SRC=[RL6xRiCm3Dpr5OAdFk0VABgqwL8WGu5qBnI9SOZQb25H1lhwzz9IB0TD1m7YyUxuOZzgzdhlcVsW7GQmZ9wKGc881sD1Do-fdo3W9xYD7qPFGDne4_LezPVI-bOxcD32ixlJEmv8NGQHaD7q8hkwpi01QGb_pkrtR1YoOPn_nRC3Bh8qEW6pvbpq24SpeKyX2_V7gSYG9lz-oPQ-XqHepJnRLbX1YYG2kL9APWUSBjKxeEXB8I77AekNr0VBoV29R2mNhideYMrx4-DY6ZUUs231Qlzc1LfOYzyVdXWMcW9AmxyNUlqOuNIbwhRrdUoWVyhd4iS3TYciE-cTLKgEUl_TjksyqpN8brd3UNjhLBjPwNKELR_QIwAvQN9IBPgA2f2Bjm6x8xUvRNarbkP-0G00]--></g></svg>