<?xml version="1.0" encoding="UTF-8" standalone="no"?><svg xmlns="http://www.w3.org/2000/svg" xmlns:xlink="http://www.w3.org/1999/xlink" contentStyleType="text/css" height="614px" preserveAspectRatio="none" style="width:1027px;height:614px;background:#FFFFFF;" version="1.1" viewBox="0 0 1027 614" width="1027px" zoomAndPan="magnify"><defs/><g><!--class kc--><g id="elem_kc"><rect codeLine="4" fill="#F1F1F1" height="48" id="kc" rx="2.5" ry="2.5" style="stroke:#181818;stroke-width:0.5;" width="146" x="321.5" y="23.5"/><ellipse cx="336.5" cy="39.5" fill="#B4A7E5" rx="11" ry="11" style="stroke:#181818;stroke-width:1.0;"/><path d="M337.4531,36.2813 L339.1719,36.2813 C339.5625,36.2813 339.75,36.25 339.875,36.1719 C340.1406,36.0156 340.2813,35.7344 340.2813,35.4375 C340.2813,35.1719 340.1719,34.9063 339.9375,34.7344 C339.7656,34.625 339.625,34.5938 339.1719,34.5938 L334.0313,34.5938 C333.5938,34.5938 333.4688,34.6094 333.3125,34.7031 C333.0625,34.8594 332.9063,35.1563 332.9063,35.4375 C332.9063,35.7188 333.0469,35.9688 333.2656,36.1406 C333.4219,36.25 333.6094,36.2813 334.0313,36.2813 L335.75,36.2813 L335.75,42.7969 L334.0313,42.7969 C333.5938,42.7969 333.4688,42.8125 333.3125,42.9219 C333.0625,43.0781 332.9063,43.3594 332.9063,43.6563 C332.9063,43.9063 333.0469,44.1719 333.2656,44.3281 C333.4219,44.4531 333.625,44.5 334.0313,44.5 L339.1719,44.5 C339.9219,44.5 340.2813,44.2188 340.2813,43.6563 C340.2813,43.375 340.1719,43.125 339.9375,42.9531 C339.7656,42.8281 339.625,42.7969 339.1719,42.7969 L337.4531,42.7969 L337.4531,36.2813 Z " fill="#000000"/><text fill="#000000" font-family="sans-serif" font-size="14" font-style="italic" lengthAdjust="spacing" textLength="114" x="350.5" y="44.3467">KoinComponent</text><line style="stroke:#181818;stroke-width:0.5;" x1="322.5" x2="466.5" y1="55.5" y2="55.5"/><line style="stroke:#181818;stroke-width:0.5;" x1="322.5" x2="466.5" y1="63.5" y2="63.5"/></g><!--class init--><g id="elem_init"><rect codeLine="6" fill="#F1F1F1" height="80.5938" id="init" rx="2.5" ry="2.5" style="stroke:#181818;stroke-width:0.5;" width="113" x="528" y="7"/><ellipse cx="543" cy="23" fill="#B4A7E5" rx="11" ry="11" style="stroke:#181818;stroke-width:1.0;"/><path d="M543.9531,19.7813 L545.6719,19.7813 C546.0625,19.7813 546.25,19.75 546.375,19.6719 C546.6406,19.5156 546.7813,19.2344 546.7813,18.9375 C546.7813,18.6719 546.6719,18.4063 546.4375,18.2344 C546.2656,18.125 546.125,18.0938 545.6719,18.0938 L540.5313,18.0938 C540.0938,18.0938 539.9688,18.1094 539.8125,18.2031 C539.5625,18.3594 539.4063,18.6563 539.4063,18.9375 C539.4063,19.2188 539.5469,19.4688 539.7656,19.6406 C539.9219,19.75 540.1094,19.7813 540.5313,19.7813 L542.25,19.7813 L542.25,26.2969 L540.5313,26.2969 C540.0938,26.2969 539.9688,26.3125 539.8125,26.4219 C539.5625,26.5781 539.4063,26.8594 539.4063,27.1563 C539.4063,27.4063 539.5469,27.6719 539.7656,27.8281 C539.9219,27.9531 540.125,28 540.5313,28 L545.6719,28 C546.4219,28 546.7813,27.7188 546.7813,27.1563 C546.7813,26.875 546.6719,26.625 546.4375,26.4531 C546.2656,26.3281 546.125,26.2969 545.6719,26.2969 L543.9531,26.2969 L543.9531,19.7813 Z " fill="#000000"/><text fill="#000000" font-family="sans-serif" font-size="14" font-style="italic" lengthAdjust="spacing" textLength="81" x="557" y="27.8467">Initializable</text><line style="stroke:#181818;stroke-width:0.5;" x1="529" x2="640" y1="39" y2="39"/><line style="stroke:#181818;stroke-width:0.5;" x1="529" x2="640" y1="47" y2="47"/><ellipse cx="539" cy="60.6484" fill="#84BE84" rx="3" ry="3" style="stroke:#038048;stroke-width:1.0;"/><text fill="#000000" font-family="sans-serif" font-size="14" lengthAdjust="spacing" textLength="71" x="548" y="63.9951">initialize()</text><ellipse cx="539" cy="76.9453" fill="#84BE84" rx="3" ry="3" style="stroke:#038048;stroke-width:1.0;"/><text fill="#000000" font-family="sans-serif" font-size="14" lengthAdjust="spacing" textLength="62" x="548" y="80.292">finalize()</text></g><!--class ctx--><g id="elem_ctx"><rect codeLine="11" fill="#F1F1F1" height="64.2969" id="ctx" rx="2.5" ry="2.5" style="stroke:#181818;stroke-width:0.5;" width="141" x="61" y="181.5"/><ellipse cx="100.3" cy="197.5" fill="#B4A7E5" rx="11" ry="11" style="stroke:#181818;stroke-width:1.0;"/><path d="M101.2531,194.2813 L102.9719,194.2813 C103.3625,194.2813 103.55,194.25 103.675,194.1719 C103.9406,194.0156 104.0813,193.7344 104.0813,193.4375 C104.0813,193.1719 103.9719,192.9063 103.7375,192.7344 C103.5656,192.625 103.425,192.5938 102.9719,192.5938 L97.8313,192.5938 C97.3938,192.5938 97.2688,192.6094 97.1125,192.7031 C96.8625,192.8594 96.7063,193.1563 96.7063,193.4375 C96.7063,193.7188 96.8469,193.9688 97.0656,194.1406 C97.2219,194.25 97.4094,194.2813 97.8313,194.2813 L99.55,194.2813 L99.55,200.7969 L97.8313,200.7969 C97.3938,200.7969 97.2688,200.8125 97.1125,200.9219 C96.8625,201.0781 96.7063,201.3594 96.7063,201.6563 C96.7063,201.9063 96.8469,202.1719 97.0656,202.3281 C97.2219,202.4531 97.425,202.5 97.8313,202.5 L102.9719,202.5 C103.7219,202.5 104.0813,202.2188 104.0813,201.6563 C104.0813,201.375 103.9719,201.125 103.7375,200.9531 C103.5656,200.8281 103.425,200.7969 102.9719,200.7969 L101.2531,200.7969 L101.2531,194.2813 Z " fill="#000000"/><text fill="#000000" font-family="sans-serif" font-size="14" font-style="italic" lengthAdjust="spacing" textLength="55" x="119.7" y="202.3467">Context</text><line style="stroke:#181818;stroke-width:0.5;" x1="62" x2="201" y1="213.5" y2="213.5"/><ellipse cx="72" cy="227.1484" fill="none" rx="3" ry="3" style="stroke:#038048;stroke-width:1.0;"/><text fill="#000000" font-family="sans-serif" font-size="14" lengthAdjust="spacing" textLength="115" x="81" y="230.4951">deviceID: String</text><line style="stroke:#181818;stroke-width:0.5;" x1="62" x2="201" y1="237.7969" y2="237.7969"/></g><!--class pc--><g id="elem_pc"><rect codeLine="15" fill="#F1F1F1" height="80.5938" id="pc" rx="2.5" ry="2.5" style="stroke:#181818;stroke-width:0.5;" width="351" x="314" y="173"/><ellipse cx="407.25" cy="189" fill="#B4A7E5" rx="11" ry="11" style="stroke:#181818;stroke-width:1.0;"/><path d="M408.2031,185.7813 L409.9219,185.7813 C410.3125,185.7813 410.5,185.75 410.625,185.6719 C410.8906,185.5156 411.0313,185.2344 411.0313,184.9375 C411.0313,184.6719 410.9219,184.4063 410.6875,184.2344 C410.5156,184.125 410.375,184.0938 409.9219,184.0938 L404.7813,184.0938 C404.3438,184.0938 404.2188,184.1094 404.0625,184.2031 C403.8125,184.3594 403.6563,184.6563 403.6563,184.9375 C403.6563,185.2188 403.7969,185.4688 404.0156,185.6406 C404.1719,185.75 404.3594,185.7813 404.7813,185.7813 L406.5,185.7813 L406.5,192.2969 L404.7813,192.2969 C404.3438,192.2969 404.2188,192.3125 404.0625,192.4219 C403.8125,192.5781 403.6563,192.8594 403.6563,193.1563 C403.6563,193.4063 403.7969,193.6719 404.0156,193.8281 C404.1719,193.9531 404.375,194 404.7813,194 L409.9219,194 C410.6719,194 411.0313,193.7188 411.0313,193.1563 C411.0313,192.875 410.9219,192.625 410.6875,192.4531 C410.5156,192.3281 410.375,192.2969 409.9219,192.2969 L408.2031,192.2969 L408.2031,185.7813 Z " fill="#000000"/><text fill="#000000" font-family="sans-serif" font-size="14" font-style="italic" lengthAdjust="spacing" textLength="156" x="427.75" y="193.8467">PulverizedComponent</text><line style="stroke:#181818;stroke-width:0.5;" x1="315" x2="664" y1="205" y2="205"/><ellipse cx="325" cy="218.6484" fill="none" rx="3" ry="3" style="stroke:#038048;stroke-width:1.0;"/><text fill="#000000" font-family="sans-serif" font-size="14" lengthAdjust="spacing" textLength="125" x="334" y="221.9951">context: Context</text><ellipse cx="325" cy="234.9453" fill="none" rx="3" ry="3" style="stroke:#038048;stroke-width:1.0;"/><text fill="#000000" font-family="sans-serif" font-size="14" lengthAdjust="spacing" textLength="325" x="334" y="238.292">componentType: PulverizedComponentType</text><line style="stroke:#181818;stroke-width:0.5;" x1="315" x2="664" y1="245.5938" y2="245.5938"/></g><!--class state--><g id="elem_state"><rect codeLine="20" fill="#F1F1F1" height="80.5938" id="state" rx="2.5" ry="2.5" style="stroke:#181818;stroke-width:0.5;" width="87" x="7" y="401"/><ellipse cx="24.7" cy="417" fill="#B4A7E5" rx="11" ry="11" style="stroke:#181818;stroke-width:1.0;"/><path d="M25.6531,413.7813 L27.3719,413.7813 C27.7625,413.7813 27.95,413.75 28.075,413.6719 C28.3406,413.5156 28.4813,413.2344 28.4813,412.9375 C28.4813,412.6719 28.3719,412.4063 28.1375,412.2344 C27.9656,412.125 27.825,412.0938 27.3719,412.0938 L22.2313,412.0938 C21.7938,412.0938 21.6688,412.1094 21.5125,412.2031 C21.2625,412.3594 21.1063,412.6563 21.1063,412.9375 C21.1063,413.2188 21.2469,413.4688 21.4656,413.6406 C21.6219,413.75 21.8094,413.7813 22.2313,413.7813 L23.95,413.7813 L23.95,420.2969 L22.2313,420.2969 C21.7938,420.2969 21.6688,420.3125 21.5125,420.4219 C21.2625,420.5781 21.1063,420.8594 21.1063,421.1563 C21.1063,421.4063 21.2469,421.6719 21.4656,421.8281 C21.6219,421.9531 21.825,422 22.2313,422 L27.3719,422 C28.1219,422 28.4813,421.7188 28.4813,421.1563 C28.4813,420.875 28.3719,420.625 28.1375,420.4531 C27.9656,420.3281 27.825,420.2969 27.3719,420.2969 L25.6531,420.2969 L25.6531,413.7813 Z " fill="#000000"/><text fill="#000000" font-family="sans-serif" font-size="14" font-style="italic" lengthAdjust="spacing" textLength="37" x="39.3" y="421.8467">State</text><rect fill="#FFFFFF" height="15.9688" style="stroke:#181818;stroke-width:1.0;stroke-dasharray:2.0,2.0;" width="10" x="87" y="398"/><text fill="#000000" font-family="sans-serif" font-size="12" font-style="italic" lengthAdjust="spacing" textLength="8" x="88" y="410.1387">S</text><line style="stroke:#181818;stroke-width:0.5;" x1="8" x2="93" y1="433" y2="433"/><line style="stroke:#181818;stroke-width:0.5;" x1="8" x2="93" y1="441" y2="441"/><ellipse cx="18" cy="454.6484" fill="#84BE84" rx="3" ry="3" style="stroke:#038048;stroke-width:1.0;"/><text fill="#000000" font-family="sans-serif" font-size="14" lengthAdjust="spacing" textLength="35" x="27" y="457.9951">get()</text><ellipse cx="18" cy="470.9453" fill="#84BE84" rx="3" ry="3" style="stroke:#038048;stroke-width:1.0;"/><text fill="#000000" font-family="sans-serif" font-size="14" lengthAdjust="spacing" textLength="61" x="27" y="474.292">update()</text></g><!--class bhv--><g id="elem_bhv"><rect codeLine="25" fill="#F1F1F1" height="64.2969" id="bhv" rx="2.5" ry="2.5" style="stroke:#181818;stroke-width:0.5;" width="197" x="154" y="409.5"/><ellipse cx="169" cy="425.5" fill="#B4A7E5" rx="11" ry="11" style="stroke:#181818;stroke-width:1.0;"/><path d="M169.9531,422.2813 L171.6719,422.2813 C172.0625,422.2813 172.25,422.25 172.375,422.1719 C172.6406,422.0156 172.7813,421.7344 172.7813,421.4375 C172.7813,421.1719 172.6719,420.9063 172.4375,420.7344 C172.2656,420.625 172.125,420.5938 171.6719,420.5938 L166.5313,420.5938 C166.0938,420.5938 165.9688,420.6094 165.8125,420.7031 C165.5625,420.8594 165.4063,421.1563 165.4063,421.4375 C165.4063,421.7188 165.5469,421.9688 165.7656,422.1406 C165.9219,422.25 166.1094,422.2813 166.5313,422.2813 L168.25,422.2813 L168.25,428.7969 L166.5313,428.7969 C166.0938,428.7969 165.9688,428.8125 165.8125,428.9219 C165.5625,429.0781 165.4063,429.3594 165.4063,429.6563 C165.4063,429.9063 165.5469,430.1719 165.7656,430.3281 C165.9219,430.4531 166.125,430.5 166.5313,430.5 L171.6719,430.5 C172.4219,430.5 172.7813,430.2188 172.7813,429.6563 C172.7813,429.375 172.6719,429.125 172.4375,428.9531 C172.2656,428.8281 172.125,428.7969 171.6719,428.7969 L169.9531,428.7969 L169.9531,422.2813 Z " fill="#000000"/><text fill="#000000" font-family="sans-serif" font-size="14" font-style="italic" lengthAdjust="spacing" textLength="73" x="183" y="430.3467">Behaviour</text><rect fill="#FFFFFF" height="15.9688" style="stroke:#181818;stroke-width:1.0;stroke-dasharray:2.0,2.0;" width="90" x="264" y="406.5"/><text fill="#000000" font-family="sans-serif" font-size="12" font-style="italic" lengthAdjust="spacing" textLength="88" x="265" y="418.6387">S, C, AS, SS, R</text><line style="stroke:#181818;stroke-width:0.5;" x1="155" x2="350" y1="441.5" y2="441.5"/><line style="stroke:#181818;stroke-width:0.5;" x1="155" x2="350" y1="449.5" y2="449.5"/><ellipse cx="165" cy="463.1484" fill="#84BE84" rx="3" ry="3" style="stroke:#038048;stroke-width:1.0;"/><text fill="#000000" font-family="sans-serif" font-size="14" lengthAdjust="spacing" textLength="58" x="174" y="466.4951">invoke()</text></g><!--class comm--><g id="elem_comm"><rect codeLine="29" fill="#F1F1F1" height="80.5938" id="comm" rx="2.5" ry="2.5" style="stroke:#181818;stroke-width:0.5;" width="157" x="411" y="401"/><ellipse cx="426" cy="417" fill="#B4A7E5" rx="11" ry="11" style="stroke:#181818;stroke-width:1.0;"/><path d="M426.9531,413.7813 L428.6719,413.7813 C429.0625,413.7813 429.25,413.75 429.375,413.6719 C429.6406,413.5156 429.7813,413.2344 429.7813,412.9375 C429.7813,412.6719 429.6719,412.4063 429.4375,412.2344 C429.2656,412.125 429.125,412.0938 428.6719,412.0938 L423.5313,412.0938 C423.0938,412.0938 422.9688,412.1094 422.8125,412.2031 C422.5625,412.3594 422.4063,412.6563 422.4063,412.9375 C422.4063,413.2188 422.5469,413.4688 422.7656,413.6406 C422.9219,413.75 423.1094,413.7813 423.5313,413.7813 L425.25,413.7813 L425.25,420.2969 L423.5313,420.2969 C423.0938,420.2969 422.9688,420.3125 422.8125,420.4219 C422.5625,420.5781 422.4063,420.8594 422.4063,421.1563 C422.4063,421.4063 422.5469,421.6719 422.7656,421.8281 C422.9219,421.9531 423.125,422 423.5313,422 L428.6719,422 C429.4219,422 429.7813,421.7188 429.7813,421.1563 C429.7813,420.875 429.6719,420.625 429.4375,420.4531 C429.2656,420.3281 429.125,420.2969 428.6719,420.2969 L426.9531,420.2969 L426.9531,413.7813 Z " fill="#000000"/><text fill="#000000" font-family="sans-serif" font-size="14" font-style="italic" lengthAdjust="spacing" textLength="113" x="440" y="421.8467">Communication</text><rect fill="#FFFFFF" height="15.9688" style="stroke:#181818;stroke-width:1.0;stroke-dasharray:2.0,2.0;" width="10" x="561" y="398"/><text fill="#000000" font-family="sans-serif" font-size="12" font-style="italic" lengthAdjust="spacing" textLength="8" x="562" y="410.1387">C</text><line style="stroke:#181818;stroke-width:0.5;" x1="412" x2="567" y1="433" y2="433"/><line style="stroke:#181818;stroke-width:0.5;" x1="412" x2="567" y1="441" y2="441"/><ellipse cx="422" cy="454.6484" fill="#84BE84" rx="3" ry="3" style="stroke:#038048;stroke-width:1.0;"/><text fill="#000000" font-family="sans-serif" font-size="14" lengthAdjust="spacing" textLength="44" x="431" y="457.9951">send()</text><ellipse cx="422" cy="470.9453" fill="#84BE84" rx="3" ry="3" style="stroke:#038048;stroke-width:1.0;"/><text fill="#000000" font-family="sans-serif" font-size="14" lengthAdjust="spacing" textLength="63" x="431" y="474.292">receive()</text></g><!--class sens--><g id="elem_sens"><rect codeLine="34" fill="#F1F1F1" height="64.2969" id="sens" rx="2.5" ry="2.5" style="stroke:#181818;stroke-width:0.5;" width="92" x="661.5" y="543"/><ellipse cx="676.5" cy="559" fill="#B4A7E5" rx="11" ry="11" style="stroke:#181818;stroke-width:1.0;"/><path d="M677.4531,555.7813 L679.1719,555.7813 C679.5625,555.7813 679.75,555.75 679.875,555.6719 C680.1406,555.5156 680.2813,555.2344 680.2813,554.9375 C680.2813,554.6719 680.1719,554.4063 679.9375,554.2344 C679.7656,554.125 679.625,554.0938 679.1719,554.0938 L674.0313,554.0938 C673.5938,554.0938 673.4688,554.1094 673.3125,554.2031 C673.0625,554.3594 672.9063,554.6563 672.9063,554.9375 C672.9063,555.2188 673.0469,555.4688 673.2656,555.6406 C673.4219,555.75 673.6094,555.7813 674.0313,555.7813 L675.75,555.7813 L675.75,562.2969 L674.0313,562.2969 C673.5938,562.2969 673.4688,562.3125 673.3125,562.4219 C673.0625,562.5781 672.9063,562.8594 672.9063,563.1563 C672.9063,563.4063 673.0469,563.6719 673.2656,563.8281 C673.4219,563.9531 673.625,564 674.0313,564 L679.1719,564 C679.9219,564 680.2813,563.7188 680.2813,563.1563 C680.2813,562.875 680.1719,562.625 679.9375,562.4531 C679.7656,562.3281 679.625,562.2969 679.1719,562.2969 L677.4531,562.2969 L677.4531,555.7813 Z " fill="#000000"/><text fill="#000000" font-family="sans-serif" font-size="14" font-style="italic" lengthAdjust="spacing" textLength="49" x="690.5" y="563.8467">Sensor</text><rect fill="#FFFFFF" height="15.9688" style="stroke:#181818;stroke-width:1.0;stroke-dasharray:2.0,2.0;" width="9" x="747.5" y="540"/><text fill="#000000" font-family="sans-serif" font-size="12" font-style="italic" lengthAdjust="spacing" textLength="7" x="748.5" y="552.1387">T</text><line style="stroke:#181818;stroke-width:0.5;" x1="662.5" x2="752.5" y1="575" y2="575"/><line style="stroke:#181818;stroke-width:0.5;" x1="662.5" x2="752.5" y1="583" y2="583"/><ellipse cx="672.5" cy="596.6484" fill="#84BE84" rx="3" ry="3" style="stroke:#038048;stroke-width:1.0;"/><text fill="#000000" font-family="sans-serif" font-size="14" lengthAdjust="spacing" textLength="51" x="681.5" y="599.9951">sense()</text></g><!--class act--><g id="elem_act"><rect codeLine="38" fill="#F1F1F1" height="64.2969" id="act" rx="2.5" ry="2.5" style="stroke:#181818;stroke-width:0.5;" width="104" x="881.5" y="543"/><ellipse cx="896.5" cy="559" fill="#B4A7E5" rx="11" ry="11" style="stroke:#181818;stroke-width:1.0;"/><path d="M897.4531,555.7813 L899.1719,555.7813 C899.5625,555.7813 899.75,555.75 899.875,555.6719 C900.1406,555.5156 900.2813,555.2344 900.2813,554.9375 C900.2813,554.6719 900.1719,554.4063 899.9375,554.2344 C899.7656,554.125 899.625,554.0938 899.1719,554.0938 L894.0313,554.0938 C893.5938,554.0938 893.4688,554.1094 893.3125,554.2031 C893.0625,554.3594 892.9063,554.6563 892.9063,554.9375 C892.9063,555.2188 893.0469,555.4688 893.2656,555.6406 C893.4219,555.75 893.6094,555.7813 894.0313,555.7813 L895.75,555.7813 L895.75,562.2969 L894.0313,562.2969 C893.5938,562.2969 893.4688,562.3125 893.3125,562.4219 C893.0625,562.5781 892.9063,562.8594 892.9063,563.1563 C892.9063,563.4063 893.0469,563.6719 893.2656,563.8281 C893.4219,563.9531 893.625,564 894.0313,564 L899.1719,564 C899.9219,564 900.2813,563.7188 900.2813,563.1563 C900.2813,562.875 900.1719,562.625 899.9375,562.4531 C899.7656,562.3281 899.625,562.2969 899.1719,562.2969 L897.4531,562.2969 L897.4531,555.7813 Z " fill="#000000"/><text fill="#000000" font-family="sans-serif" font-size="14" font-style="italic" lengthAdjust="spacing" textLength="61" x="910.5" y="563.8467">Actuator</text><rect fill="#FFFFFF" height="15.9688" style="stroke:#181818;stroke-width:1.0;stroke-dasharray:2.0,2.0;" width="9" x="979.5" y="540"/><text fill="#000000" font-family="sans-serif" font-size="12" font-style="italic" lengthAdjust="spacing" textLength="7" x="980.5" y="552.1387">T</text><line style="stroke:#181818;stroke-width:0.5;" x1="882.5" x2="984.5" y1="575" y2="575"/><line style="stroke:#181818;stroke-width:0.5;" x1="882.5" x2="984.5" y1="583" y2="583"/><ellipse cx="892.5" cy="596.6484" fill="#84BE84" rx="3" ry="3" style="stroke:#038048;stroke-width:1.0;"/><text fill="#000000" font-family="sans-serif" font-size="14" lengthAdjust="spacing" textLength="65" x="901.5" y="599.9951">actuate()</text></g><!--class pct--><g id="elem_pct"><rect codeLine="42" fill="#F1F1F1" height="129.4844" id="pct" rx="2.5" ry="2.5" style="stroke:#181818;stroke-width:0.5;" width="228" x="725.5" y="149"/><ellipse cx="740.5" cy="165" fill="#EB937F" rx="11" ry="11" style="stroke:#181818;stroke-width:1.0;"/><path d="M739.2969,165.875 L740.75,165.875 L740.75,165.9844 C740.75,166.3906 740.7813,166.5469 740.8594,166.7031 C741.0156,166.9531 741.2969,167.1094 741.5938,167.1094 C741.8438,167.1094 742.1094,166.9688 742.2656,166.75 C742.3906,166.5938 742.4219,166.4375 742.4219,165.9844 L742.4219,164.0625 C742.4219,163.9063 742.4219,163.8594 742.4063,163.7031 C742.3438,163.2344 742.0313,162.9219 741.5781,162.9219 C741.3281,162.9219 741.0625,163.0625 740.8906,163.2813 C740.7813,163.4531 740.75,163.6094 740.75,164.0625 L740.75,164.1875 L739.2969,164.1875 L739.2969,161.7813 L743.2813,161.7813 L743.2813,162.6406 C743.2813,163.0469 743.3125,163.2188 743.3906,163.375 C743.5625,163.625 743.8438,163.7813 744.125,163.7813 C744.3906,163.7813 744.6563,163.6406 744.8281,163.4219 C744.9375,163.25 744.9688,163.1094 744.9688,162.6406 L744.9688,160.0938 L737.3438,160.0938 C736.9063,160.0938 736.7813,160.1094 736.625,160.2031 C736.375,160.3594 736.2188,160.6563 736.2188,160.9375 C736.2188,161.2188 736.3594,161.4688 736.5781,161.6406 C736.7344,161.75 736.9219,161.7813 737.3438,161.7813 L737.5938,161.7813 L737.5938,168.2969 L737.3438,168.2969 C736.9375,168.2969 736.7813,168.3125 736.625,168.4219 C736.375,168.5938 736.2188,168.8594 736.2188,169.1563 C736.2188,169.4219 736.3594,169.6719 736.5781,169.8281 C736.7188,169.9531 736.9531,170 737.3438,170 L745.3438,170 L745.3438,167.4219 C745.3438,166.9844 745.3125,166.8438 745.2344,166.6875 C745.0625,166.4375 744.7813,166.2813 744.5,166.2813 C744.2344,166.2813 743.9688,166.3906 743.7969,166.6406 C743.6875,166.7969 743.6563,166.9375 743.6563,167.4219 L743.6563,168.2969 L739.2969,168.2969 L739.2969,165.875 Z " fill="#000000"/><text fill="#000000" font-family="sans-serif" font-size="14" lengthAdjust="spacing" textLength="196" x="754.5" y="169.8467">PulverizedComponentType</text><line style="stroke:#181818;stroke-width:0.5;" x1="726.5" x2="952.5" y1="181" y2="181"/><text fill="#000000" font-family="sans-serif" font-size="14" lengthAdjust="spacing" textLength="199" x="731.5" y="197.9951">CommunicationComponent</text><text fill="#000000" font-family="sans-serif" font-size="14" lengthAdjust="spacing" textLength="157" x="731.5" y="214.292">BehaviourComponent</text><text fill="#000000" font-family="sans-serif" font-size="14" lengthAdjust="spacing" textLength="126" x="731.5" y="230.5889">StateComponent</text><text fill="#000000" font-family="sans-serif" font-size="14" lengthAdjust="spacing" textLength="156" x="731.5" y="246.8857">ActuatorsComponent</text><text fill="#000000" font-family="sans-serif" font-size="14" lengthAdjust="spacing" textLength="142" x="731.5" y="263.1826">SensorsComponent</text><line style="stroke:#181818;stroke-width:0.5;" x1="726.5" x2="952.5" y1="270.4844" y2="270.4844"/></g><!--class sens_cont--><g id="elem_sens_cont"><rect codeLine="50" fill="#F1F1F1" height="80.5938" id="sens_cont" rx="2.5" ry="2.5" style="stroke:#181818;stroke-width:0.5;" width="159" x="628" y="401"/><ellipse cx="643" cy="417" fill="#ADD1B2" rx="11" ry="11" style="stroke:#181818;stroke-width:1.0;"/><path d="M645.3438,412.6719 C644.4063,412.2344 643.8125,412.0938 642.9375,412.0938 C640.3125,412.0938 638.3125,414.1719 638.3125,416.8906 L638.3125,418.0156 C638.3125,420.5938 640.4219,422.4844 643.3125,422.4844 C644.5313,422.4844 645.6875,422.1875 646.4375,421.6406 C647.0156,421.2344 647.3438,420.7813 647.3438,420.3906 C647.3438,419.9375 646.9531,419.5469 646.4844,419.5469 C646.2656,419.5469 646.0625,419.625 645.875,419.8125 C645.4219,420.2969 645.4219,420.2969 645.2344,420.3906 C644.8125,420.6563 644.125,420.7813 643.3594,420.7813 C641.3125,420.7813 640.0156,419.6875 640.0156,417.9844 L640.0156,416.8906 C640.0156,415.1094 641.2656,413.7969 643,413.7969 C643.5781,413.7969 644.1875,413.9531 644.6563,414.2031 C645.1406,414.4844 645.3125,414.7031 645.4063,415.1094 C645.4688,415.5156 645.5,415.6406 645.6406,415.7656 C645.7813,415.9063 646.0156,416.0156 646.2344,416.0156 C646.5,416.0156 646.7656,415.875 646.9375,415.6563 C647.0469,415.5 647.0781,415.3125 647.0781,414.8906 L647.0781,413.4688 C647.0781,413.0313 647.0625,412.9063 646.9688,412.75 C646.8125,412.4844 646.5313,412.3438 646.2344,412.3438 C645.9375,412.3438 645.7344,412.4375 645.5156,412.75 L645.3438,412.6719 Z " fill="#000000"/><text fill="#000000" font-family="sans-serif" font-size="14" lengthAdjust="spacing" textLength="127" x="657" y="421.8467">SensorsContainer</text><line style="stroke:#181818;stroke-width:0.5;" x1="629" x2="786" y1="433" y2="433"/><line style="stroke:#181818;stroke-width:0.5;" x1="629" x2="786" y1="441" y2="441"/><ellipse cx="639" cy="454.6484" fill="#84BE84" rx="3" ry="3" style="stroke:#038048;stroke-width:1.0;"/><text fill="#000000" font-family="sans-serif" font-size="14" lengthAdjust="spacing" textLength="35" x="648" y="457.9951">get()</text><ellipse cx="639" cy="470.9453" fill="#84BE84" rx="3" ry="3" style="stroke:#038048;stroke-width:1.0;"/><text fill="#000000" font-family="sans-serif" font-size="14" lengthAdjust="spacing" textLength="53" x="648" y="474.292">getAll()</text></g><!--class act_cont--><g id="elem_act_cont"><rect codeLine="55" fill="#F1F1F1" height="80.5938" id="act_cont" rx="2.5" ry="2.5" style="stroke:#181818;stroke-width:0.5;" width="173" x="847" y="401"/><ellipse cx="862" cy="417" fill="#ADD1B2" rx="11" ry="11" style="stroke:#181818;stroke-width:1.0;"/><path d="M864.3438,412.6719 C863.4063,412.2344 862.8125,412.0938 861.9375,412.0938 C859.3125,412.0938 857.3125,414.1719 857.3125,416.8906 L857.3125,418.0156 C857.3125,420.5938 859.4219,422.4844 862.3125,422.4844 C863.5313,422.4844 864.6875,422.1875 865.4375,421.6406 C866.0156,421.2344 866.3438,420.7813 866.3438,420.3906 C866.3438,419.9375 865.9531,419.5469 865.4844,419.5469 C865.2656,419.5469 865.0625,419.625 864.875,419.8125 C864.4219,420.2969 864.4219,420.2969 864.2344,420.3906 C863.8125,420.6563 863.125,420.7813 862.3594,420.7813 C860.3125,420.7813 859.0156,419.6875 859.0156,417.9844 L859.0156,416.8906 C859.0156,415.1094 860.2656,413.7969 862,413.7969 C862.5781,413.7969 863.1875,413.9531 863.6563,414.2031 C864.1406,414.4844 864.3125,414.7031 864.4063,415.1094 C864.4688,415.5156 864.5,415.6406 864.6406,415.7656 C864.7813,415.9063 865.0156,416.0156 865.2344,416.0156 C865.5,416.0156 865.7656,415.875 865.9375,415.6563 C866.0469,415.5 866.0781,415.3125 866.0781,414.8906 L866.0781,413.4688 C866.0781,413.0313 866.0625,412.9063 865.9688,412.75 C865.8125,412.4844 865.5313,412.3438 865.2344,412.3438 C864.9375,412.3438 864.7344,412.4375 864.5156,412.75 L864.3438,412.6719 Z " fill="#000000"/><text fill="#000000" font-family="sans-serif" font-size="14" lengthAdjust="spacing" textLength="141" x="876" y="421.8467">ActuatorsContainer</text><line style="stroke:#181818;stroke-width:0.5;" x1="848" x2="1019" y1="433" y2="433"/><line style="stroke:#181818;stroke-width:0.5;" x1="848" x2="1019" y1="441" y2="441"/><ellipse cx="858" cy="454.6484" fill="#84BE84" rx="3" ry="3" style="stroke:#038048;stroke-width:1.0;"/><text fill="#000000" font-family="sans-serif" font-size="14" lengthAdjust="spacing" textLength="35" x="867" y="457.9951">get()</text><ellipse cx="858" cy="470.9453" fill="#84BE84" rx="3" ry="3" style="stroke:#038048;stroke-width:1.0;"/><text fill="#000000" font-family="sans-serif" font-size="14" lengthAdjust="spacing" textLength="53" x="867" y="474.292">getAll()</text></g><!--reverse link kc to pc--><g id="link_kc_pc"><path codeLine="60" d="M418.028,89.117 C432.804,114.625 451.774,147.374 466.457,172.721 " fill="none" id="kc-backto-pc" style="stroke:#181818;stroke-width:1.0;"/><polygon fill="none" points="411.877,92.464,407.91,71.649,423.992,85.447,411.877,92.464" style="stroke:#181818;stroke-width:1.0;"/></g><!--reverse link init to pc--><g id="link_init_pc"><path codeLine="61" d="M551.387,105.663 C538.533,127.853 524.126,152.724 512.45,172.882 " fill="none" id="init-backto-pc" style="stroke:#181818;stroke-width:1.0;"/><polygon fill="none" points="545.421,101.997,561.503,88.2,557.535,109.015,545.421,101.997" style="stroke:#181818;stroke-width:1.0;"/></g><!--reverse link pc to pct--><g id="link_pc_pct"><path codeLine="63" d="M678.366,213.5 C694.059,213.5 709.752,213.5 725.445,213.5 " fill="none" id="pc-backto-pct" style="stroke:#181818;stroke-width:1.0;"/><polygon fill="#181818" points="665.184,213.5,671.184,217.5,677.184,213.5,671.184,209.5,665.184,213.5" style="stroke:#181818;stroke-width:1.0;"/><text fill="#000000" font-family="sans-serif" font-size="13" lengthAdjust="spacing" textLength="8" x="709.5132" y="210.0512">1</text></g><!--link ctx to pc--><g id="link_ctx_pc"><path codeLine="64" d="M202.229,213.5 C230.869,213.5 265.431,213.5 300.507,213.5 " fill="none" id="ctx-to-pc" style="stroke:#181818;stroke-width:1.0;"/><polygon fill="#181818" points="313.964,213.5,307.964,209.5,301.964,213.5,307.964,217.5,313.964,213.5" style="stroke:#181818;stroke-width:1.0;"/><text fill="#000000" font-family="sans-serif" font-size="13" lengthAdjust="spacing" textLength="50" x="233" y="206.5669">injected</text><text fill="#000000" font-family="sans-serif" font-size="13" lengthAdjust="spacing" textLength="8" x="209.9354" y="209.785">1</text></g><!--reverse link pc to bhv--><g id="link_pc_bhv"><path codeLine="66" d="M433.337,268.056 C387.19,312.061 323.411,372.88 285.227,409.292 " fill="none" id="pc-backto-bhv" style="stroke:#181818;stroke-width:1.0;"/><polygon fill="none" points="428.642,262.861,447.947,254.125,438.303,272.993,428.642,262.861" style="stroke:#181818;stroke-width:1.0;"/></g><!--reverse link pc to state--><g id="link_pc_state"><path codeLine="67" d="M392.195,263.262 C318.251,300.515 214.153,353.387 123.5,401 C113.932,406.025 103.7046,411.497 94.0254,416.721 " fill="none" id="pc-backto-state" style="stroke:#181818;stroke-width:1.0;"/><polygon fill="none" points="389.306,256.879,410.318,254.139,395.601,269.384,389.306,256.879" style="stroke:#181818;stroke-width:1.0;"/></g><!--reverse link pc to comm--><g id="link_pc_comm"><path codeLine="68" d="M489.5,274.149 C489.5,314.206 489.5,365.872 489.5,400.921 " fill="none" id="pc-backto-comm" style="stroke:#181818;stroke-width:1.0;"/><polygon fill="none" points="482.5,274.125,489.5,254.125,496.5,274.125,482.5,274.125" style="stroke:#181818;stroke-width:1.0;"/></g><!--reverse link pc to act_cont--><g id="link_pc_act_cont"><path codeLine="69" d="M585.343,263.285 C666.199,304.441 780.475,362.609 855.742,400.921 " fill="none" id="pc-backto-act_cont" style="stroke:#181818;stroke-width:1.0;"/><polygon fill="none" points="581.995,269.436,567.347,254.125,588.346,256.959,581.995,269.436" style="stroke:#181818;stroke-width:1.0;"/></g><!--reverse link pc to sens_cont--><g id="link_pc_sens_cont"><path codeLine="70" d="M541.781,268.7 C581.06,309.42 633.959,364.261 669.322,400.921 " fill="none" id="pc-backto-sens_cont" style="stroke:#181818;stroke-width:1.0;"/><polygon fill="none" points="536.569,273.379,527.722,254.125,546.645,263.66,536.569,273.379" style="stroke:#181818;stroke-width:1.0;"/></g><!--reverse link sens_cont to sens--><g id="link_sens_cont_sens"><path codeLine="72" d="M707.5,495.435 C707.5,511.4601 707.5,528.5412 707.5,542.6695 " fill="none" id="sens_cont-backto-sens" style="stroke:#181818;stroke-width:1.0;"/><polygon fill="none" points="707.5,482.311,703.5,488.311,707.5,494.311,711.5,488.311,707.5,482.311" style="stroke:#181818;stroke-width:1.0;"/><text fill="#000000" font-family="sans-serif" font-size="13" lengthAdjust="spacing" textLength="7" x="699.8109" y="531.8786">*</text></g><!--reverse link act_cont to act--><g id="link_act_cont_act"><path codeLine="73" d="M933.5,495.435 C933.5,511.4601 933.5,528.5412 933.5,542.6695 " fill="none" id="act_cont-backto-act" style="stroke:#181818;stroke-width:1.0;"/><polygon fill="none" points="933.5,482.311,929.5,488.311,933.5,494.311,937.5,488.311,933.5,482.311" style="stroke:#181818;stroke-width:1.0;"/><text fill="#000000" font-family="sans-serif" font-size="13" lengthAdjust="spacing" textLength="7" x="925.8109" y="531.8786">*</text></g><!--SRC=[XLDDRzim3BtxLn0-hLqDR9ST0cD0cbsANOQvzq6HcOIBBHcIRBJhzjz7IPO_aW0z134_tYCVIJdTWTEmryxf5ceoA1rfbTapgKuOqOBIDLhiuCkdB2Fbq1o4HCY_Qr8xtNPQeN8v20jd2M__LZbFYXo9Xlw8VOCXXzW3Rnd0Hqen_73dxGEfPAr9Tfg_Ns89wLuYkiQ193vzsq3b3AdZ1UP7tmnecArUjzZ929UHSmCZUVIDcS-l7MxW1eKFN1Igd71OLby3k_L6B7145sNrNStEAr6FU183wTwKrGFi7c3BVnN_VaQc_Mb8Knhq-TPCshPN98NVLRcB81RGHfH5LSVol4wauPgWGcMrAP_7njcQaFOwUojTBzoSB-IuH1428m1LtzuSlP_REFw8MxK_fN5W6ilI6MQyTAHsx2ehA5guk2FP26kJMEjtBKYXcJJ_ydTmiJ3-s3PDL3JY5_MM32p-FG9-4kNVec3XMRZyP6HyYFU5eUF95P1_plraeg_1m-ZojxxX1_ERNoJM0UBXXJ-EsGWtDvl-1cOhTRX8JwgpR1w0va1-duTWDgbANdRy1m00]--></g></svg>