<?xml version="1.0" encoding="UTF-8" standalone="no"?><svg xmlns="http://www.w3.org/2000/svg" xmlns:xlink="http://www.w3.org/1999/xlink" contentStyleType="text/css" height="356px" preserveAspectRatio="none" style="width:691px;height:356px;" version="1.1" viewBox="0 0 691 356" width="691px" zoomAndPan="magnify"><defs/><g><!--cluster Server--><g id="cluster_Server"><rect fill="none" height="216" rx="2.5" ry="2.5" style="stroke:#181818;stroke-width:1.0;" width="538" x="7" y="7"/><text fill="#000000" font-family="sans-serif" font-size="14" font-weight="bold" lengthAdjust="spacing" textLength="51" x="250.5" y="21.9951">Server</text></g><!--cluster Antenna--><g id="cluster_Antenna"><rect fill="#EB937F" height="87" rx="2.5" ry="2.5" style="stroke:#181818;stroke-width:1.0;" width="190" x="331" y="50"/><text fill="#000000" font-family="sans-serif" font-size="14" font-weight="bold" lengthAdjust="spacing" textLength="68" x="392" y="64.9951">Antenna</text></g><!--cluster s1--><g id="cluster_s1"><rect fill="#ADD1B2" height="87" rx="2.5" ry="2.5" style="stroke:#181818;stroke-width:1.0;" width="126" x="181" y="50"/><text fill="#000000" font-family="sans-serif" font-size="14" font-weight="bold" lengthAdjust="spacing" textLength="20" x="234" y="64.9951">S1</text></g><!--cluster s2--><g id="cluster_s2"><rect fill="#A9DCDF" height="87" rx="2.5" ry="2.5" style="stroke:#181818;stroke-width:1.0;" width="126" x="31" y="50"/><text fill="#000000" font-family="sans-serif" font-size="14" font-weight="bold" lengthAdjust="spacing" textLength="20" x="84" y="64.9951">S2</text></g><!--cluster sm1--><g id="cluster_sm1"><rect fill="#ADD1B2" height="103" rx="2.5" ry="2.5" style="stroke:#181818;stroke-width:1.0;" width="130" x="134" y="247"/><text fill="#000000" font-family="sans-serif" font-size="14" font-style="italic" lengthAdjust="spacing" textLength="65" x="166.5" y="261.9951">«device»</text><text fill="#000000" font-family="sans-serif" font-size="14" font-weight="bold" lengthAdjust="spacing" textLength="114" x="142" y="278.292">Smartphone 1</text></g><!--cluster sm2--><g id="cluster_sm2"><rect fill="#A9DCDF" height="103" rx="2.5" ry="2.5" style="stroke:#181818;stroke-width:1.0;" width="130" x="288" y="247"/><text fill="#000000" font-family="sans-serif" font-size="14" font-style="italic" lengthAdjust="spacing" textLength="65" x="320.5" y="261.9951">«device»</text><text fill="#000000" font-family="sans-serif" font-size="14" font-weight="bold" lengthAdjust="spacing" textLength="114" x="296" y="278.292">Smartphone 2</text></g><!--cluster ant--><g id="cluster_ant"><rect fill="#EB937F" height="103" rx="2.5" ry="2.5" style="stroke:#181818;stroke-width:1.0;" width="116" x="569" y="34"/><text fill="#000000" font-family="sans-serif" font-size="14" font-style="italic" lengthAdjust="spacing" textLength="65" x="594.5" y="48.9951">«device»</text><text fill="#000000" font-family="sans-serif" font-size="14" font-weight="bold" lengthAdjust="spacing" textLength="68" x="593" y="65.292">Antenna</text></g><!--entity rmq--><g id="elem_rmq"><path d="M235,181 L317,181 C322,181 322,194.1484 322,194.1484 C322,194.1484 322,207.2969 317,207.2969 L235,207.2969 C230,207.2969 230,194.1484 230,194.1484 C230,194.1484 230,181 235,181 " fill="#F1F1F1" style="stroke:#181818;stroke-width:0.5;"/><path d="M317,181 C312,181 312,194.1484 312,194.1484 C312,207.2969 317,207.2969 317,207.2969 " fill="none" style="stroke:#181818;stroke-width:0.5;"/><text fill="#000000" font-family="sans-serif" font-size="14" lengthAdjust="spacing" textLength="72" x="235" y="198.9951">RabbitMQ</text></g><!--entity bh_a--><g id="elem_bh_a"><rect fill="#F1F1F1" height="36.2969" rx="2.5" ry="2.5" style="stroke:#181818;stroke-width:0.5;" width="29" x="411.5" y="85"/><text fill="#000000" font-family="sans-serif" font-size="14" lengthAdjust="spacing" textLength="9" x="421.5" y="107.9951">β</text></g><!--entity comm_a--><g id="elem_comm_a"><rect fill="#F1F1F1" height="36.2969" rx="2.5" ry="2.5" style="stroke:#181818;stroke-width:0.5;" width="29" x="347.5" y="85"/><text fill="#000000" font-family="sans-serif" font-size="14" lengthAdjust="spacing" textLength="9" x="357.5" y="107.9951">χ</text></g><!--entity act_a--><g id="elem_act_a"><rect fill="#F1F1F1" height="36.2969" rx="2.5" ry="2.5" style="stroke:#181818;stroke-width:0.5;" width="29" x="475.5" y="85"/><text fill="#000000" font-family="sans-serif" font-size="14" lengthAdjust="spacing" textLength="9" x="485.5" y="107.9951">α</text></g><!--entity bh_1--><g id="elem_bh_1"><rect fill="#F1F1F1" height="36.2969" rx="2.5" ry="2.5" style="stroke:#181818;stroke-width:0.5;" width="29" x="261.5" y="85"/><text fill="#000000" font-family="sans-serif" font-size="14" lengthAdjust="spacing" textLength="9" x="271.5" y="107.9951">β</text></g><!--entity comm_1--><g id="elem_comm_1"><rect fill="#F1F1F1" height="36.2969" rx="2.5" ry="2.5" style="stroke:#181818;stroke-width:0.5;" width="29" x="197.5" y="85"/><text fill="#000000" font-family="sans-serif" font-size="14" lengthAdjust="spacing" textLength="9" x="207.5" y="107.9951">χ</text></g><!--entity bh_2--><g id="elem_bh_2"><rect fill="#F1F1F1" height="36.2969" rx="2.5" ry="2.5" style="stroke:#181818;stroke-width:0.5;" width="29" x="111.5" y="85"/><text fill="#000000" font-family="sans-serif" font-size="14" lengthAdjust="spacing" textLength="9" x="121.5" y="107.9951">β</text></g><!--entity comm_2--><g id="elem_comm_2"><rect fill="#F1F1F1" height="36.2969" rx="2.5" ry="2.5" style="stroke:#181818;stroke-width:0.5;" width="29" x="47.5" y="85"/><text fill="#000000" font-family="sans-serif" font-size="14" lengthAdjust="spacing" textLength="9" x="57.5" y="107.9951">χ</text></g><!--entity sens_1--><g id="elem_sens_1"><rect fill="#F1F1F1" height="36.2969" rx="2.5" ry="2.5" style="stroke:#181818;stroke-width:0.5;" width="29" x="218.5" y="298"/><text fill="#000000" font-family="sans-serif" font-size="14" lengthAdjust="spacing" textLength="9" x="228.5" y="320.9951">σ</text></g><!--entity act_1--><g id="elem_act_1"><rect fill="#F1F1F1" height="36.2969" rx="2.5" ry="2.5" style="stroke:#181818;stroke-width:0.5;" width="29" x="154.5" y="298"/><text fill="#000000" font-family="sans-serif" font-size="14" lengthAdjust="spacing" textLength="9" x="164.5" y="320.9951">α</text></g><!--entity sens_2--><g id="elem_sens_2"><rect fill="#F1F1F1" height="36.2969" rx="2.5" ry="2.5" style="stroke:#181818;stroke-width:0.5;" width="29" x="368.5" y="298"/><text fill="#000000" font-family="sans-serif" font-size="14" lengthAdjust="spacing" textLength="9" x="378.5" y="320.9951">σ</text></g><!--entity act_2--><g id="elem_act_2"><rect fill="#F1F1F1" height="36.2969" rx="2.5" ry="2.5" style="stroke:#181818;stroke-width:0.5;" width="29" x="304.5" y="298"/><text fill="#000000" font-family="sans-serif" font-size="14" lengthAdjust="spacing" textLength="9" x="314.5" y="320.9951">α</text></g><!--entity act--><g id="elem_act"><rect fill="#F1F1F1" height="36.2969" rx="2.5" ry="2.5" style="stroke:#181818;stroke-width:0.5;" width="83" x="585.5" y="85"/><text fill="#000000" font-family="sans-serif" font-size="14" lengthAdjust="spacing" textLength="63" x="595.5" y="107.9951">Actuator</text></g><!--link bh_1 to rmq--><g id="link_bh_1_rmq"><path d="M276,126.301 C276,141.518 276,161.391 276,175.475 " fill="none" id="bh_1-rmq" style="stroke:#181818;stroke-width:1.0;"/><polygon fill="#181818" points="276,121.16,272,130.16,276,126.16,280,130.16,276,121.16" style="stroke:#181818;stroke-width:1.0;"/><polygon fill="#181818" points="276,180.753,280,171.753,276,175.753,272,171.753,276,180.753" style="stroke:#181818;stroke-width:1.0;"/></g><!--link comm_1 to rmq--><g id="link_comm_1_rmq"><path d="M227.399,125.415 C238.687,141.111 253.785,162.107 264.141,176.509 " fill="none" id="comm_1-rmq" style="stroke:#181818;stroke-width:1.0;"/><polygon fill="#181818" points="224.34,121.16,226.3454,130.8025,227.2585,125.2199,232.8411,126.133,224.34,121.16" style="stroke:#181818;stroke-width:1.0;"/><polygon fill="#181818" points="267.193,180.753,265.1854,171.1109,264.2736,176.6938,258.6907,175.782,267.193,180.753" style="stroke:#181818;stroke-width:1.0;"/></g><!--link bh_2 to rmq--><g id="link_bh_2_rmq"><path d="M144.875,119.341 C155.233,127.43 168.484,137.253 181,145 C201.424,157.641 225.6,169.82 244.451,178.747 " fill="none" id="bh_2-rmq" style="stroke:#181818;stroke-width:1.0;"/><polygon fill="#181818" points="140.911,116.221,145.5082,124.9311,144.8396,119.3139,150.4568,118.6453,140.911,116.221" style="stroke:#181818;stroke-width:1.0;"/><polygon fill="#181818" points="249.124,180.945,242.6812,173.4958,244.5992,178.8176,239.2774,180.7355,249.124,180.945" style="stroke:#181818;stroke-width:1.0;"/></g><!--link comm_2 to rmq--><g id="link_comm_2_rmq"><path d="M74.8657,125.715 C80.0118,132.778 86.509,140.06 94,145 C133.293,170.91 185.984,182.859 224.558,188.355 " fill="none" id="comm_2-rmq" style="stroke:#181818;stroke-width:1.0;"/><polygon fill="#181818" points="71.8392,121.369,73.6996,131.0406,74.6964,125.4722,80.2647,126.469,71.8392,121.369" style="stroke:#181818;stroke-width:1.0;"/><polygon fill="#181818" points="229.666,189.057,221.2937,183.87,224.7125,188.3769,220.2056,191.7957,229.666,189.057" style="stroke:#181818;stroke-width:1.0;"/></g><!--reverse link act_a to rmq--><g id="link_act_a_rmq"><path d="M477.134,125.715 C471.988,132.778 465.491,140.06 458,145 C416.943,172.074 361.258,183.904 322.334,189.057 " fill="none" id="act_a-backto-rmq" style="stroke:#181818;stroke-width:1.0;"/><polygon fill="#181818" points="480.161,121.369,471.7361,126.4701,477.3043,125.4726,478.3019,131.0408,480.161,121.369" style="stroke:#181818;stroke-width:1.0;"/></g><!--link bh_a to rmq--><g id="link_bh_a_rmq"><path d="M412.501,125.538 C407.367,132.447 401.039,139.68 394,145 C373.742,160.311 347.919,171.543 325.599,179.276 " fill="none" id="bh_a-rmq" style="stroke:#181818;stroke-width:1.0;"/><polygon fill="#181818" points="415.539,121.297,407.0458,126.2835,412.627,125.3615,413.549,130.9427,415.539,121.297" style="stroke:#181818;stroke-width:1.0;"/><polygon fill="#181818" points="320.598,180.97,330.4056,181.8708,325.3336,179.3657,327.8388,174.2938,320.598,180.97" style="stroke:#181818;stroke-width:1.0;"/></g><!--link comm_a to rmq--><g id="link_comm_a_rmq"><path d="M343.704,122.934 C328.07,139.114 305.841,162.118 291.177,177.293 " fill="none" id="comm_a-rmq" style="stroke:#181818;stroke-width:1.0;"/><polygon fill="#181818" points="347.411,119.098,338.2807,122.7909,343.9367,122.6937,344.0338,128.3497,347.411,119.098" style="stroke:#181818;stroke-width:1.0;"/><polygon fill="#181818" points="287.621,180.974,296.7513,177.2811,291.0953,177.3783,290.9982,171.7223,287.621,180.974" style="stroke:#181818;stroke-width:1.0;"/></g><!--reverse link rmq to sens_1--><g id="link_rmq_sens_1"><path d="M269.814,212.262 C261.631,235.099 247.293,275.1125 239.135,297.8787 " fill="none" id="rmq-backto-sens_1" style="stroke:#181818;stroke-width:1.0;"/><polygon fill="#181818" points="271.56,207.39,264.7598,214.5145,269.8742,212.0973,272.2914,217.2117,271.56,207.39" style="stroke:#181818;stroke-width:1.0;"/></g><!--link rmq to act_1--><g id="link_rmq_act_1"><path d="M245.84,207.158 C230.738,214.504 213.136,225.146 201,239 C187.407,254.517 178.978,276.6445 174.206,293.0244 " fill="none" id="rmq-to-act_1" style="stroke:#181818;stroke-width:1.0;"/><polygon fill="#181818" points="172.841,297.9097,179.1158,290.3185,174.1868,293.0942,171.411,288.1652,172.841,297.9097" style="stroke:#181818;stroke-width:1.0;"/></g><!--reverse link rmq to sens_2--><g id="link_rmq_sens_2"><path d="M310.83,209.498 C324.781,216.699 340.097,226.553 351,239 C365.999,256.123 374.711,281.2933 379.159,297.9097 " fill="none" id="rmq-backto-sens_2" style="stroke:#181818;stroke-width:1.0;"/><polygon fill="#181818" points="306.16,207.158,312.4142,214.7662,310.6301,209.3981,315.9983,207.614,306.16,207.158" style="stroke:#181818;stroke-width:1.0;"/></g><!--link rmq to act_2--><g id="link_rmq_act_2"><path d="M280.44,207.39 C287.682,227.6 302.131,267.9247 311.14,293.0638 " fill="none" id="rmq-to-act_2" style="stroke:#181818;stroke-width:1.0;"/><polygon fill="#181818" points="312.865,297.8787,313.5946,288.0569,311.1784,293.1718,306.0635,290.7555,312.865,297.8787" style="stroke:#181818;stroke-width:1.0;"/></g><!--link act_a to act--><g id="link_act_a_act"><path d="M504.717,103 C529.944,103 555.171,103 580.397,103 " fill="none" id="act_a-to-act" style="stroke:#181818;stroke-width:1.0;stroke-dasharray:7.0,7.0;"/><polygon fill="#181818" points="585.443,103,576.443,99,580.443,103,576.443,107,585.443,103" style="stroke:#181818;stroke-width:1.0;"/></g><!--SRC=[VL91Ri8m4Bpx5Qjm1YdkeK92I43QMmzj7b0vmO88R0TdWrHLd7heUzg7q2_LTWBO17Bqp7XcTsnK9Q22J24g0Sj2ynmB9KcrAMJ9D1CmP_bcfLKjbmkrLHfGCraPYalqLBaIfP86I_5Zoy7QCBdQSaBE34Gfrtkk8_Wa01uyayYbP14CdkRZXyTdnmUAusy4h89i_SwkgRzlHnb4TCdZZoDPZeuxa30uZHrTnJ2O9Kayftt9SLzoVCkTDkxKk8-JHTAx5-rpfoVtNSrh3j4Rox82NrwTGekTfUo4C1aEfmw0TgmBqaXeHq83YMlA8gt4DjwvuY67y7q5qrYkpGdQPeMPOBBa-oBdqsdGih_gLoFcid95tdx0s8JTpcfx5ZJCkdH-9ulUpQ9Xrlc3Mje0VeptPVqRETOCbJuvsg9CNwxPTazxj3KskuKi3LXAIFCk8proo3y0]--></g></svg>