<?xml version="1.0" encoding="UTF-8" standalone="no"?><svg xmlns="http://www.w3.org/2000/svg" xmlns:xlink="http://www.w3.org/1999/xlink" contentStyleType="text/css" height="292px" preserveAspectRatio="none" style="width:246px;height:292px;" version="1.1" viewBox="0 0 246 292" width="246px" zoomAndPan="magnify"><defs/><g><!--cluster Device--><g id="cluster_Device"><rect fill="none" height="279" rx="2.5" ry="2.5" style="stroke:#181818;stroke-width:1.0;" width="233" x="7" y="7"/><text fill="#000000" font-family="sans-serif" font-size="14" font-weight="bold" lengthAdjust="spacing" textLength="52" x="97.5" y="21.9951">Device</text></g><!--entity bh--><g id="elem_bh"><rect fill="#F1F1F1" height="36.2969" rx="2.5" ry="2.5" style="stroke:#181818;stroke-width:0.5;" width="91" x="77.5" y="138"/><text fill="#000000" font-family="sans-serif" font-size="14" lengthAdjust="spacing" textLength="71" x="87.5" y="160.9951">Behaviour</text></g><!--entity sens--><g id="elem_sens"><rect fill="#F1F1F1" height="36.2969" rx="2.5" ry="2.5" style="stroke:#181818;stroke-width:0.5;" width="76" x="23" y="234"/><text fill="#000000" font-family="sans-serif" font-size="14" lengthAdjust="spacing" textLength="56" x="33" y="256.9951">Sensors</text></g><!--entity act--><g id="elem_act"><rect fill="#F1F1F1" height="36.2969" rx="2.5" ry="2.5" style="stroke:#181818;stroke-width:0.5;" width="90" x="134" y="234"/><text fill="#000000" font-family="sans-serif" font-size="14" lengthAdjust="spacing" textLength="70" x="144" y="256.9951">Actuators</text></g><!--entity state--><g id="elem_state"><rect fill="#F1F1F1" height="36.2969" rx="2.5" ry="2.5" style="stroke:#181818;stroke-width:0.5;" width="60" x="93" y="42"/><text fill="#000000" font-family="sans-serif" font-size="14" lengthAdjust="spacing" textLength="40" x="103" y="64.9951">State</text></g><!--link state to bh--><g id="link_state_bh"><path d="M123,83.662 C123,98.516 123,117.848 123,132.641 " fill="none" id="state-bh" style="stroke:#181818;stroke-width:1.0;"/><polygon fill="#181818" points="123,78.241,119,87.241,123,83.241,127,87.241,123,78.241" style="stroke:#181818;stroke-width:1.0;"/><polygon fill="#181818" points="123,137.868,127,128.868,123,132.868,119,128.868,123,137.868" style="stroke:#181818;stroke-width:1.0;"/></g><!--link bh to act--><g id="link_bh_act"><path d="M133.271,174.241 C142.507,189.744 156.115,212.5856 166.085,229.3211 " fill="none" id="bh-to-act" style="stroke:#181818;stroke-width:1.0;"/><polygon fill="#181818" points="168.794,233.8683,167.6244,224.0891,166.2351,229.5727,160.7515,228.1834,168.794,233.8683" style="stroke:#181818;stroke-width:1.0;"/></g><!--reverse link bh to sens--><g id="link_bh_sens"><path d="M108.623,178.797 C97.566,195.561 82.5023,218.3998 72.2997,233.8683 " fill="none" id="bh-backto-sens" style="stroke:#181818;stroke-width:1.0;"/><polygon fill="#181818" points="111.628,174.241,103.3339,179.5521,108.8753,178.415,110.0124,183.9564,111.628,174.241" style="stroke:#181818;stroke-width:1.0;"/></g><!--SRC=[NSr13e9030NG_PoYOJytC2QYD-04PMY002tfT4YCyUwEe4JSjV_rft7eUKR52KeCGwkIkBdAA0gco34JiRcuNmMPPk6SLNOV2PI28RSZERSB53TQ-a05F1p0JrnIXqilIGl027Ltr8euYiRLOfwFUWcMqBwEmVxAXaPRzJsvh7K79v_y-PEiWM_olfLNRlpswla2]--></g></svg>