<?xml version="1.0" encoding="UTF-8" standalone="no"?><svg xmlns="http://www.w3.org/2000/svg" xmlns:xlink="http://www.w3.org/1999/xlink" contentStyleType="text/css" height="364px" preserveAspectRatio="none" style="width:528px;height:364px;" version="1.1" viewBox="0 0 528 364" width="528px" zoomAndPan="magnify"><defs/><g><!--cluster <<Server>>--><g id="cluster_&lt;&lt;Server&gt;&gt;"><rect fill="none" height="174" rx="2.5" ry="2.5" style="stroke:#181818;stroke-width:1.0;" width="455" x="29" y="7"/><text fill="#000000" font-family="sans-serif" font-size="14" font-weight="bold" lengthAdjust="spacing" textLength="69" x="222" y="21.9951">«Server»</text></g><!--entity act--><g id="elem_act"><rect fill="#F1F1F1" height="36.2969" rx="2.5" ry="2.5" style="stroke:#181818;stroke-width:0.5;" width="90" x="45" y="129"/><text fill="#000000" font-family="sans-serif" font-size="14" lengthAdjust="spacing" textLength="70" x="55" y="151.9951">Actuators</text></g><!--entity rmq--><g id="elem_rmq"><path d="M231,42 L313,42 C318,42 318,55.1484 318,55.1484 C318,55.1484 318,68.2969 313,68.2969 L231,68.2969 C226,68.2969 226,55.1484 226,55.1484 C226,55.1484 226,42 231,42 " fill="#F1F1F1" style="stroke:#181818;stroke-width:0.5;"/><path d="M313,42 C308,42 308,55.1484 308,55.1484 C308,68.2969 313,68.2969 313,68.2969 " fill="none" style="stroke:#181818;stroke-width:0.5;"/><text fill="#000000" font-family="sans-serif" font-size="14" lengthAdjust="spacing" textLength="72" x="231" y="59.9951">RabbitMQ</text></g><!--entity bhv--><g id="elem_bhv"><rect fill="#F1F1F1" height="36.2969" rx="2.5" ry="2.5" style="stroke:#181818;stroke-width:0.5;" width="91" x="170.5" y="129"/><text fill="#000000" font-family="sans-serif" font-size="14" lengthAdjust="spacing" textLength="71" x="180.5" y="151.9951">Behaviour</text></g><!--entity st--><g id="elem_st"><rect fill="#F1F1F1" height="36.2969" rx="2.5" ry="2.5" style="stroke:#181818;stroke-width:0.5;" width="60" x="297" y="129"/><text fill="#000000" font-family="sans-serif" font-size="14" lengthAdjust="spacing" textLength="40" x="307" y="151.9951">State</text></g><!--entity sens--><g id="elem_sens"><rect fill="#F1F1F1" height="36.2969" rx="2.5" ry="2.5" style="stroke:#181818;stroke-width:0.5;" width="76" x="392" y="129"/><text fill="#000000" font-family="sans-serif" font-size="14" lengthAdjust="spacing" textLength="56" x="402" y="151.9951">Sensors</text></g><!--entity msd--><g id="elem_msd"><rect fill="#F1F1F1" height="52.5938" rx="2.5" ry="2.5" style="stroke:#181818;stroke-width:0.5;" width="184" x="338" y="306"/><text fill="#000000" font-family="sans-serif" font-size="14" font-style="italic" lengthAdjust="spacing" textLength="146" x="357" y="328.9951">«embedded device»</text><text fill="#000000" font-family="sans-serif" font-size="14" lengthAdjust="spacing" textLength="164" x="348" y="345.292">Moisture sensor device</text></g><!--entity ad--><g id="elem_ad"><rect fill="#F1F1F1" height="52.5938" rx="2.5" ry="2.5" style="stroke:#181818;stroke-width:0.5;" width="166" x="7" y="306"/><text fill="#000000" font-family="sans-serif" font-size="14" font-style="italic" lengthAdjust="spacing" textLength="146" x="17" y="328.9951">«embedded device»</text><text fill="#000000" font-family="sans-serif" font-size="14" lengthAdjust="spacing" textLength="114" x="33" y="345.292">Actuator device</text></g><!--link rmq to act--><g id="link_rmq_act"><path d="M242.841,70.419 C211.96,85.69 163.045,109.879 128.896,126.766 " fill="none" id="rmq-act" style="stroke:#181818;stroke-width:1.0;"/><polygon fill="#181818" points="247.455,68.138,237.6144,68.5412,242.9729,70.354,241.1601,75.7126,247.455,68.138" style="stroke:#181818;stroke-width:1.0;"/><polygon fill="#181818" points="124.388,128.995,134.2285,128.5893,128.8695,126.7778,130.681,121.4188,124.388,128.995" style="stroke:#181818;stroke-width:1.0;"/></g><!--link rmq to bhv--><g id="link_rmq_bhv"><path d="M261.786,72.415 C252.695,87.026 239.335,108.497 229.39,124.48 " fill="none" id="rmq-bhv" style="stroke:#181818;stroke-width:1.0;"/><polygon fill="#181818" points="264.448,68.138,256.2974,73.6668,261.8067,72.3834,263.0901,77.8928,264.448,68.138" style="stroke:#181818;stroke-width:1.0;"/><polygon fill="#181818" points="226.683,128.832,234.8336,123.3032,229.3243,124.5866,228.0409,119.0772,226.683,128.832" style="stroke:#181818;stroke-width:1.0;"/></g><!--link rmq to st--><g id="link_rmq_st"><path d="M282.031,72.415 C290.96,87.026 304.082,108.497 313.849,124.48 " fill="none" id="rmq-st" style="stroke:#181818;stroke-width:1.0;"/><polygon fill="#181818" points="279.418,68.138,280.6985,77.9033,282.0255,72.4043,287.5245,73.7313,279.418,68.138" style="stroke:#181818;stroke-width:1.0;"/><polygon fill="#181818" points="316.508,128.832,315.2275,119.0667,313.9005,124.5657,308.4015,123.2387,316.508,128.832" style="stroke:#181818;stroke-width:1.0;"/></g><!--link rmq to sens--><g id="link_rmq_sens"><path d="M297.659,70.616 C324.272,85.775 366.041,109.568 395.524,126.362 " fill="none" id="rmq-sens" style="stroke:#181818;stroke-width:1.0;"/><polygon fill="#181818" points="293.309,68.138,299.1499,76.068,297.6537,70.6125,303.1091,69.1164,293.309,68.138" style="stroke:#181818;stroke-width:1.0;"/><polygon fill="#181818" points="400.146,128.995,394.304,121.0659,395.8009,126.5211,390.3457,128.018,400.146,128.995" style="stroke:#181818;stroke-width:1.0;"/></g><!--link act to ad--><g id="link_act_ad"><path d="M90,165.263 C90,196.258 90,261.7252 90,300.6148 " fill="none" id="act-to-ad" style="stroke:#181818;stroke-width:1.0;stroke-dasharray:7.0,7.0;"/><polygon fill="#181818" points="90,305.6868,94,296.6868,90,300.6868,86,296.6868,90,305.6868" style="stroke:#181818;stroke-width:1.0;"/><text fill="#000000" font-family="sans-serif" font-size="13" lengthAdjust="spacing" textLength="25" x="91" y="241.0669">TCP</text></g><!--reverse link sens to msd--><g id="link_sens_msd"><path d="M430,170.479 C430,204.679 430,269.6038 430,305.6868 " fill="none" id="sens-backto-msd" style="stroke:#181818;stroke-width:1.0;stroke-dasharray:7.0,7.0;"/><polygon fill="#181818" points="430,165.263,426,174.263,430,170.263,434,174.263,430,165.263" style="stroke:#181818;stroke-width:1.0;"/><text fill="#000000" font-family="sans-serif" font-size="13" lengthAdjust="spacing" textLength="25" x="431" y="241.0669">TCP</text></g><!--SRC=[RP3HQiCm34NV_HKYxyq736DO-rpObls0OeisDB5RIGwCiN-VwtQX6Nspxj7LbIMd8PwHSO8j-jE1KuvXbyR4e8nH2gAeHfOkdwPpYaNhz6iaOFAAyJ2ICGk1njgEU2Pshe5l0_20NhrcrCJI00gWru8lcJ91yu5zF-Z-lHAUBclZbeuu3obpnVrnNkDEKQaYqN-4elpbINaNMeQ3tMpSFNyfRrENKbQmUdzM_zodGJGpLLPE5cWU_6sBIG9OIrDF8L2u4-VCarCysl2vovH5eMrRTsruWS_Tcxb6WYrQZQhQBm00]--></g></svg>