<?xml version="1.0" encoding="UTF-8"?><svg xmlns="http://www.w3.org/2000/svg" xmlns:xlink="http://www.w3.org/1999/xlink" fill-opacity="1" color-rendering="auto" color-interpolation="auto" text-rendering="auto" stroke="black" stroke-linecap="square" width="698" stroke-miterlimit="10" shape-rendering="auto" stroke-opacity="1" fill="black" stroke-dasharray="none" font-weight="normal" stroke-width="1" height="608" font-family="'Dialog'" font-style="normal" stroke-linejoin="miter" font-size="12px" stroke-dashoffset="0" image-rendering="auto">
  <!--Generated by ySVG 2.6-->
  <defs id="genericDefs"/>
  <g>
    <defs id="defs1">
      <clipPath clipPathUnits="userSpaceOnUse" id="clipPath1">
        <path d="M0 0 L698 0 L698 608 L0 608 L0 0 Z"/>
      </clipPath>
      <clipPath clipPathUnits="userSpaceOnUse" id="clipPath2">
        <path d="M362 152 L1060 152 L1060 760 L362 760 L362 152 Z"/>
      </clipPath>
      <clipPath clipPathUnits="userSpaceOnUse" id="clipPath3">
        <path d="M-75.2199 -287.448 L570.2054 -21.6846 L338.7095 540.5197 L-306.7158 274.7563 L-75.2199 -287.448 Z"/>
      </clipPath>
      <clipPath clipPathUnits="userSpaceOnUse" id="clipPath4">
        <path d="M-299.6785 -216.8508 L345.7468 -482.6142 L577.2427 79.5901 L-68.1826 345.3535 L-299.6785 -216.8508 Z"/>
      </clipPath>
    </defs>
    <g fill="white" text-rendering="geometricPrecision" shape-rendering="geometricPrecision" transform="translate(-362,-152)" stroke="white">
      <rect x="362" width="698" height="608" y="152" clip-path="url(#clipPath2)" stroke="none"/>
    </g>
    <g fill="rgb(255,204,153)" text-rendering="geometricPrecision" shape-rendering="geometricPrecision" transform="matrix(1,0,0,1,-362,-152)" stroke="rgb(255,204,153)">
      <circle r="79" clip-path="url(#clipPath2)" cx="456" cy="456" stroke="none"/>
    </g>
    <g text-rendering="geometricPrecision" stroke-miterlimit="1.45" shape-rendering="geometricPrecision" transform="matrix(1,0,0,1,-362,-152)" stroke-linecap="butt">
      <circle fill="none" r="79" clip-path="url(#clipPath2)" cx="456" cy="456"/>
      <text x="411.6924" font-size="24px" y="463.3846" clip-path="url(#clipPath2)" font-family="'Fira Code SemiBold'" stroke="none" xml:space="preserve">images</text>
    </g>
    <g fill="rgb(255,153,0)" text-rendering="geometricPrecision" shape-rendering="geometricPrecision" transform="matrix(1,0,0,1,-362,-152)" stroke="rgb(255,153,0)">
      <circle r="79" clip-path="url(#clipPath2)" cx="966" cy="456" stroke="none"/>
    </g>
    <g text-rendering="geometricPrecision" stroke-miterlimit="1.45" shape-rendering="geometricPrecision" transform="matrix(1,0,0,1,-362,-152)" stroke-linecap="butt">
      <circle fill="none" r="79" clip-path="url(#clipPath2)" cx="966" cy="456"/>
      <text x="899.5387" font-size="24px" y="463.3846" clip-path="url(#clipPath2)" font-family="'Fira Code SemiBold'" stroke="none" xml:space="preserve">archiver2</text>
    </g>
    <g fill="rgb(255,153,0)" text-rendering="geometricPrecision" shape-rendering="geometricPrecision" transform="matrix(1,0,0,1,-362,-152)" stroke="rgb(255,153,0)">
      <circle r="79" clip-path="url(#clipPath2)" cx="966" cy="246" stroke="none"/>
    </g>
    <g text-rendering="geometricPrecision" stroke-miterlimit="1.45" shape-rendering="geometricPrecision" transform="matrix(1,0,0,1,-362,-152)" stroke-linecap="butt">
      <circle fill="none" r="79" clip-path="url(#clipPath2)" cx="966" cy="246"/>
      <text x="899.5387" font-size="24px" y="253.3846" clip-path="url(#clipPath2)" font-family="'Fira Code SemiBold'" stroke="none" xml:space="preserve">archiver1</text>
    </g>
    <g fill="rgb(0,204,255)" text-rendering="geometricPrecision" shape-rendering="geometricPrecision" transform="matrix(1,0,0,1,-362,-152)" stroke="rgb(0,204,255)">
      <circle r="79" clip-path="url(#clipPath2)" cx="966" cy="666" stroke="none"/>
    </g>
    <g text-rendering="geometricPrecision" stroke-miterlimit="1.45" shape-rendering="geometricPrecision" transform="matrix(1,0,0,1,-362,-152)" stroke-linecap="butt">
      <circle fill="none" r="79" clip-path="url(#clipPath2)" cx="966" cy="666"/>
      <text x="914.3079" font-size="24px" y="673.3846" clip-path="url(#clipPath2)" font-family="'Fira Code SemiBold'" stroke="none" xml:space="preserve">resizer</text>
      <path fill="none" d="M535 456 L876 456" stroke-width="4" clip-path="url(#clipPath2)" stroke="rgb(255,153,0)"/>
      <path fill="rgb(255,153,0)" d="M887 456 L870.5 449.125 L874.625 456 L870.5 462.875 Z" stroke-width="4" clip-path="url(#clipPath2)" stroke="none"/>
      <text x="554.4607" font-size="16px" y="443.9231" clip-path="url(#clipPath2)" font-family="'Fira Code Medium'" stroke="none" xml:space="preserve">:routing_key =&gt; "images.archive"</text>
      <path fill="none" d="M529.0496 425.9208 L882.779 280.2675" stroke-width="4" clip-path="url(#clipPath2)" stroke="rgb(255,153,0)"/>
      <path fill="rgb(255,153,0)" d="M892.9504 276.0792 L875.0756 276.0045 L881.5076 280.791 L880.3109 288.7188 Z" stroke-width="4" clip-path="url(#clipPath2)" stroke="none"/>
    </g>
    <g font-size="16px" stroke-linecap="butt" transform="matrix(0.9247,-0.3807,0.3807,0.9247,179,237.1569)" text-rendering="geometricPrecision" font-family="'Fira Code Medium'" shape-rendering="geometricPrecision" stroke-miterlimit="1.45">
      <text x="2" xml:space="preserve" y="16.7693" clip-path="url(#clipPath3)" stroke="none">:routing_key =&gt; "images.archive"</text>
    </g>
    <g stroke-linecap="butt" transform="matrix(1,0,0,1,-362,-152)" fill="rgb(0,204,255)" text-rendering="geometricPrecision" shape-rendering="geometricPrecision" stroke="rgb(0,204,255)" stroke-width="4" stroke-miterlimit="1.45">
      <path fill="none" d="M529.0496 486.0792 L882.779 631.7325" clip-path="url(#clipPath2)"/>
      <path d="M892.9504 635.9208 L880.3109 623.2812 L881.5076 631.209 L875.0756 635.9956 Z" clip-path="url(#clipPath2)" stroke="none"/>
    </g>
    <g font-size="16px" stroke-linecap="butt" transform="matrix(0.9247,0.3807,-0.3807,0.9247,194.5402,314.6197)" text-rendering="geometricPrecision" font-family="'Fira Code Medium'" shape-rendering="geometricPrecision" stroke-miterlimit="1.45">
      <text x="2" xml:space="preserve" y="16.7693" clip-path="url(#clipPath4)" stroke="none">:routing_key =&gt; "images.resize"</text>
    </g>
  </g>
</svg>
