<?xml version="1.0" encoding="UTF-8"?><svg xmlns="http://www.w3.org/2000/svg" xmlns:xlink="http://www.w3.org/1999/xlink" fill-opacity="1" color-rendering="auto" color-interpolation="auto" text-rendering="auto" stroke="black" stroke-linecap="square" width="985" stroke-miterlimit="10" shape-rendering="auto" stroke-opacity="1" fill="black" stroke-dasharray="none" font-weight="normal" stroke-width="1" height="515" font-family="'Dialog'" font-style="normal" stroke-linejoin="miter" font-size="12px" stroke-dashoffset="0" image-rendering="auto">
  <!--Generated by ySVG 2.6-->
  <defs id="genericDefs"/>
  <g>
    <defs id="defs1">
      <clipPath clipPathUnits="userSpaceOnUse" id="clipPath1">
        <path d="M0 0 L985 0 L985 515 L0 515 L0 0 Z"/>
      </clipPath>
      <clipPath clipPathUnits="userSpaceOnUse" id="clipPath2">
        <path d="M297 44 L1282 44 L1282 559 L297 559 L297 44 Z"/>
      </clipPath>
      <clipPath clipPathUnits="userSpaceOnUse" id="clipPath3">
        <path d="M0 0 L0 28 L426 28 L426 0 Z"/>
      </clipPath>
      <clipPath clipPathUnits="userSpaceOnUse" id="clipPath4">
        <path d="M0 0 L0 28 L284 28 L284 0 Z"/>
      </clipPath>
      <clipPath clipPathUnits="userSpaceOnUse" id="clipPath5">
        <path d="M0 0 L0 31 L277 31 L277 0 Z"/>
      </clipPath>
    </defs>
    <g fill="white" text-rendering="geometricPrecision" shape-rendering="geometricPrecision" transform="translate(-297,-44)" stroke="white">
      <rect x="297" width="985" height="515" y="44" clip-path="url(#clipPath2)" stroke="none"/>
    </g>
    <g fill="rgb(255,204,153)" text-rendering="geometricPrecision" shape-rendering="geometricPrecision" transform="matrix(1,0,0,1,-297,-44)" stroke="rgb(255,204,153)">
      <rect x="312.875" width="454.25" height="100" y="334" clip-path="url(#clipPath2)" stroke="none"/>
    </g>
    <g text-rendering="geometricPrecision" stroke-miterlimit="1.45" shape-rendering="geometricPrecision" transform="matrix(1,0,0,1,-297,-44)" stroke-linecap="butt">
      <rect fill="none" x="312.875" width="454.25" height="100" y="334" clip-path="url(#clipPath2)"/>
    </g>
    <g font-size="22px" stroke-linecap="butt" transform="matrix(1,0,0,1,-297,-44) translate(327,370)" text-rendering="geometricPrecision" font-family="'Fira Code Medium'" shape-rendering="geometricPrecision" stroke-miterlimit="1.45">
      <text x="0" xml:space="preserve" y="21" clip-path="url(#clipPath3)" stroke="none">actual </text>
      <text x="98" xml:space="preserve" y="21" clip-path="url(#clipPath3)" font-weight="bold" stroke="none">fun / class</text>
      <text x="258" xml:space="preserve" y="21" clip-path="url(#clipPath3)" stroke="none"> declaration</text>
    </g>
    <g font-size="24px" stroke-linecap="butt" transform="matrix(1,0,0,1,-297,-44)" text-rendering="geometricPrecision" font-family="'Fira Code Medium'" shape-rendering="geometricPrecision" stroke-miterlimit="1.45">
      <text x="318.875" xml:space="preserve" y="320.6154" clip-path="url(#clipPath2)" stroke="none">iOS</text>
    </g>
    <g fill="rgb(153,255,204)" text-rendering="geometricPrecision" shape-rendering="geometricPrecision" transform="matrix(1,0,0,1,-297,-44)" stroke="rgb(153,255,204)">
      <rect x="811.875" width="454.25" height="100" y="334" clip-path="url(#clipPath2)" stroke="none"/>
    </g>
    <g text-rendering="geometricPrecision" stroke-miterlimit="1.45" shape-rendering="geometricPrecision" transform="matrix(1,0,0,1,-297,-44)" stroke-linecap="butt">
      <rect fill="none" x="811.875" width="454.25" height="100" y="334" clip-path="url(#clipPath2)"/>
    </g>
    <g font-size="22px" stroke-linecap="butt" transform="matrix(1,0,0,1,-297,-44) translate(826,370)" text-rendering="geometricPrecision" font-family="'Fira Code Medium'" shape-rendering="geometricPrecision" stroke-miterlimit="1.45">
      <text x="0" xml:space="preserve" y="21" clip-path="url(#clipPath3)" stroke="none">actual </text>
      <text x="98" xml:space="preserve" y="21" clip-path="url(#clipPath3)" font-weight="bold" stroke="none">fun / class</text>
      <text x="258" xml:space="preserve" y="21" clip-path="url(#clipPath3)" stroke="none"> declaration</text>
    </g>
    <g font-size="24px" stroke-linecap="butt" transform="matrix(1,0,0,1,-297,-44)" text-rendering="geometricPrecision" font-family="'Fira Code Medium'" shape-rendering="geometricPrecision" stroke-miterlimit="1.45">
      <text x="817.875" xml:space="preserve" y="320.6154" clip-path="url(#clipPath2)" stroke="none">Android</text>
    </g>
    <g fill="rgb(255,204,153)" text-rendering="geometricPrecision" shape-rendering="geometricPrecision" transform="matrix(1,0,0,1,-297,-44)" stroke="rgb(255,204,153)">
      <rect x="312.875" width="454.25" height="100" y="444" clip-path="url(#clipPath2)" stroke="none"/>
    </g>
    <g text-rendering="geometricPrecision" stroke-miterlimit="1.45" shape-rendering="geometricPrecision" transform="matrix(1,0,0,1,-297,-44)" stroke-linecap="butt">
      <rect fill="none" x="312.875" width="454.25" height="100" y="444" clip-path="url(#clipPath2)"/>
    </g>
    <g font-size="22px" stroke-linecap="butt" transform="matrix(1,0,0,1,-297,-44) translate(398,480)" text-rendering="geometricPrecision" font-family="'Fira Code Medium'" shape-rendering="geometricPrecision" font-weight="bold" stroke-miterlimit="1.45">
      <text x="0" xml:space="preserve" y="21" clip-path="url(#clipPath4)" stroke="none">import</text>
      <text x="88" xml:space="preserve" y="21" clip-path="url(#clipPath4)" font-weight="normal" stroke="none"> iOS libraries</text>
    </g>
    <g fill="rgb(153,255,204)" text-rendering="geometricPrecision" shape-rendering="geometricPrecision" transform="matrix(1,0,0,1,-297,-44)" stroke="rgb(153,255,204)">
      <rect x="811.875" width="454.25" height="100" y="444" clip-path="url(#clipPath2)" stroke="none"/>
    </g>
    <g text-rendering="geometricPrecision" stroke-miterlimit="1.45" shape-rendering="geometricPrecision" transform="matrix(1,0,0,1,-297,-44)" stroke-linecap="butt">
      <rect fill="none" x="811.875" width="454.25" height="100" y="444" clip-path="url(#clipPath2)"/>
    </g>
    <g font-size="22px" stroke-linecap="butt" transform="matrix(1,0,0,1,-297,-44) translate(897,480)" text-rendering="geometricPrecision" font-family="'Fira Code Medium'" shape-rendering="geometricPrecision" font-weight="bold" stroke-miterlimit="1.45">
      <text x="0" xml:space="preserve" y="21" clip-path="url(#clipPath4)" stroke="none">import</text>
      <text x="88" xml:space="preserve" y="21" clip-path="url(#clipPath4)" font-weight="normal" stroke="none"> JVM libraries</text>
    </g>
    <g fill="silver" text-rendering="geometricPrecision" shape-rendering="geometricPrecision" transform="matrix(1,0,0,1,-297,-44)" stroke="silver">
      <rect x="561.75" width="454.25" height="100" y="97.25" clip-path="url(#clipPath2)" stroke="none"/>
    </g>
    <g text-rendering="geometricPrecision" stroke-miterlimit="1.45" shape-rendering="geometricPrecision" transform="matrix(1,0,0,1,-297,-44)" stroke-linecap="butt">
      <rect fill="none" x="561.75" width="454.25" height="100" y="97.25" clip-path="url(#clipPath2)"/>
    </g>
    <g font-size="24px" stroke-linecap="butt" transform="matrix(1,0,0,1,-297,-44) translate(650,131)" text-rendering="geometricPrecision" font-family="'Fira Code Medium'" shape-rendering="geometricPrecision" stroke-miterlimit="1.45">
      <text x="0" xml:space="preserve" y="23" clip-path="url(#clipPath5)" stroke="none">expect </text>
      <text x="105" xml:space="preserve" y="23" clip-path="url(#clipPath5)" font-weight="bold" stroke="none">fun / class</text>
    </g>
    <g font-size="24px" stroke-linecap="butt" transform="matrix(1,0,0,1,-297,-44)" text-rendering="geometricPrecision" font-family="'Fira Code Medium'" shape-rendering="geometricPrecision" stroke-miterlimit="1.45">
      <text x="567.75" xml:space="preserve" y="83.8654" clip-path="url(#clipPath2)" stroke="none">Common</text>
    </g>
    <g stroke-linecap="butt" transform="matrix(1,0,0,1,-297,-44)" fill="gray" text-rendering="geometricPrecision" shape-rendering="geometricPrecision" stroke="gray" stroke-width="3" stroke-miterlimit="1.45">
      <path fill="none" d="M899.458 197.2379 L933.4785 213.2461 L957.7216 225.8569 L977.9343 237.606 L994.4832 248.8401 L1007.7344 259.9062 L1018.0544 271.1511 L1025.8098 282.9214 L1031.3668 295.564 L1035.0918 309.4258 L1037.2347 324.0584 L1037.2415 324.1582" clip-path="url(#clipPath2)"/>
      <path d="M1037.9727 334.1314 L1043.1091 318.7146 L1037.15 322.9115 L1030.6426 319.6285 Z" clip-path="url(#clipPath2)" stroke="none"/>
      <path fill="none" d="M683.2455 197.2431 L644.9941 216.0586 L620.8722 229.0795 L600.7605 241.1216 L584.2944 252.5316 L571.1094 263.6562 L560.8408 274.8425 L553.1243 286.437 L547.5951 298.7867 L543.8887 312.2383 L542.1045 324.0634 L542.0976 324.1631" clip-path="url(#clipPath2)"/>
      <path d="M541.1553 334.1187 L548.791 319.7743 L542.2154 322.9187 L536.3466 318.5965 Z" clip-path="url(#clipPath2)" stroke="none"/>
    </g>
  </g>
</svg>
