<?xml version="1.0" encoding="UTF-8"?><svg xmlns="http://www.w3.org/2000/svg" xmlns:xlink="http://www.w3.org/1999/xlink" fill-opacity="1" color-rendering="auto" color-interpolation="auto" text-rendering="auto" stroke="black" stroke-linecap="square" width="698" stroke-miterlimit="10" shape-rendering="auto" stroke-opacity="1" fill="black" stroke-dasharray="none" font-weight="normal" stroke-width="1" height="608" font-family="'Dialog'" font-style="normal" stroke-linejoin="miter" font-size="12px" stroke-dashoffset="0" image-rendering="auto">
  <!--Generated by ySVG 2.6-->
  <defs id="genericDefs"/>
  <g>
    <defs id="defs1">
      <clipPath clipPathUnits="userSpaceOnUse" id="clipPath1">
        <path d="M0 0 L698 0 L698 608 L0 608 L0 0 Z"/>
      </clipPath>
      <clipPath clipPathUnits="userSpaceOnUse" id="clipPath2">
        <path d="M387 177 L1085 177 L1085 785 L387 785 L387 177 Z"/>
      </clipPath>
      <clipPath clipPathUnits="userSpaceOnUse" id="clipPath3">
        <path d="M-222.6512 -287.448 L422.7741 -21.6846 L191.2782 540.5197 L-454.1471 274.7563 L-222.6512 -287.448 Z"/>
      </clipPath>
      <clipPath clipPathUnits="userSpaceOnUse" id="clipPath4">
        <path d="M-440.0594 -216.8508 L205.3659 -482.6142 L436.8618 79.5901 L-208.5635 345.3535 L-440.0594 -216.8508 Z"/>
      </clipPath>
    </defs>
    <g fill="white" text-rendering="geometricPrecision" shape-rendering="geometricPrecision" transform="translate(-387,-177)" stroke="white">
      <rect x="387" width="698" height="608" y="177" clip-path="url(#clipPath2)" stroke="none"/>
    </g>
    <g fill="rgb(255,204,0)" text-rendering="geometricPrecision" shape-rendering="geometricPrecision" transform="matrix(1,0,0,1,-387,-177)" stroke="rgb(255,204,0)">
      <circle r="79" clip-path="url(#clipPath2)" cx="481" cy="481" stroke="none"/>
    </g>
    <g text-rendering="geometricPrecision" stroke-miterlimit="1.45" shape-rendering="geometricPrecision" transform="matrix(1,0,0,1,-387,-177)" stroke-linecap="butt">
      <circle fill="none" r="79" clip-path="url(#clipPath2)" cx="481" cy="481"/>
      <text x="421.9233" font-size="24px" y="488.3846" clip-path="url(#clipPath2)" font-family="'Fira Code SemiBold'" stroke="none" xml:space="preserve">Exchange</text>
    </g>
    <g fill="rgb(51,255,51)" text-rendering="geometricPrecision" shape-rendering="geometricPrecision" transform="matrix(1,0,0,1,-387,-177)" stroke="rgb(51,255,51)">
      <circle r="79" clip-path="url(#clipPath2)" cx="991" cy="481" stroke="none"/>
    </g>
    <g text-rendering="geometricPrecision" stroke-miterlimit="1.45" shape-rendering="geometricPrecision" transform="matrix(1,0,0,1,-387,-177)" stroke-linecap="butt">
      <circle fill="none" r="79" clip-path="url(#clipPath2)" cx="991" cy="481"/>
      <text x="954.077" font-size="24px" y="488.3846" clip-path="url(#clipPath2)" font-family="'Fira Code SemiBold'" stroke="none" xml:space="preserve">Queue</text>
    </g>
    <g fill="rgb(51,255,51)" text-rendering="geometricPrecision" shape-rendering="geometricPrecision" transform="matrix(1,0,0,1,-387,-177)" stroke="rgb(51,255,51)">
      <circle r="79" clip-path="url(#clipPath2)" cx="991" cy="271" stroke="none"/>
    </g>
    <g text-rendering="geometricPrecision" stroke-miterlimit="1.45" shape-rendering="geometricPrecision" transform="matrix(1,0,0,1,-387,-177)" stroke-linecap="butt">
      <circle fill="none" r="79" clip-path="url(#clipPath2)" cx="991" cy="271"/>
      <text x="954.077" font-size="24px" y="278.3846" clip-path="url(#clipPath2)" font-family="'Fira Code SemiBold'" stroke="none" xml:space="preserve">Queue</text>
    </g>
    <g fill="rgb(51,255,51)" text-rendering="geometricPrecision" shape-rendering="geometricPrecision" transform="matrix(1,0,0,1,-387,-177)" stroke="rgb(51,255,51)">
      <circle r="79" clip-path="url(#clipPath2)" cx="991" cy="691" stroke="none"/>
    </g>
    <g text-rendering="geometricPrecision" stroke-miterlimit="1.45" shape-rendering="geometricPrecision" transform="matrix(1,0,0,1,-387,-177)" stroke-linecap="butt">
      <circle fill="none" r="79" clip-path="url(#clipPath2)" cx="991" cy="691"/>
      <text x="954.077" font-size="24px" y="698.3846" clip-path="url(#clipPath2)" font-family="'Fira Code SemiBold'" stroke="none" xml:space="preserve">Queue</text>
      <path fill="none" d="M560 481 L901 481" stroke-width="4" clip-path="url(#clipPath2)" stroke="rgb(0,204,255)"/>
      <path fill="rgb(0,204,255)" d="M912 481 L895.5 474.125 L899.625 481 L895.5 487.875 Z" stroke-width="4" clip-path="url(#clipPath2)" stroke="none"/>
      <text x="718.63" font-size="16px" y="468.9231" clip-path="url(#clipPath2)" font-family="'Fira Code Medium'" stroke="none" xml:space="preserve">Routes</text>
      <path fill="none" d="M554.0496 450.9208 L907.779 305.2675" stroke-width="4" clip-path="url(#clipPath2)" stroke="rgb(0,204,255)"/>
      <path fill="rgb(0,204,255)" d="M917.9504 301.0792 L900.0756 301.0045 L906.5076 305.791 L905.3109 313.7188 Z" stroke-width="4" clip-path="url(#clipPath2)" stroke="none"/>
    </g>
    <g font-size="16px" stroke-linecap="butt" transform="matrix(0.9247,-0.3807,0.3807,0.9247,315.3265,181.0224)" text-rendering="geometricPrecision" font-family="'Fira Code Medium'" shape-rendering="geometricPrecision" stroke-miterlimit="1.45">
      <text x="2" xml:space="preserve" y="16.7693" clip-path="url(#clipPath3)" stroke="none">Routes</text>
    </g>
    <g stroke-linecap="butt" transform="matrix(1,0,0,1,-387,-177)" fill="rgb(0,204,255)" text-rendering="geometricPrecision" shape-rendering="geometricPrecision" stroke="rgb(0,204,255)" stroke-width="4" stroke-miterlimit="1.45">
      <path fill="none" d="M554.0496 511.0792 L907.779 656.7325" clip-path="url(#clipPath2)"/>
      <path d="M917.9504 660.9208 L905.3109 648.2812 L906.5076 656.209 L900.0756 660.9956 Z" clip-path="url(#clipPath2)" stroke="none"/>
    </g>
    <g font-size="16px" stroke-linecap="butt" transform="matrix(0.9247,0.3807,-0.3807,0.9247,324.3474,368.0697)" text-rendering="geometricPrecision" font-family="'Fira Code Medium'" shape-rendering="geometricPrecision" stroke-miterlimit="1.45">
      <text x="2" xml:space="preserve" y="16.7693" clip-path="url(#clipPath4)" stroke="none">Routes</text>
    </g>
  </g>
</svg>
