<?xml version="1.0" encoding="UTF-8"?><svg xmlns="http://www.w3.org/2000/svg" xmlns:xlink="http://www.w3.org/1999/xlink" fill-opacity="1" color-rendering="auto" color-interpolation="auto" text-rendering="auto" stroke="black" stroke-linecap="square" width="1089" stroke-miterlimit="10" shape-rendering="auto" stroke-opacity="1" fill="black" stroke-dasharray="none" font-weight="normal" stroke-width="1" height="387" font-family="'Dialog'" font-style="normal" stroke-linejoin="miter" font-size="12px" stroke-dashoffset="0" image-rendering="auto">
  <!--Generated by ySVG 2.6-->
  <defs id="genericDefs"/>
  <g>
    <defs id="defs1">
      <clipPath clipPathUnits="userSpaceOnUse" id="clipPath1">
        <path d="M0 0 L1089 0 L1089 387 L0 387 L0 0 Z"/>
      </clipPath>
      <clipPath clipPathUnits="userSpaceOnUse" id="clipPath2">
        <path d="M106 144 L1195 144 L1195 531 L106 531 L106 144 Z"/>
      </clipPath>
    </defs>
    <g fill="white" text-rendering="geometricPrecision" shape-rendering="geometricPrecision" transform="translate(-106,-144)" stroke="white">
      <rect x="106" width="1089" height="387" y="144" clip-path="url(#clipPath2)" stroke="none"/>
    </g>
    <g transform="matrix(1,0,0,1,-106,-144)" fill-opacity="0.0784" fill="rgb(0,255,0)" text-rendering="geometricPrecision" shape-rendering="geometricPrecision" stroke="rgb(0,255,0)" stroke-opacity="0.0784">
      <rect x="269.3" width="274.4" height="274.4" y="202.3" clip-path="url(#clipPath2)" stroke="none"/>
    </g>
    <g text-rendering="geometricPrecision" stroke-miterlimit="1.45" stroke-dasharray="6,2" shape-rendering="geometricPrecision" transform="matrix(1,0,0,1,-106,-144)" stroke-linecap="butt">
      <rect fill="none" x="269.3" width="274.4" height="274.4" y="202.3" clip-path="url(#clipPath2)"/>
      <text x="249.1281" font-size="24px" y="505.6542" clip-path="url(#clipPath2)" font-family="'Fira Code'" stroke-dasharray="none" stroke="none" xml:space="preserve">sensors</text>
      <text x="457.3923" font-size="24px" y="506.5782" clip-path="url(#clipPath2)" font-family="'Hack'" stroke-dasharray="none" stroke="none" xml:space="preserve">actuators</text>
      <text x="440.1678" font-size="18px" y="345.7314" clip-path="url(#clipPath2)" font-family="'Hack'" stroke-dasharray="none" stroke="none" xml:space="preserve">behaviour</text>
      <text x="416.3912" font-size="24px" y="190.6398" clip-path="url(#clipPath2)" font-family="'Hack'" stroke-dasharray="none" stroke="none" xml:space="preserve">communication</text>
    </g>
    <g font-size="32px" stroke-linecap="butt" transform="matrix(1,0,0,1,-106,-144)" text-rendering="geometricPrecision" font-family="'Hack'" shape-rendering="geometricPrecision" font-weight="bold" stroke-miterlimit="1.45">
      <text x="123.1584" xml:space="preserve" y="331.9531" clip-path="url(#clipPath2)" stroke="none">logical</text>
      <text x="132.7912" xml:space="preserve" y="369.2031" clip-path="url(#clipPath2)" stroke="none">device</text>
      <text x="264.6972" font-size="24px" y="184.0903" clip-path="url(#clipPath2)" stroke="none" font-weight="normal" xml:space="preserve">state</text>
    </g>
    <g transform="matrix(1,0,0,1,-106,-144)" fill-opacity="0.1176" fill="rgb(0,0,255)" text-rendering="geometricPrecision" shape-rendering="geometricPrecision" stroke="rgb(0,0,255)" stroke-opacity="0.1176">
      <rect x="278.5" width="50" height="50" y="211.5" clip-path="url(#clipPath2)" stroke="none"/>
    </g>
    <g stroke-linecap="round" transform="matrix(1,0,0,1,-106,-144)" stroke-dashoffset="2" text-rendering="geometricPrecision" shape-rendering="geometricPrecision" stroke-dasharray="0,8" stroke-width="2" stroke-miterlimit="1.45">
      <rect fill="none" x="278.5" width="50" height="50" y="211.5" clip-path="url(#clipPath2)"/>
    </g>
    <g font-size="36px" stroke-linecap="butt" transform="matrix(1,0,0,1,-106,-144)" text-rendering="geometricPrecision" font-family="'Hack'" shape-rendering="geometricPrecision" stroke-miterlimit="1.45">
      <text x="292.6631" xml:space="preserve" y="248.9629" clip-path="url(#clipPath2)" stroke="none">κ</text>
    </g>
    <g transform="matrix(1,0,0,1,-106,-144)" fill-opacity="0.1176" fill="rgb(0,0,255)" text-rendering="geometricPrecision" shape-rendering="geometricPrecision" stroke="rgb(0,0,255)" stroke-opacity="0.1176">
      <rect x="278.5" width="50" height="50" y="416.84" clip-path="url(#clipPath2)" stroke="none"/>
    </g>
    <g stroke-linecap="round" transform="matrix(1,0,0,1,-106,-144)" stroke-dashoffset="2" text-rendering="geometricPrecision" shape-rendering="geometricPrecision" stroke-dasharray="0,8" stroke-width="2" stroke-miterlimit="1.45">
      <rect fill="none" x="278.5" width="50" height="50" y="416.84" clip-path="url(#clipPath2)"/>
    </g>
    <g font-size="36px" stroke-linecap="butt" transform="matrix(1,0,0,1,-106,-144)" text-rendering="geometricPrecision" font-family="'Hack'" shape-rendering="geometricPrecision" stroke-miterlimit="1.45">
      <text x="292.6631" xml:space="preserve" y="454.3029" clip-path="url(#clipPath2)" stroke="none">σ</text>
    </g>
    <g transform="matrix(1,0,0,1,-106,-144)" fill-opacity="0.1176" fill="rgb(0,0,255)" text-rendering="geometricPrecision" shape-rendering="geometricPrecision" stroke="rgb(0,0,255)" stroke-opacity="0.1176">
      <rect x="484.48" width="50" height="50" y="211.5" clip-path="url(#clipPath2)" stroke="none"/>
    </g>
    <g stroke-linecap="round" transform="matrix(1,0,0,1,-106,-144)" stroke-dashoffset="2" text-rendering="geometricPrecision" shape-rendering="geometricPrecision" stroke-dasharray="0,8" stroke-width="2" stroke-miterlimit="1.45">
      <rect fill="none" x="484.48" width="50" height="50" y="211.5" clip-path="url(#clipPath2)"/>
    </g>
    <g font-size="36px" stroke-linecap="butt" transform="matrix(1,0,0,1,-106,-144)" text-rendering="geometricPrecision" font-family="'Hack'" shape-rendering="geometricPrecision" stroke-miterlimit="1.45">
      <text x="498.6431" xml:space="preserve" y="247.0098" clip-path="url(#clipPath2)" stroke="none">χ</text>
    </g>
    <g transform="matrix(1,0,0,1,-106,-144)" fill-opacity="0.1176" fill="rgb(0,0,255)" text-rendering="geometricPrecision" shape-rendering="geometricPrecision" stroke="rgb(0,0,255)" stroke-opacity="0.1176">
      <rect x="484.48" width="50" height="50" y="416.84" clip-path="url(#clipPath2)" stroke="none"/>
    </g>
    <g stroke-linecap="round" transform="matrix(1,0,0,1,-106,-144)" stroke-dashoffset="2" text-rendering="geometricPrecision" shape-rendering="geometricPrecision" stroke-dasharray="0,8" stroke-width="2" stroke-miterlimit="1.45">
      <rect fill="none" x="484.48" width="50" height="50" y="416.84" clip-path="url(#clipPath2)"/>
    </g>
    <g font-size="36px" stroke-linecap="butt" transform="matrix(1,0,0,1,-106,-144)" text-rendering="geometricPrecision" font-family="'Hack'" shape-rendering="geometricPrecision" stroke-miterlimit="1.45">
      <text x="498.6431" xml:space="preserve" y="454.3029" clip-path="url(#clipPath2)" stroke="none">α</text>
    </g>
    <g transform="matrix(1,0,0,1,-106,-144)" fill-opacity="0.1176" fill="rgb(0,0,255)" text-rendering="geometricPrecision" shape-rendering="geometricPrecision" stroke="rgb(0,0,255)" stroke-opacity="0.1176">
      <rect x="381.49" width="50" height="50" y="314.17" clip-path="url(#clipPath2)" stroke="none"/>
    </g>
    <g stroke-linecap="round" transform="matrix(1,0,0,1,-106,-144)" stroke-dashoffset="2" text-rendering="geometricPrecision" shape-rendering="geometricPrecision" stroke-dasharray="0,8" stroke-width="2" stroke-miterlimit="1.45">
      <rect fill="none" x="381.49" width="50" height="50" y="314.17" clip-path="url(#clipPath2)"/>
    </g>
    <g font-size="36px" stroke-linecap="butt" transform="matrix(1,0,0,1,-106,-144)" text-rendering="geometricPrecision" font-family="'Hack'" shape-rendering="geometricPrecision" stroke-miterlimit="1.45">
      <text x="395.6531" xml:space="preserve" y="351.6329" clip-path="url(#clipPath2)" stroke="none">β</text>
    </g>
    <g transform="matrix(1,0,0,1,-106,-144)" fill-opacity="0.0784" fill="rgb(0,255,0)" text-rendering="geometricPrecision" shape-rendering="geometricPrecision" stroke="rgb(0,255,0)" stroke-opacity="0.0784">
      <rect x="754.625" width="233.6" height="233.6" y="243.37" clip-path="url(#clipPath2)" stroke="none"/>
    </g>
    <g text-rendering="geometricPrecision" stroke-miterlimit="1.45" stroke-dasharray="6,2" shape-rendering="geometricPrecision" transform="matrix(1,0,0,1,-106,-144)" stroke-linecap="butt">
      <rect fill="none" x="754.625" width="233.6" height="233.6" y="243.37" clip-path="url(#clipPath2)"/>
    </g>
    <g font-size="32px" stroke-linecap="butt" transform="matrix(1,0,0,1,-106,-144)" text-rendering="geometricPrecision" font-family="'Hack'" shape-rendering="geometricPrecision" font-weight="bold" stroke-miterlimit="1.45">
      <text x="1004.0851" xml:space="preserve" y="352.6231" clip-path="url(#clipPath2)" stroke="none">neighbour</text>
      <text x="1032.9836" xml:space="preserve" y="389.8731" clip-path="url(#clipPath2)" stroke="none">device</text>
    </g>
    <g transform="matrix(1,0,0,1,-106,-144)" fill-opacity="0.1176" fill="rgb(0,0,255)" text-rendering="geometricPrecision" shape-rendering="geometricPrecision" stroke="rgb(0,0,255)" stroke-opacity="0.1176">
      <rect x="928.415" width="50" height="50" y="252.84" clip-path="url(#clipPath2)" stroke="none"/>
    </g>
    <g stroke-linecap="round" transform="matrix(1,0,0,1,-106,-144)" stroke-dashoffset="2" text-rendering="geometricPrecision" shape-rendering="geometricPrecision" stroke-dasharray="0,8" stroke-width="2" stroke-miterlimit="1.45">
      <rect fill="none" x="928.415" width="50" height="50" y="252.84" clip-path="url(#clipPath2)"/>
    </g>
    <g font-size="32px" stroke-linecap="butt" transform="matrix(1,0,0,1,-106,-144)" text-rendering="geometricPrecision" font-family="'Hack'" shape-rendering="geometricPrecision" stroke-miterlimit="1.45">
      <text x="943.7822" xml:space="preserve" y="288.9181" clip-path="url(#clipPath2)" stroke="none">κ</text>
    </g>
    <g transform="matrix(1,0,0,1,-106,-144)" fill-opacity="0.1176" fill="rgb(0,0,255)" text-rendering="geometricPrecision" shape-rendering="geometricPrecision" stroke="rgb(0,0,255)" stroke-opacity="0.1176">
      <rect x="764.415" width="50" height="50" y="416.84" clip-path="url(#clipPath2)" stroke="none"/>
    </g>
    <g stroke-linecap="round" transform="matrix(1,0,0,1,-106,-144)" stroke-dashoffset="2" text-rendering="geometricPrecision" shape-rendering="geometricPrecision" stroke-dasharray="0,8" stroke-width="2" stroke-miterlimit="1.45">
      <rect fill="none" x="764.415" width="50" height="50" y="416.84" clip-path="url(#clipPath2)"/>
    </g>
    <g font-size="32px" stroke-linecap="butt" transform="matrix(1,0,0,1,-106,-144)" text-rendering="geometricPrecision" font-family="'Hack'" shape-rendering="geometricPrecision" stroke-miterlimit="1.45">
      <text x="779.7822" xml:space="preserve" y="452.9181" clip-path="url(#clipPath2)" stroke="none">σ</text>
    </g>
    <g transform="matrix(1,0,0,1,-106,-144)" fill-opacity="0.1176" fill="rgb(0,0,255)" text-rendering="geometricPrecision" shape-rendering="geometricPrecision" stroke="rgb(0,0,255)" stroke-opacity="0.1176">
      <rect x="764.415" width="50" height="50" y="252.84" clip-path="url(#clipPath2)" stroke="none"/>
    </g>
    <g stroke-linecap="round" transform="matrix(1,0,0,1,-106,-144)" stroke-dashoffset="2" text-rendering="geometricPrecision" shape-rendering="geometricPrecision" stroke-dasharray="0,8" stroke-width="2" stroke-miterlimit="1.45">
      <rect fill="none" x="764.415" width="50" height="50" y="252.84" clip-path="url(#clipPath2)"/>
    </g>
    <g font-size="32px" stroke-linecap="butt" transform="matrix(1,0,0,1,-106,-144)" text-rendering="geometricPrecision" font-family="'Hack'" shape-rendering="geometricPrecision" stroke-miterlimit="1.45">
      <text x="779.7822" xml:space="preserve" y="288.9181" clip-path="url(#clipPath2)" stroke="none">χ</text>
    </g>
    <g transform="matrix(1,0,0,1,-106,-144)" fill-opacity="0.1176" fill="rgb(0,0,255)" text-rendering="geometricPrecision" shape-rendering="geometricPrecision" stroke="rgb(0,0,255)" stroke-opacity="0.1176">
      <rect x="928.415" width="50" height="50" y="416.84" clip-path="url(#clipPath2)" stroke="none"/>
    </g>
    <g stroke-linecap="round" transform="matrix(1,0,0,1,-106,-144)" stroke-dashoffset="2" text-rendering="geometricPrecision" shape-rendering="geometricPrecision" stroke-dasharray="0,8" stroke-width="2" stroke-miterlimit="1.45">
      <rect fill="none" x="928.415" width="50" height="50" y="416.84" clip-path="url(#clipPath2)"/>
    </g>
    <g font-size="32px" stroke-linecap="butt" transform="matrix(1,0,0,1,-106,-144)" text-rendering="geometricPrecision" font-family="'Hack'" shape-rendering="geometricPrecision" stroke-miterlimit="1.45">
      <text x="943.7822" xml:space="preserve" y="452.9181" clip-path="url(#clipPath2)" stroke="none">α</text>
    </g>
    <g transform="matrix(1,0,0,1,-106,-144)" fill-opacity="0.1176" fill="rgb(0,0,255)" text-rendering="geometricPrecision" shape-rendering="geometricPrecision" stroke="rgb(0,0,255)" stroke-opacity="0.1176">
      <rect x="846.415" width="50" height="50" y="334.84" clip-path="url(#clipPath2)" stroke="none"/>
    </g>
    <g stroke-linecap="round" transform="matrix(1,0,0,1,-106,-144)" stroke-dashoffset="2" text-rendering="geometricPrecision" shape-rendering="geometricPrecision" stroke-dasharray="0,8" stroke-width="2" stroke-miterlimit="1.45">
      <rect fill="none" x="846.415" width="50" height="50" y="334.84" clip-path="url(#clipPath2)"/>
    </g>
    <g font-size="32px" stroke-linecap="butt" transform="matrix(1,0,0,1,-106,-144)" text-rendering="geometricPrecision" font-family="'Hack'" shape-rendering="geometricPrecision" stroke-miterlimit="1.45">
      <text x="861.7822" xml:space="preserve" y="370.9181" clip-path="url(#clipPath2)" stroke="none">β</text>
      <path fill="none" d="M478.1061 267.7764 L437.8639 307.8936" stroke-width="2" clip-path="url(#clipPath2)"/>
      <path d="M484.48 261.4223 L470.9479 266.9697 L477.3094 268.5706 L478.8905 274.937 Z" stroke-width="2" clip-path="url(#clipPath2)" stroke="none"/>
      <path d="M431.49 314.2477 L445.0221 308.7003 L438.6606 307.0994 L437.0795 300.7329 Z" stroke-width="2" clip-path="url(#clipPath2)" stroke="none"/>
      <path fill="none" d="M334.8738 267.7764 L375.1161 307.8936" stroke-width="2" clip-path="url(#clipPath2)"/>
      <path d="M328.5 261.4223 L334.0895 274.937 L335.6706 268.5706 L342.032 266.9697 Z" stroke-width="2" clip-path="url(#clipPath2)" stroke="none"/>
      <path d="M381.49 314.2477 L375.9005 300.7329 L374.3194 307.0994 L367.9579 308.7002 Z" stroke-width="2" clip-path="url(#clipPath2)" stroke="none"/>
      <path fill="none" d="M328.5 416.9177 L375.1161 370.4464" stroke-width="2" clip-path="url(#clipPath2)"/>
      <path d="M381.49 364.0923 L367.9579 369.6398 L374.3194 371.2406 L375.9005 377.6071 Z" stroke-width="2" clip-path="url(#clipPath2)" stroke="none"/>
      <path fill="none" d="M431.49 364.0923 L478.1061 410.5636" stroke-width="2" clip-path="url(#clipPath2)"/>
      <path d="M484.48 416.9177 L478.8905 403.403 L477.3094 409.7694 L470.9479 411.3703 Z" stroke-width="2" clip-path="url(#clipPath2)" stroke="none"/>
      <path fill="none" d="M545.362 241.799 L753.533 272.541" stroke-width="4" clip-path="url(#clipPath2)"/>
      <path d="M534.48 240.1919 L549.7986 249.4037 L546.7223 241.9998 L551.8074 235.8012 Z" stroke-width="4" clip-path="url(#clipPath2)" stroke="none"/>
      <path d="M764.415 274.1481 L749.0964 264.9363 L752.1727 272.3402 L747.0876 278.5388 Z" stroke-width="4" clip-path="url(#clipPath2)" stroke="none"/>
      <path fill="none" d="M820.7789 309.2039 L840.051 328.476" stroke-width="2" clip-path="url(#clipPath2)"/>
      <path d="M814.415 302.84 L819.9835 316.3634 L821.5745 309.9995 L827.9384 308.4084 Z" stroke-width="2" clip-path="url(#clipPath2)" stroke="none"/>
      <path d="M846.415 334.84 L840.8465 321.3166 L839.2555 327.6805 L832.8915 329.2715 Z" stroke-width="2" clip-path="url(#clipPath2)" stroke="none"/>
      <path fill="none" d="M922.051 309.2039 L902.7789 328.476" stroke-width="2" clip-path="url(#clipPath2)"/>
      <path d="M928.415 302.84 L914.8915 308.4084 L921.2555 309.9995 L922.8465 316.3634 Z" stroke-width="2" clip-path="url(#clipPath2)" stroke="none"/>
      <path d="M896.415 334.84 L909.9384 329.2715 L903.5745 327.6805 L901.9835 321.3166 Z" stroke-width="2" clip-path="url(#clipPath2)" stroke="none"/>
      <path fill="none" d="M814.415 416.84 L840.051 391.2039" stroke-width="2" clip-path="url(#clipPath2)"/>
      <path d="M846.415 384.84 L832.8915 390.4084 L839.2555 391.9995 L840.8465 398.3634 Z" stroke-width="2" clip-path="url(#clipPath2)" stroke="none"/>
      <path fill="none" d="M896.415 384.84 L922.051 410.476" stroke-width="2" clip-path="url(#clipPath2)"/>
      <path d="M928.415 416.84 L922.8465 403.3166 L921.2555 409.6805 L914.8915 411.2715 Z" stroke-width="2" clip-path="url(#clipPath2)" stroke="none"/>
    </g>
  </g>
</svg>
