<?xml version="1.0" encoding="UTF-8" standalone="no"?><svg xmlns="http://www.w3.org/2000/svg" xmlns:xlink="http://www.w3.org/1999/xlink" contentStyleType="text/css" height="542px" preserveAspectRatio="none" style="width:1201px;height:542px;" version="1.1" viewBox="0 0 1201 542" width="1201px" zoomAndPan="magnify"><defs/><g><!--cluster Framework  CI/CD pipeline--><g id="cluster_Framework  CI/CD pipeline"><rect fill="none" height="529" rx="2.5" ry="2.5" style="stroke:#181818;stroke-width:1.0;" width="1188" x="7" y="7"/><text fill="#000000" font-family="sans-serif" font-size="14" font-weight="bold" lengthAdjust="spacing" textLength="208" x="497" y="21.9951">Framework  CI/CD pipeline</text></g><!--cluster crs--><g id="cluster_crs"><rect fill="none" height="122" rx="2.5" ry="2.5" style="stroke:#181818;stroke-width:1.0;" width="253" x="39" y="220"/><text fill="#000000" font-family="sans-serif" font-size="14" font-weight="bold" lengthAdjust="spacing" textLength="101" x="115" y="234.9951">Linux runner</text></g><!--cluster lr--><g id="cluster_lr"><rect fill="none" height="122" rx="2.5" ry="2.5" style="stroke:#181818;stroke-width:1.0;" width="215" x="365" y="382"/><text fill="#000000" font-family="sans-serif" font-size="14" font-weight="bold" lengthAdjust="spacing" textLength="101" x="422" y="396.9951">Linux runner</text></g><!--cluster mr--><g id="cluster_mr"><rect fill="none" height="122" rx="2.5" ry="2.5" style="stroke:#181818;stroke-width:1.0;" width="215" x="365" y="220"/><text fill="#000000" font-family="sans-serif" font-size="14" font-weight="bold" lengthAdjust="spacing" textLength="114" x="415.5" y="234.9951">macOS runner</text></g><!--cluster wr--><g id="cluster_wr"><rect fill="none" height="122" rx="2.5" ry="2.5" style="stroke:#181818;stroke-width:1.0;" width="215" x="365" y="58"/><text fill="#000000" font-family="sans-serif" font-size="14" font-weight="bold" lengthAdjust="spacing" textLength="130" x="407.5" y="72.9951">Windows runner</text></g><!--cluster cr--><g id="cluster_cr"><rect fill="none" height="122" rx="2.5" ry="2.5" style="stroke:#181818;stroke-width:1.0;" width="243" x="620" y="221"/><text fill="#000000" font-family="sans-serif" font-size="14" font-weight="bold" lengthAdjust="spacing" textLength="101" x="691" y="235.9951">Linux runner</text></g><!--cluster rsr--><g id="cluster_rsr"><rect fill="none" height="122" rx="2.5" ry="2.5" style="stroke:#181818;stroke-width:1.0;" width="260" x="903" y="221"/><text fill="#000000" font-family="sans-serif" font-size="14" font-weight="bold" lengthAdjust="spacing" textLength="101" x="982.5" y="235.9951">Linux runner</text></g><!--entity Create staging repository--><g id="elem_Create staging repository"><rect fill="#F1F1F1" height="36.2969" rx="2.5" ry="2.5" style="stroke:#181818;stroke-width:0.5;" width="205" x="63" y="263"/><text fill="#000000" font-family="sans-serif" font-size="14" lengthAdjust="spacing" textLength="185" x="73" y="285.9951">Create staging repository</text></g><!--entity lb--><g id="elem_lb"><rect fill="#F1F1F1" height="36.2969" rx="2.5" ry="2.5" style="stroke:#181818;stroke-width:0.5;" width="55" x="389" y="444"/><text fill="#000000" font-family="sans-serif" font-size="14" lengthAdjust="spacing" textLength="35" x="399" y="466.9951">Build</text></g><!--entity lt--><g id="elem_lt"><rect fill="#F1F1F1" height="36.2969" rx="2.5" ry="2.5" style="stroke:#181818;stroke-width:0.5;" width="52" x="504" y="444"/><text fill="#000000" font-family="sans-serif" font-size="14" lengthAdjust="spacing" textLength="32" x="514" y="466.9951">Test</text></g><!--entity mb--><g id="elem_mb"><rect fill="#F1F1F1" height="36.2969" rx="2.5" ry="2.5" style="stroke:#181818;stroke-width:0.5;" width="55" x="389" y="263"/><text fill="#000000" font-family="sans-serif" font-size="14" lengthAdjust="spacing" textLength="35" x="399" y="285.9951">Build</text></g><!--entity tb--><g id="elem_tb"><rect fill="#F1F1F1" height="36.2969" rx="2.5" ry="2.5" style="stroke:#181818;stroke-width:0.5;" width="52" x="504" y="263"/><text fill="#000000" font-family="sans-serif" font-size="14" lengthAdjust="spacing" textLength="32" x="514" y="285.9951">Test</text></g><!--entity wb--><g id="elem_wb"><rect fill="#F1F1F1" height="36.2969" rx="2.5" ry="2.5" style="stroke:#181818;stroke-width:0.5;" width="55" x="389" y="120"/><text fill="#000000" font-family="sans-serif" font-size="14" lengthAdjust="spacing" textLength="35" x="399" y="142.9951">Build</text></g><!--entity wt--><g id="elem_wt"><rect fill="#F1F1F1" height="36.2969" rx="2.5" ry="2.5" style="stroke:#181818;stroke-width:0.5;" width="52" x="504" y="120"/><text fill="#000000" font-family="sans-serif" font-size="14" lengthAdjust="spacing" textLength="32" x="514" y="142.9951">Test</text></g><!--entity Close staging repository--><g id="elem_Close staging repository"><rect fill="#F1F1F1" height="36.2969" rx="2.5" ry="2.5" style="stroke:#181818;stroke-width:0.5;" width="195" x="644" y="264"/><text fill="#000000" font-family="sans-serif" font-size="14" lengthAdjust="spacing" textLength="175" x="654" y="286.9951">Close staging repository</text></g><!--entity Release staging repository--><g id="elem_Release staging repository"><rect fill="#F1F1F1" height="36.2969" rx="2.5" ry="2.5" style="stroke:#181818;stroke-width:0.5;" width="212" x="927" y="264"/><text fill="#000000" font-family="sans-serif" font-size="14" lengthAdjust="spacing" textLength="192" x="937" y="286.9951">Release staging repository</text></g><!--link lb to lt--><g id="link_lb_lt"><path d="M444.207,462 C460.555,462 481.526,462 498.522,462 " fill="none" id="lb-to-lt" style="stroke:#181818;stroke-width:1.0;"/><polygon fill="#181818" points="503.66,462,494.66,458,498.66,462,494.66,466,503.66,462" style="stroke:#181818;stroke-width:1.0;"/></g><!--link mb to tb--><g id="link_mb_tb"><path d="M444.207,281 C460.555,281 481.526,281 498.522,281 " fill="none" id="mb-to-tb" style="stroke:#181818;stroke-width:1.0;"/><polygon fill="#181818" points="503.66,281,494.66,277,498.66,281,494.66,285,503.66,281" style="stroke:#181818;stroke-width:1.0;"/></g><!--link wb to wt--><g id="link_wb_wt"><path d="M444.207,138 C460.555,138 481.526,138 498.522,138 " fill="none" id="wb-to-wt" style="stroke:#181818;stroke-width:1.0;"/><polygon fill="#181818" points="503.66,138,494.66,134,498.66,138,494.66,142,503.66,138" style="stroke:#181818;stroke-width:1.0;"/></g><!--link crs to lr--><g id="link_crs_lr"><path d="M193.3425,342.0852 C193.6534,342.1788 193.9665,342.2731 194.2817,342.3681 C195.5426,342.7478 196.8379,343.138 198.1659,343.538 C200.8218,344.3379 203.6082,345.1772 206.5106,346.0514 C229.7295,353.045 260.3711,362.2744 291.0116,371.5035 C306.3319,376.1181 321.6519,380.7326 336.0438,385.0675 C343.2397,387.235 350.2036,389.3325 356.8194,391.3253 C358.4734,391.8235 360.1056,392.3151 361.7143,392.7996 C362.5186,393.0419 363.317,393.2824 364.1093,393.5211 C364.3074,393.5807 364.5051,393.6403 364.7024,393.6997 " fill="none" id="crs-to-lr" style="stroke:#181818;stroke-width:1.0;"/><polygon fill="#181818" points="364.7024,393.6997,357.2385,387.274,359.9149,392.2577,354.9312,394.934,364.7024,393.6997" style="stroke:#181818;stroke-width:1.0;"/></g><!--link crs to mr--><g id="link_crs_mr"><path d="M292.4479,334 C292.9266,334 293.4053,334 293.8839,334 C294.8412,334 295.7983,334 296.7549,334 C298.6681,334 300.5795,334 302.4873,334 C306.3028,334 310.1039,334 313.8759,334 C321.4199,334 328.8479,334 336.0438,334 C343.2397,334 350.2036,334 356.8194,334 C358.4734,334 360.1056,334 361.7143,334 C362.5186,334 363.317,334 364.1093,334 C364.3074,334 364.5051,334 364.7024,334 C364.8011,334 364.8996,334 364.9981,334 " fill="none" id="crs-to-mr" style="stroke:#181818;stroke-width:1.0;"/><polygon fill="#181818" points="364.9981,334,355.9981,330,359.9981,334,355.9981,338,364.9981,334" style="stroke:#181818;stroke-width:1.0;"/></g><!--link crs to wr--><g id="link_crs_wr"><path d="M292.1942,326.4628 C292.405,326.3459 292.6153,326.2282 292.825,326.1095 C293.2446,325.8723 293.662,325.6315 294.0773,325.3873 C295.7387,324.4102 297.3661,323.3768 298.9554,322.2844 C302.134,320.0996 305.1601,317.6786 308,315 C377.496,249.451 284.428,174.405 349,104 C351.5159,101.2569 354.3976,98.8995 357.5196,96.8746 C359.0806,95.8622 360.7017,94.9329 362.3672,94.0801 C363.2,93.6537 364.0438,93.2464 364.8968,92.8574 " fill="none" id="crs-to-wr" style="stroke:#181818;stroke-width:1.0;"/><polygon fill="#181818" points="364.8968,92.8574,355.0484,92.9523,360.3476,94.9321,358.3678,100.2312,364.8968,92.8574" style="stroke:#181818;stroke-width:1.0;"/></g><!--link lr to cr--><g id="link_lr_cr"><path d="M536.6094,381.7118 C537.211,381.574 537.8135,381.436 538.4168,381.2977 C539.6233,381.0213 540.8331,380.7442 542.0458,380.4663 C544.4713,379.9106 546.9084,379.3523 549.355,378.7918 C559.1414,376.5497 569.0781,374.2731 579.0148,371.9966 C618.7614,362.8906 658.5068,353.7848 688.6213,346.8855 C692.3856,346.023 695.9994,345.1951 699.4439,344.4059 C701.1662,344.0114 702.8462,343.6265 704.4814,343.2518 C704.6858,343.205 704.8895,343.1583 705.0926,343.1118 " fill="none" id="lr-to-cr" style="stroke:#181818;stroke-width:1.0;"/><polygon fill="#181818" points="705.0926,343.1118,695.4266,341.2227,700.2188,344.2284,697.2131,349.0207,705.0926,343.1118" style="stroke:#181818;stroke-width:1.0;"/></g><!--link mr to cr--><g id="link_mr_cr"><path d="M580.8778,334.5058 C581.4988,334.5077 582.1198,334.5096 582.7407,334.5115 C583.9825,334.5154 585.224,334.5192 586.4649,334.5231 C588.9467,334.5308 591.4261,334.5384 593.9009,334.5461 C598.8504,334.5614 603.781,334.5767 608.674,334.5919 C611.1205,334.5995 613.5576,334.607 615.983,334.6145 C617.1957,334.6183 618.4054,334.622 619.6119,334.6258 C619.6873,334.626 619.7627,334.6262 619.8381,334.6265 C619.8758,334.6266 619.9134,334.6267 619.9511,334.6268 " fill="none" id="mr-to-cr" style="stroke:#181818;stroke-width:1.0;"/><polygon fill="#181818" points="619.9511,334.6268,610.9636,330.599,614.9512,334.6113,610.9388,338.5989,619.9511,334.6268" style="stroke:#181818;stroke-width:1.0;"/></g><!--link wr to cr--><g id="link_wr_cr"><path d="M580.0533,90.7255 C580.3042,90.8875 580.5543,91.0507 580.8036,91.2151 C581.3023,91.5441 581.7978,91.8781 582.2901,92.2173 C583.2747,92.8956 584.2463,93.5946 585.2043,94.3146 C589.0362,97.1949 592.6498,100.4127 596,104 C612.089,121.228 588.191,298.515 604,316 C606.5273,318.7953 609.2603,321.3185 612.1641,323.5926 C613.616,324.7296 615.1107,325.8044 616.6436,326.8197 C617.4101,327.3274 618.1862,327.8202 618.9713,328.2985 C619.1675,328.4181 619.3644,328.5367 619.5618,328.6545 " fill="none" id="wr-to-cr" style="stroke:#181818;stroke-width:1.0;"/><polygon fill="#181818" points="619.5618,328.6545,613.8823,320.6082,615.2679,326.0927,609.7834,327.4784,619.5618,328.6545" style="stroke:#181818;stroke-width:1.0;"/></g><!--link cr to rsr--><g id="link_cr_rsr"><path d="M863.9739,335 C865.0742,335 866.1764,335 867.2802,335 C869.4878,335 871.7017,335 873.9198,335 C878.356,335 882.809,335 887.262,335 C891.715,335 896.168,335 900.6041,335 C901.1587,335 901.7129,335 902.2669,335 " fill="none" id="cr-to-rsr" style="stroke:#181818;stroke-width:1.0;"/><polygon fill="#181818" points="902.2669,335,893.2669,331,897.2669,335,893.2669,339,902.2669,335" style="stroke:#181818;stroke-width:1.0;"/></g><!--SRC=[XP71QiCm38RlVWgHUzWRxD2CmM0mM0SxkucMcTfoa1MyClhkSspMfLcRWdtu_V_MPraMFmJ40vl-Kw0pZAqOJqg5lQ51itQmqUs-PpzIrtZh6OGrXMGXoIpLUZTuIcTRELY4gOwctg9I9mUgnvJ4w7aFq3pTDGymc06j8QpWMm7Cai-6nY_WaGYv0XsWvP0pPwc6KGj24DqRwXDqyC68vqELaiUqJy-uKD7o_uARqTYkkBkbzuP1YYNPiZkew_kY5YodsvVjdELMMUuwIuhb2Ykh1UlTKETZcDFYAYrUfyNIMIoq-DlPzFTrxfNdofsfoEhc22zCqFgmDi2qqfmoe9rmRYxYdxY1vd21_OeMzGezTvT_8brNe8u_]--></g></svg>