<?xml version="1.0" encoding="UTF-8"?><svg xmlns="http://www.w3.org/2000/svg" xmlns:xlink="http://www.w3.org/1999/xlink" fill-opacity="1" color-rendering="auto" color-interpolation="auto" text-rendering="auto" stroke="black" stroke-linecap="square" width="1528" stroke-miterlimit="10" shape-rendering="auto" stroke-opacity="1" fill="black" stroke-dasharray="none" font-weight="normal" stroke-width="1" height="572" font-family="'Dialog'" font-style="normal" stroke-linejoin="miter" font-size="12px" stroke-dashoffset="0" image-rendering="auto">
  <!--Generated by ySVG 2.6-->
  <defs id="genericDefs"/>
  <g>
    <defs id="defs1">
      <clipPath clipPathUnits="userSpaceOnUse" id="clipPath1">
        <path d="M0 0 L1528 0 L1528 572 L0 572 L0 0 Z"/>
      </clipPath>
      <clipPath clipPathUnits="userSpaceOnUse" id="clipPath2">
        <path d="M103 114 L1631 114 L1631 686 L103 686 L103 114 Z"/>
      </clipPath>
    </defs>
    <g fill="white" text-rendering="geometricPrecision" shape-rendering="geometricPrecision" transform="translate(-103,-114)" stroke="white">
      <rect x="103" width="1528" height="572" y="114" clip-path="url(#clipPath2)" stroke="none"/>
    </g>
    <g fill="silver" text-rendering="geometricPrecision" shape-rendering="geometricPrecision" transform="matrix(1,0,0,1,-103,-114)" stroke="silver">
      <ellipse rx="118.5" ry="59" clip-path="url(#clipPath2)" cx="809.375" cy="188" stroke="none"/>
    </g>
    <g text-rendering="geometricPrecision" stroke-miterlimit="1.45" shape-rendering="geometricPrecision" transform="matrix(1,0,0,1,-103,-114)" stroke-linecap="butt">
      <ellipse rx="118.5" fill="none" ry="59" clip-path="url(#clipPath2)" cx="809.375" cy="188"/>
      <text x="729.3751" font-size="26px" y="196" clip-path="url(#clipPath2)" font-family="'Fira Code SemiBold'" stroke="none" xml:space="preserve">commonMain</text>
    </g>
    <g fill="rgb(153,204,255)" text-rendering="geometricPrecision" shape-rendering="geometricPrecision" transform="matrix(1,0,0,1,-103,-114)" stroke="rgb(153,204,255)">
      <ellipse rx="118.5" ry="59" clip-path="url(#clipPath2)" cx="385.5" cy="400" stroke="none"/>
    </g>
    <g text-rendering="geometricPrecision" stroke-miterlimit="1.45" shape-rendering="geometricPrecision" transform="matrix(1,0,0,1,-103,-114)" stroke-linecap="butt">
      <ellipse rx="118.5" fill="none" ry="59" clip-path="url(#clipPath2)" cx="385.5" cy="400"/>
      <text x="329.5001" font-size="26px" y="408" clip-path="url(#clipPath2)" font-family="'Fira Code SemiBold'" stroke="none" xml:space="preserve">iosMain</text>
    </g>
    <g fill="rgb(153,255,153)" text-rendering="geometricPrecision" shape-rendering="geometricPrecision" transform="matrix(1,0,0,1,-103,-114)" stroke="rgb(153,255,153)">
      <ellipse rx="118.5" ry="59" clip-path="url(#clipPath2)" cx="663.5" cy="400" stroke="none"/>
    </g>
    <g text-rendering="geometricPrecision" stroke-miterlimit="1.45" shape-rendering="geometricPrecision" transform="matrix(1,0,0,1,-103,-114)" stroke-linecap="butt">
      <ellipse rx="118.5" fill="none" ry="59" clip-path="url(#clipPath2)" cx="663.5" cy="400"/>
      <text x="607.5001" font-size="26px" y="408" clip-path="url(#clipPath2)" font-family="'Fira Code SemiBold'" stroke="none" xml:space="preserve">jvmMain</text>
    </g>
    <g fill="rgb(153,255,153)" text-rendering="geometricPrecision" shape-rendering="geometricPrecision" transform="matrix(1,0,0,1,-103,-114)" stroke="rgb(153,255,153)">
      <ellipse rx="118.5" ry="59" clip-path="url(#clipPath2)" cx="941.5" cy="400" stroke="none"/>
    </g>
    <g text-rendering="geometricPrecision" stroke-miterlimit="1.45" shape-rendering="geometricPrecision" transform="matrix(1,0,0,1,-103,-114)" stroke-linecap="butt">
      <ellipse rx="118.5" fill="none" ry="59" clip-path="url(#clipPath2)" cx="941.5" cy="400"/>
      <text x="893.5001" font-size="26px" y="408" clip-path="url(#clipPath2)" font-family="'Fira Code SemiBold'" stroke="none" xml:space="preserve">jsMain</text>
    </g>
    <g fill="rgb(153,204,255)" text-rendering="geometricPrecision" shape-rendering="geometricPrecision" transform="matrix(1,0,0,1,-103,-114)" stroke="rgb(153,204,255)">
      <ellipse rx="118.5" ry="59" clip-path="url(#clipPath2)" cx="1219.5" cy="400" stroke="none"/>
    </g>
    <g text-rendering="geometricPrecision" stroke-miterlimit="1.45" shape-rendering="geometricPrecision" transform="matrix(1,0,0,1,-103,-114)" stroke-linecap="butt">
      <ellipse rx="118.5" fill="none" ry="59" clip-path="url(#clipPath2)" cx="1219.5" cy="400"/>
      <text x="1131.5001" font-size="26px" y="408" clip-path="url(#clipPath2)" font-family="'Fira Code SemiBold'" stroke="none" xml:space="preserve">desktopMain</text>
    </g>
    <g fill="rgb(153,255,153)" text-rendering="geometricPrecision" shape-rendering="geometricPrecision" transform="matrix(1,0,0,1,-103,-114)" stroke="rgb(153,255,153)">
      <ellipse rx="118.5" ry="59" clip-path="url(#clipPath2)" cx="236.5" cy="612" stroke="none"/>
    </g>
    <g text-rendering="geometricPrecision" stroke-miterlimit="1.45" shape-rendering="geometricPrecision" transform="matrix(1,0,0,1,-103,-114)" stroke-linecap="butt">
      <ellipse rx="118.5" fill="none" ry="59" clip-path="url(#clipPath2)" cx="236.5" cy="612"/>
      <text x="140.5001" font-size="26px" y="620" clip-path="url(#clipPath2)" font-family="'Fira Code SemiBold'" stroke="none" xml:space="preserve">iosArm64Main</text>
    </g>
    <g fill="rgb(153,255,153)" text-rendering="geometricPrecision" shape-rendering="geometricPrecision" transform="matrix(1,0,0,1,-103,-114)" stroke="rgb(153,255,153)">
      <ellipse rx="118.5" ry="59" clip-path="url(#clipPath2)" cx="514.5" cy="612" stroke="none"/>
    </g>
    <g text-rendering="geometricPrecision" stroke-miterlimit="1.45" shape-rendering="geometricPrecision" transform="matrix(1,0,0,1,-103,-114)" stroke-linecap="butt">
      <ellipse rx="118.5" fill="none" ry="59" clip-path="url(#clipPath2)" cx="514.5" cy="612"/>
      <text x="434.5001" font-size="26px" y="620" clip-path="url(#clipPath2)" font-family="'Fira Code SemiBold'" stroke="none" xml:space="preserve">iosX64Main</text>
    </g>
    <g fill="rgb(153,255,153)" text-rendering="geometricPrecision" shape-rendering="geometricPrecision" transform="matrix(1,0,0,1,-103,-114)" stroke="rgb(153,255,153)">
      <ellipse rx="118.5" ry="59" clip-path="url(#clipPath2)" cx="941.5" cy="612" stroke="none"/>
    </g>
    <g text-rendering="geometricPrecision" stroke-miterlimit="1.45" shape-rendering="geometricPrecision" transform="matrix(1,0,0,1,-103,-114)" stroke-linecap="butt">
      <ellipse rx="118.5" fill="none" ry="59" clip-path="url(#clipPath2)" cx="941.5" cy="612"/>
      <text x="845.5001" font-size="26px" y="620" clip-path="url(#clipPath2)" font-family="'Fira Code SemiBold'" stroke="none" xml:space="preserve">linuxX64Main</text>
    </g>
    <g fill="rgb(153,255,153)" text-rendering="geometricPrecision" shape-rendering="geometricPrecision" transform="matrix(1,0,0,1,-103,-114)" stroke="rgb(153,255,153)">
      <ellipse rx="118.5" ry="59" clip-path="url(#clipPath2)" cx="1219.5" cy="612" stroke="none"/>
    </g>
    <g text-rendering="geometricPrecision" stroke-miterlimit="1.45" shape-rendering="geometricPrecision" transform="matrix(1,0,0,1,-103,-114)" stroke-linecap="butt">
      <ellipse rx="118.5" fill="none" ry="59" clip-path="url(#clipPath2)" cx="1219.5" cy="612"/>
      <text x="1123.5001" font-size="26px" y="620" clip-path="url(#clipPath2)" font-family="'Fira Code SemiBold'" stroke="none" xml:space="preserve">mingwX64Main</text>
    </g>
    <g fill="rgb(153,255,153)" text-rendering="geometricPrecision" shape-rendering="geometricPrecision" transform="matrix(1,0,0,1,-103,-114)" stroke="rgb(153,255,153)">
      <ellipse rx="118.5" ry="59" clip-path="url(#clipPath2)" cx="1497.5" cy="612" stroke="none"/>
    </g>
    <g text-rendering="geometricPrecision" stroke-miterlimit="1.45" shape-rendering="geometricPrecision" transform="matrix(1,0,0,1,-103,-114)" stroke-linecap="butt">
      <ellipse rx="118.5" fill="none" ry="59" clip-path="url(#clipPath2)" cx="1497.5" cy="612"/>
      <text x="1401.5001" font-size="26px" y="620" clip-path="url(#clipPath2)" font-family="'Fira Code SemiBold'" stroke="none" xml:space="preserve">macosX64Main</text>
      <path fill="none" d="M469.1024 358.1865 L715.9344 234.7341" stroke-width="4" clip-path="url(#clipPath2)" stroke="rgb(153,153,153)"/>
      <path fill="rgb(153,153,153)" d="M725.7726 229.8136 L707.9401 231.0455 L714.7047 235.3491 L714.0907 243.3431 Z" stroke-width="4" clip-path="url(#clipPath2)" stroke="none"/>
      <path fill="none" d="M701.9059 344.1847 L764.7336 252.8773" stroke-width="4" clip-path="url(#clipPath2)" stroke="rgb(153,153,153)"/>
      <path fill="rgb(153,153,153)" d="M770.9691 243.8153 L755.9521 253.5111 L763.9542 254.01 L767.2796 261.3054 Z" stroke-width="4" clip-path="url(#clipPath2)" stroke="none"/>
      <path fill="none" d="M906.3812 343.6505 L850.3119 253.6849" stroke-width="4" clip-path="url(#clipPath2)" stroke="rgb(153,153,153)"/>
      <path fill="rgb(153,153,153)" d="M844.4938 244.3495 L847.3864 261.9889 L851.0392 254.8518 L859.0555 254.7162 Z" stroke-width="4" clip-path="url(#clipPath2)" stroke="none"/>
      <path fill="none" d="M1137.2932 357.506 L901.3535 235.5451" stroke-width="4" clip-path="url(#clipPath2)" stroke="rgb(153,153,153)"/>
      <path fill="rgb(153,153,153)" d="M891.5818 230.494 L903.0825 244.178 L902.575 236.1765 L909.3964 231.9634 Z" stroke-width="4" clip-path="url(#clipPath2)" stroke="none"/>
      <path fill="none" d="M275.6398 556.3112 L340.035 464.6884" stroke-width="4" clip-path="url(#clipPath2)" stroke="rgb(153,153,153)"/>
      <path fill="rgb(153,153,153)" d="M346.3602 455.6888 L331.2477 465.2349 L339.2444 465.8133 L342.4972 473.1414 Z" stroke-width="4" clip-path="url(#clipPath2)" stroke="none"/>
      <path fill="none" d="M480.1413 555.5345 L425.5768 465.8625" stroke-width="4" clip-path="url(#clipPath2)" stroke="rgb(153,153,153)"/>
      <path fill="rgb(153,153,153)" d="M419.8587 456.4655 L422.5626 474.1348 L426.2915 467.0372 L434.3089 466.9873 Z" stroke-width="4" clip-path="url(#clipPath2)" stroke="none"/>
      <path fill="none" d="M1006.2828 562.5972 L1145.9703 456.073" stroke-width="4" clip-path="url(#clipPath2)" stroke="rgb(153,153,153)"/>
      <path fill="rgb(153,153,153)" d="M1154.7172 449.4027 L1137.428 453.9413 L1144.877 456.9068 L1145.7659 464.8749 Z" stroke-width="4" clip-path="url(#clipPath2)" stroke="none"/>
      <path fill="none" d="M1219.5 553 L1219.5 470" stroke-width="4" clip-path="url(#clipPath2)" stroke="rgb(153,153,153)"/>
      <path fill="rgb(153,153,153)" d="M1219.5 459 L1212.625 475.5 L1219.5 471.375 L1226.375 475.5 Z" stroke-width="4" clip-path="url(#clipPath2)" stroke="none"/>
      <path fill="none" d="M1432.7172 562.5972 L1293.0297 456.073" stroke-width="4" clip-path="url(#clipPath2)" stroke="rgb(153,153,153)"/>
      <path fill="rgb(153,153,153)" d="M1284.2828 449.4027 L1293.2341 464.8749 L1294.123 456.9068 L1301.572 453.9413 Z" stroke-width="4" clip-path="url(#clipPath2)" stroke="none"/>
    </g>
  </g>
</svg>
