<?xml version="1.0" encoding="UTF-8" standalone="no"?><svg xmlns="http://www.w3.org/2000/svg" xmlns:xlink="http://www.w3.org/1999/xlink" contentStyleType="text/css" height="356px" preserveAspectRatio="none" style="width:921px;height:356px;background:#FFFFFF;" version="1.1" viewBox="0 0 921 356" width="921px" zoomAndPan="magnify"><defs/><g><!--cluster c--><g id="cluster_c"><path d="M8.5,6 L44.5,6 A3.75,3.75 0 0 1 47,8.5 L54,28.2969 L354.5,28.2969 A2.5,2.5 0 0 1 357,30.7969 L357,209.5 A2.5,2.5 0 0 1 354.5,212 L8.5,212 A2.5,2.5 0 0 1 6,209.5 L6,8.5 A2.5,2.5 0 0 1 8.5,6 " fill="none" style="stroke:#000000;stroke-width:1.5;"/><line style="stroke:#000000;stroke-width:1.5;" x1="6" x2="54" y1="28.2969" y2="28.2969"/><text fill="#000000" font-family="sans-serif" font-size="14" font-weight="bold" lengthAdjust="spacing" textLength="35" x="10" y="20.9951">core</text></g><!--cluster platform--><g id="cluster_platform"><path d="M383.5,6 L456.5,6 A3.75,3.75 0 0 1 459,8.5 L466,28.2969 L719.5,28.2969 A2.5,2.5 0 0 1 722,30.7969 L722,209.5 A2.5,2.5 0 0 1 719.5,212 L383.5,212 A2.5,2.5 0 0 1 381,209.5 L381,8.5 A2.5,2.5 0 0 1 383.5,6 " fill="none" style="stroke:#000000;stroke-width:1.5;"/><line style="stroke:#000000;stroke-width:1.5;" x1="381" x2="466" y1="28.2969" y2="28.2969"/><text fill="#000000" font-family="sans-serif" font-size="14" font-weight="bold" lengthAdjust="spacing" textLength="72" x="385" y="20.9951">platform</text></g><!--cluster rabbitmq platform--><g id="cluster_rabbitmq platform"><path d="M748.5,6 L901.5,6 A3.75,3.75 0 0 1 904,8.5 L911,28.2969 L911.5,28.2969 A2.5,2.5 0 0 1 914,30.7969 L914,100.5 A2.5,2.5 0 0 1 911.5,103 L748.5,103 A2.5,2.5 0 0 1 746,100.5 L746,8.5 A2.5,2.5 0 0 1 748.5,6 " fill="none" style="stroke:#000000;stroke-width:1.5;"/><line style="stroke:#000000;stroke-width:1.5;" x1="746" x2="911" y1="28.2969" y2="28.2969"/><text fill="#000000" font-family="sans-serif" font-size="14" font-weight="bold" lengthAdjust="spacing" textLength="152" x="750" y="20.9951">rabbitmq platform</text></g><!--entity core--><g id="elem_core"><rect fill="#F1F1F1" height="46.2969" rx="2.5" ry="2.5" style="stroke:#181818;stroke-width:0.5;" width="72" x="243" y="41"/><rect fill="#F1F1F1" height="10" style="stroke:#181818;stroke-width:0.5;" width="15" x="295" y="46"/><rect fill="#F1F1F1" height="2" style="stroke:#181818;stroke-width:0.5;" width="4" x="293" y="48"/><rect fill="#F1F1F1" height="2" style="stroke:#181818;stroke-width:0.5;" width="4" x="293" y="52"/><text fill="#000000" font-family="sans-serif" font-size="14" lengthAdjust="spacing" textLength="32" x="258" y="73.9951">core</text></g><!--entity configuration dsl--><g id="elem_configuration dsl"><rect fill="#F1F1F1" height="46.2969" rx="2.5" ry="2.5" style="stroke:#181818;stroke-width:0.5;" width="160" x="22" y="150"/><rect fill="#F1F1F1" height="10" style="stroke:#181818;stroke-width:0.5;" width="15" x="162" y="155"/><rect fill="#F1F1F1" height="2" style="stroke:#181818;stroke-width:0.5;" width="4" x="160" y="157"/><rect fill="#F1F1F1" height="2" style="stroke:#181818;stroke-width:0.5;" width="4" x="160" y="161"/><text fill="#000000" font-family="sans-serif" font-size="14" lengthAdjust="spacing" textLength="120" x="37" y="182.9951">configuration dsl</text></g><!--entity component--><g id="elem_component"><rect fill="#F1F1F1" height="46.2969" rx="2.5" ry="2.5" style="stroke:#181818;stroke-width:0.5;" width="124" x="217" y="150"/><rect fill="#F1F1F1" height="10" style="stroke:#181818;stroke-width:0.5;" width="15" x="321" y="155"/><rect fill="#F1F1F1" height="2" style="stroke:#181818;stroke-width:0.5;" width="4" x="319" y="157"/><rect fill="#F1F1F1" height="2" style="stroke:#181818;stroke-width:0.5;" width="4" x="319" y="161"/><text fill="#000000" font-family="sans-serif" font-size="14" lengthAdjust="spacing" textLength="84" x="232" y="182.9951">component</text></g><!--entity communication--><g id="elem_communication"><rect fill="#F1F1F1" height="46.2969" rx="2.5" ry="2.5" style="stroke:#181818;stroke-width:0.5;" width="151" x="481.5" y="41"/><rect fill="#F1F1F1" height="10" style="stroke:#181818;stroke-width:0.5;" width="15" x="612.5" y="46"/><rect fill="#F1F1F1" height="2" style="stroke:#181818;stroke-width:0.5;" width="4" x="610.5" y="48"/><rect fill="#F1F1F1" height="2" style="stroke:#181818;stroke-width:0.5;" width="4" x="610.5" y="52"/><text fill="#000000" font-family="sans-serif" font-size="14" lengthAdjust="spacing" textLength="111" x="496.5" y="73.9951">communication</text></g><!--entity componentref--><g id="elem_componentref"><rect fill="#F1F1F1" height="46.2969" rx="2.5" ry="2.5" style="stroke:#181818;stroke-width:0.5;" width="145" x="397.5" y="150"/><rect fill="#F1F1F1" height="10" style="stroke:#181818;stroke-width:0.5;" width="15" x="522.5" y="155"/><rect fill="#F1F1F1" height="2" style="stroke:#181818;stroke-width:0.5;" width="4" x="520.5" y="157"/><rect fill="#F1F1F1" height="2" style="stroke:#181818;stroke-width:0.5;" width="4" x="520.5" y="161"/><text fill="#000000" font-family="sans-serif" font-size="14" lengthAdjust="spacing" textLength="105" x="412.5" y="182.9951">componentref</text></g><!--entity platform dsl--><g id="elem_platform dsl"><rect fill="#F1F1F1" height="46.2969" rx="2.5" ry="2.5" style="stroke:#181818;stroke-width:0.5;" width="128" x="578" y="150"/><rect fill="#F1F1F1" height="10" style="stroke:#181818;stroke-width:0.5;" width="15" x="686" y="155"/><rect fill="#F1F1F1" height="2" style="stroke:#181818;stroke-width:0.5;" width="4" x="684" y="157"/><rect fill="#F1F1F1" height="2" style="stroke:#181818;stroke-width:0.5;" width="4" x="684" y="161"/><text fill="#000000" font-family="sans-serif" font-size="14" lengthAdjust="spacing" textLength="88" x="593" y="182.9951">platform dsl</text></g><!--entity rabbitmq--><g id="elem_rabbitmq"><rect fill="#F1F1F1" height="46.2969" rx="2.5" ry="2.5" style="stroke:#181818;stroke-width:0.5;" width="108" x="762" y="41"/><rect fill="#F1F1F1" height="10" style="stroke:#181818;stroke-width:0.5;" width="15" x="850" y="46"/><rect fill="#F1F1F1" height="2" style="stroke:#181818;stroke-width:0.5;" width="4" x="848" y="48"/><rect fill="#F1F1F1" height="2" style="stroke:#181818;stroke-width:0.5;" width="4" x="848" y="52"/><text fill="#000000" font-family="sans-serif" font-size="14" lengthAdjust="spacing" textLength="68" x="777" y="73.9951">rabbitmq</text></g><!--entity user--><g id="elem_user"><ellipse cx="428" cy="283.5" fill="#F1F1F1" rx="8" ry="8" style="stroke:#181818;stroke-width:0.5;"/><path d="M428,291.5 L428,318.5 M415,299.5 L441,299.5 M428,318.5 L415,333.5 M428,318.5 L441,333.5 " fill="none" style="stroke:#181818;stroke-width:0.5;"/><text fill="#000000" font-family="sans-serif" font-size="14" lengthAdjust="spacing" textLength="31" x="412.5" y="347.9951">User</text></g><!--link core to configuration dsl--><g id="link_core_configuration dsl"><path d="M242.754,86.911 C212.311,105.315 169.016,131.488 138.501,149.934 " fill="none" id="core-configuration dsl" style="stroke:#181818;stroke-width:1.0;"/></g><!--link core to component--><g id="link_core_component"><path d="M279,87.17 C279,105.534 279,131.502 279,149.858 " fill="none" id="core-component" style="stroke:#181818;stroke-width:1.0;"/></g><!--link communication to componentref--><g id="link_communication_componentref"><path d="M538.974,87.17 C524.042,105.534 502.928,131.502 488.003,149.858 " fill="none" id="communication-componentref" style="stroke:#181818;stroke-width:1.0;"/></g><!--link communication to platform dsl--><g id="link_communication_platform dsl"><path d="M574.612,87.17 C589.2,105.534 609.829,131.502 624.411,149.858 " fill="none" id="communication-platform dsl" style="stroke:#181818;stroke-width:1.0;"/></g><!--link core to communication--><g id="link_core_communication"><path d="M315.107,64 C370.541,64 425.975,64 481.409,64 " fill="none" id="core-communication" style="stroke:#181818;stroke-width:1.0;"/></g><!--link communication to rabbitmq--><g id="link_communication_rabbitmq"><path d="M632.626,64 C675.724,64 718.821,64 761.919,64 " fill="none" id="communication-rabbitmq" style="stroke:#181818;stroke-width:1.0;"/></g><!--link platform dsl to user--><g id="link_platform dsl_user"><path d="M607.617,196.172 C560.593,226.496 478.141,279.6662 443.755,301.8403 " fill="none" id="platform dsl-user" style="stroke:#181818;stroke-width:1.0;"/><text fill="#000000" font-family="sans-serif" font-size="13" lengthAdjust="spacing" textLength="46" x="555" y="241.0669">«uses»</text></g><!--link configuration dsl to user--><g id="link_configuration dsl_user"><path d="M147.138,196.104 C163.389,203.876 181.925,212.529 199,220 C278.291,254.6902 375.031,291.916 412.315,306.077 " fill="none" id="configuration dsl-user" style="stroke:#181818;stroke-width:1.0;"/><text fill="#000000" font-family="sans-serif" font-size="13" lengthAdjust="spacing" textLength="46" x="257" y="241.0669">«uses»</text></g><!--SRC=[TP113i8W44Ntd6B2lXSmJM_Xoh2Wb5PYON2OhentjzIGAjRTP_Zp_iymHc247fdHm-386dOOHDJcfYSBqY1P2Jg1WOS0kEItWgR9AenkMaZd1HZIhEf_7p7Om4eynGwCi-OHoSl2ytu9pcoKQf7igFvu2kMT-yadtVUE_Hsge3BVtAKckUdAJPqWVXABRuS8RHW9v3bPskwph685VnNBLVCSJY3RTbMfwwGukDoXyGK0]--></g></svg>