<?xml version="1.0" encoding="UTF-8" standalone="no"?><svg xmlns="http://www.w3.org/2000/svg" xmlns:xlink="http://www.w3.org/1999/xlink" contentStyleType="text/css" height="202px" preserveAspectRatio="none" style="width:372px;height:202px;background:#FFFFFF;" version="1.1" viewBox="0 0 372 202" width="372px" zoomAndPan="magnify"><defs/><g><!--entity dsl--><g id="elem_dsl"><rect fill="#F1F1F1" height="46.2969" rx="2.5" ry="2.5" style="stroke:#181818;stroke-width:0.5;" width="60" x="56.5" y="7"/><rect fill="#F1F1F1" height="10" style="stroke:#181818;stroke-width:0.5;" width="15" x="96.5" y="12"/><rect fill="#F1F1F1" height="2" style="stroke:#181818;stroke-width:0.5;" width="4" x="94.5" y="14"/><rect fill="#F1F1F1" height="2" style="stroke:#181818;stroke-width:0.5;" width="4" x="94.5" y="18"/><text fill="#000000" font-family="sans-serif" font-size="14" lengthAdjust="spacing" textLength="20" x="71.5" y="39.9951">dsl</text></g><!--entity comm--><g id="elem_comm"><rect fill="#F1F1F1" height="46.2969" rx="2.5" ry="2.5" style="stroke:#181818;stroke-width:0.5;" width="151" x="201" y="150"/><rect fill="#F1F1F1" height="10" style="stroke:#181818;stroke-width:0.5;" width="15" x="332" y="155"/><rect fill="#F1F1F1" height="2" style="stroke:#181818;stroke-width:0.5;" width="4" x="330" y="157"/><rect fill="#F1F1F1" height="2" style="stroke:#181818;stroke-width:0.5;" width="4" x="330" y="161"/><text fill="#000000" font-family="sans-serif" font-size="14" lengthAdjust="spacing" textLength="111" x="216" y="182.9951">communication</text></g><!--entity compref--><g id="elem_compref"><rect fill="#F1F1F1" height="46.2969" rx="2.5" ry="2.5" style="stroke:#181818;stroke-width:0.5;" width="145" x="221" y="7"/><rect fill="#F1F1F1" height="10" style="stroke:#181818;stroke-width:0.5;" width="15" x="346" y="12"/><rect fill="#F1F1F1" height="2" style="stroke:#181818;stroke-width:0.5;" width="4" x="344" y="14"/><rect fill="#F1F1F1" height="2" style="stroke:#181818;stroke-width:0.5;" width="4" x="344" y="18"/><text fill="#000000" font-family="sans-serif" font-size="14" lengthAdjust="spacing" textLength="105" x="236" y="39.9951">componentref</text></g><!--entity context--><g id="elem_context"><rect fill="#F1F1F1" height="46.2969" rx="2.5" ry="2.5" style="stroke:#181818;stroke-width:0.5;" width="97" x="7" y="150"/><rect fill="#F1F1F1" height="10" style="stroke:#181818;stroke-width:0.5;" width="15" x="84" y="155"/><rect fill="#F1F1F1" height="2" style="stroke:#181818;stroke-width:0.5;" width="4" x="82" y="157"/><rect fill="#F1F1F1" height="2" style="stroke:#181818;stroke-width:0.5;" width="4" x="82" y="161"/><text fill="#000000" font-family="sans-serif" font-size="14" lengthAdjust="spacing" textLength="57" x="22" y="182.9951">context</text></g><!--link compref to comm--><g id="link_compref_comm"><path d="M290.844,53.031 C287.867,77.72 283.037,117.7779 279.816,144.5 " fill="none" id="compref-to-comm" style="stroke:#181818;stroke-width:1.0;"/><polygon fill="#181818" points="279.194,149.6581,284.2426,141.2017,279.7925,144.6941,276.3001,140.244,279.194,149.6581" style="stroke:#181818;stroke-width:1.0;"/><text fill="#000000" font-family="sans-serif" font-size="13" lengthAdjust="spacing" textLength="23" x="286.5" y="106.0669">use</text></g><!--link dsl to context--><g id="link_dsl_context"><path d="M64.652,53.102 C55.2805,64.124 45.3783,78.238 40.5,93 C34.951,109.7918 38.5668,129.3097 43.6359,144.7439 " fill="none" id="dsl-to-context" style="stroke:#181818;stroke-width:1.0;"/><polygon fill="#181818" points="45.3996,149.8117,46.2189,139.997,43.756,145.0896,38.6635,142.6267,45.3996,149.8117" style="stroke:#181818;stroke-width:1.0;"/><text fill="#000000" font-family="sans-serif" font-size="13" lengthAdjust="spacing" textLength="23" x="41.5" y="106.0669">use</text></g><!--link dsl to comm--><g id="link_dsl_comm"><path d="M116.188,53.031 C150.387,78.411 206.475,120.0344 242.426,146.7138 " fill="none" id="dsl-to-comm" style="stroke:#181818;stroke-width:1.0;"/><polygon fill="#181818" points="246.708,149.8912,241.8649,141.3154,242.693,146.9113,237.0971,147.7394,246.708,149.8912" style="stroke:#181818;stroke-width:1.0;"/><text fill="#000000" font-family="sans-serif" font-size="13" lengthAdjust="spacing" textLength="41" x="194.5" y="106.0669">create</text></g><!--link dsl to compref--><g id="link_dsl_compref"><path d="M116.6,30 C142.57,30 181.244,30 215.814,30 " fill="none" id="dsl-to-compref" style="stroke:#181818;stroke-width:1.0;"/><polygon fill="#181818" points="220.882,30,211.882,26,215.882,30,211.882,34,220.882,30" style="stroke:#181818;stroke-width:1.0;"/><text fill="#000000" font-family="sans-serif" font-size="13" lengthAdjust="spacing" textLength="23" x="157.25" y="23.0669">use</text></g><!--SRC=[POv13W8X34NtdA8NcCIbSU55Z8iATIGZBO5Eul5b2YQZhlhp-lf19OCAt4HL4eHOo6iKTdM9dB5W0fP0bJ8S3pjOa9S1dPUKXOaLBg4-hu0LsjpZ5jFAqUDMRS96VemU2zq_Gcxvss6bbuwrvVvuys2QpbOA9rWhkVQ1WSpxeoRwGgY3bZW_jA-ipmxU]--></g></svg>