<?xml version="1.0" encoding="UTF-8" standalone="no"?><svg xmlns="http://www.w3.org/2000/svg" xmlns:xlink="http://www.w3.org/1999/xlink" contentStyleType="text/css" height="592px" preserveAspectRatio="none" style="width:280px;height:592px;background:#FFFFFF;" version="1.1" viewBox="0 0 280 592" width="280px" zoomAndPan="magnify"><defs/><g><ellipse cx="140" cy="20" fill="#222222" rx="10" ry="10" style="stroke:#222222;stroke-width:1.0;"/><rect fill="#F1F1F1" height="33.9688" rx="12.5" ry="12.5" style="stroke:#181818;stroke-width:0.5;" width="238" x="21" y="50"/><text fill="#000000" font-family="sans-serif" font-size="12" lengthAdjust="spacing" textLength="218" x="31" y="71.1387">Setup dependency injection module</text><rect fill="#F1F1F1" height="33.9688" rx="12.5" ry="12.5" style="stroke:#181818;stroke-width:0.5;" width="139" x="70.5" y="103.9688"/><text fill="#000000" font-family="sans-serif" font-size="12" lengthAdjust="spacing" textLength="119" x="80.5" y="125.1074">Check configuration</text><rect fill="#F1F1F1" height="33.9688" rx="12.5" ry="12.5" style="stroke:#181818;stroke-width:0.5;" width="134" x="73" y="206.3398"/><text fill="#000000" font-family="sans-serif" font-size="12" lengthAdjust="spacing" textLength="114" x="83" y="227.4785">Raise an exception</text><ellipse cx="140" cy="277.8242" fill="none" rx="10" ry="10" style="stroke:#222222;stroke-width:1.5;"/><line style="stroke:#222222;stroke-width:2.5;" x1="133.8128" x2="146.1872" y1="271.637" y2="284.0114"/><line style="stroke:#222222;stroke-width:2.5;" x1="146.1872" x2="133.8128" y1="271.637" y2="284.0114"/><polygon fill="#F1F1F1" points="77.5,157.9375,202.5,157.9375,214.5,169.9375,202.5,181.9375,77.5,181.9375,65.5,169.9375,77.5,157.9375" style="stroke:#181818;stroke-width:0.5;"/><text fill="#000000" font-family="sans-serif" font-size="11" lengthAdjust="spacing" textLength="14" x="144" y="192.1479">no</text><text fill="#000000" font-family="sans-serif" font-size="11" lengthAdjust="spacing" textLength="125" x="77.5" y="173.7456">Configuration is valid?</text><text fill="#000000" font-family="sans-serif" font-size="11" lengthAdjust="spacing" textLength="21" x="214.5" y="167.3433">yes</text><rect fill="#F1F1F1" height="47.9375" rx="12.5" ry="12.5" style="stroke:#181818;stroke-width:0.5;" width="221" x="29.5" y="329.8242"/><text fill="#000000" font-family="sans-serif" font-size="12" lengthAdjust="spacing" textLength="185" x="39.5" y="350.9629">Setup components references</text><text fill="#000000" font-family="sans-serif" font-size="12" lengthAdjust="spacing" textLength="201" x="39.5" y="364.9316">with communicators and bindings</text><rect fill="#F1F1F1" height="33.9688" rx="12.5" ry="12.5" style="stroke:#181818;stroke-width:0.5;" width="248" x="16" y="397.7617"/><text fill="#000000" font-family="sans-serif" font-size="12" lengthAdjust="spacing" textLength="228" x="26" y="418.9004">Lauch coroutines for each component</text><rect fill="#F1F1F1" height="33.9688" rx="12.5" ry="12.5" style="stroke:#181818;stroke-width:0.5;" width="258" x="11" y="451.7305"/><text fill="#000000" font-family="sans-serif" font-size="12" lengthAdjust="spacing" textLength="238" x="21" y="472.8691">Save a reference to each coroutine job</text><rect fill="#F1F1F1" height="33.9688" rx="12.5" ry="12.5" style="stroke:#181818;stroke-width:0.5;" width="125" x="77.5" y="505.6992"/><text fill="#000000" font-family="sans-serif" font-size="12" lengthAdjust="spacing" textLength="105" x="87.5" y="526.8379">Start the platform</text><ellipse cx="140" cy="570.668" fill="none" rx="11" ry="11" style="stroke:#222222;stroke-width:1.0;"/><ellipse cx="140" cy="570.668" fill="#222222" rx="6" ry="6" style="stroke:#111111;stroke-width:1.0;"/><line style="stroke:#181818;stroke-width:1.0;" x1="140" x2="140" y1="30" y2="50"/><polygon fill="#181818" points="136,40,140,50,144,40,140,44" style="stroke:#181818;stroke-width:1.0;"/><line style="stroke:#181818;stroke-width:1.0;" x1="140" x2="140" y1="83.9688" y2="103.9688"/><polygon fill="#181818" points="136,93.9688,140,103.9688,144,93.9688,140,97.9688" style="stroke:#181818;stroke-width:1.0;"/><line style="stroke:#181818;stroke-width:1.0;" x1="140" x2="140" y1="240.3086" y2="267.8242"/><polygon fill="#181818" points="136,257.8242,140,267.8242,144,257.8242,140,261.8242" style="stroke:#181818;stroke-width:1.0;"/><line style="stroke:#181818;stroke-width:1.0;" x1="140" x2="140" y1="181.9375" y2="206.3398"/><polygon fill="#181818" points="136,196.3398,140,206.3398,144,196.3398,140,200.3398" style="stroke:#181818;stroke-width:1.0;"/><line style="stroke:#181818;stroke-width:1.0;" x1="214.5" x2="226.5" y1="169.9375" y2="169.9375"/><polygon fill="#181818" points="222.5,237.8242,226.5,247.8242,230.5,237.8242,226.5,241.8242" style="stroke:#181818;stroke-width:1.0;"/><line style="stroke:#181818;stroke-width:1.0;" x1="226.5" x2="226.5" y1="169.9375" y2="309.8242"/><line style="stroke:#181818;stroke-width:1.0;" x1="226.5" x2="140" y1="309.8242" y2="309.8242"/><line style="stroke:#181818;stroke-width:1.0;" x1="140" x2="140" y1="309.8242" y2="329.8242"/><polygon fill="#181818" points="136,319.8242,140,329.8242,144,319.8242,140,323.8242" style="stroke:#181818;stroke-width:1.0;"/><line style="stroke:#181818;stroke-width:1.0;" x1="140" x2="140" y1="137.9375" y2="157.9375"/><polygon fill="#181818" points="136,147.9375,140,157.9375,144,147.9375,140,151.9375" style="stroke:#181818;stroke-width:1.0;"/><line style="stroke:#181818;stroke-width:1.0;" x1="140" x2="140" y1="377.7617" y2="397.7617"/><polygon fill="#181818" points="136,387.7617,140,397.7617,144,387.7617,140,391.7617" style="stroke:#181818;stroke-width:1.0;"/><line style="stroke:#181818;stroke-width:1.0;" x1="140" x2="140" y1="431.7305" y2="451.7305"/><polygon fill="#181818" points="136,441.7305,140,451.7305,144,441.7305,140,445.7305" style="stroke:#181818;stroke-width:1.0;"/><line style="stroke:#181818;stroke-width:1.0;" x1="140" x2="140" y1="485.6992" y2="505.6992"/><polygon fill="#181818" points="136,495.6992,140,505.6992,144,495.6992,140,499.6992" style="stroke:#181818;stroke-width:1.0;"/><line style="stroke:#181818;stroke-width:1.0;" x1="140" x2="140" y1="539.668" y2="559.668"/><polygon fill="#181818" points="136,549.668,140,559.668,144,549.668,140,553.668" style="stroke:#181818;stroke-width:1.0;"/><!--SRC=[JL2xKiD03EplAqHd_u9Tf4Z531MPeQ9HpZfRmPPkxdI1_3qoX4SfxKExUiW5vmsXLNgXOXnnVKoW4gfXiH264rdBC54ccKZY3LWk58rLODEfhJI6uRXGV8EeadXk1NTm39oWE_vV0LUuuihJeGTRIA0JxGF0y8nS2L20FYBbRpM0tmkqEj3TgFR1Hqw_UQ9kMON4AXHAL3mPrLTvPrjsR6lYJKnBTTi9pknYcQj7VS8MTqhHPYnK8Ma1mg_TtT9P9xnwe3zhCFqXtOLmqVDEtB-qju6yehdNDlhdD7y2]--></g></svg>