<?xml version="1.0" encoding="UTF-8" standalone="no"?><svg xmlns="http://www.w3.org/2000/svg" xmlns:xlink="http://www.w3.org/1999/xlink" contentStyleType="text/css" height="265px" preserveAspectRatio="none" style="width:558px;height:265px;background:#FFFFFF;" version="1.1" viewBox="0 0 558 265" width="558px" zoomAndPan="magnify"><defs/><g><path d="M501.5,24 L534.5,24 A3.75,3.75 0 0 1 537,26.5 L544,46.2969 L548.5,46.2969 A2.5,2.5 0 0 1 551,48.7969 L551,74.0938 A2.5,2.5 0 0 1 548.5,76.5938 L501.5,76.5938 A2.5,2.5 0 0 1 499,74.0938 L499,26.5 A2.5,2.5 0 0 1 501.5,24 " fill="#F1F1F1" style="stroke:#181818;stroke-width:0.5;"/><line style="stroke:#181818;stroke-width:0.5;" x1="499" x2="544" y1="46.2969" y2="46.2969"/><text fill="#000000" font-family="sans-serif" font-size="14" lengthAdjust="spacing" textLength="32" x="503" y="38.9951">core</text><!--class comm--><g id="elem_comm"><rect codeLine="5" fill="#F1F1F1" height="80.5938" id="comm" rx="2.5" ry="2.5" style="stroke:#181818;stroke-width:0.5;" width="150" x="289" y="178"/><ellipse cx="304.45" cy="194" fill="#B4A7E5" rx="11" ry="11" style="stroke:#181818;stroke-width:1.0;"/><path d="M305.4031,190.7813 L307.1219,190.7813 C307.5125,190.7813 307.7,190.75 307.825,190.6719 C308.0906,190.5156 308.2313,190.2344 308.2313,189.9375 C308.2313,189.6719 308.1219,189.4063 307.8875,189.2344 C307.7156,189.125 307.575,189.0938 307.1219,189.0938 L301.9813,189.0938 C301.5438,189.0938 301.4188,189.1094 301.2625,189.2031 C301.0125,189.3594 300.8563,189.6563 300.8563,189.9375 C300.8563,190.2188 300.9969,190.4688 301.2156,190.6406 C301.3719,190.75 301.5594,190.7813 301.9813,190.7813 L303.7,190.7813 L303.7,197.2969 L301.9813,197.2969 C301.5438,197.2969 301.4188,197.3125 301.2625,197.4219 C301.0125,197.5781 300.8563,197.8594 300.8563,198.1563 C300.8563,198.4063 300.9969,198.6719 301.2156,198.8281 C301.3719,198.9531 301.575,199 301.9813,199 L307.1219,199 C307.8719,199 308.2313,198.7188 308.2313,198.1563 C308.2313,197.875 308.1219,197.625 307.8875,197.4531 C307.7156,197.3281 307.575,197.2969 307.1219,197.2969 L305.4031,197.2969 L305.4031,190.7813 Z " fill="#000000"/><text fill="#000000" font-family="sans-serif" font-size="14" font-style="italic" lengthAdjust="spacing" textLength="106" x="318.55" y="198.8467">Communicator</text><rect fill="#FFFFFF" height="15.9688" style="stroke:#181818;stroke-width:1.0;stroke-dasharray:2.0,2.0;" width="9" x="433" y="175"/><text fill="#000000" font-family="sans-serif" font-size="12" font-style="italic" lengthAdjust="spacing" textLength="7" x="434" y="187.1387">T</text><line style="stroke:#181818;stroke-width:0.5;" x1="290" x2="438" y1="210" y2="210"/><line style="stroke:#181818;stroke-width:0.5;" x1="290" x2="438" y1="218" y2="218"/><ellipse cx="300" cy="231.6484" fill="#84BE84" rx="3" ry="3" style="stroke:#038048;stroke-width:1.0;"/><text fill="#000000" font-family="sans-serif" font-size="14" lengthAdjust="spacing" textLength="96" x="309" y="234.9951">fireMessage()</text><ellipse cx="300" cy="247.9453" fill="#84BE84" rx="3" ry="3" style="stroke:#038048;stroke-width:1.0;"/><text fill="#000000" font-family="sans-serif" font-size="14" lengthAdjust="spacing" textLength="124" x="309" y="251.292">receiveMessage()</text></g><!--class cr--><g id="elem_cr"><rect codeLine="10" fill="#F1F1F1" height="80.5938" id="cr" rx="2.5" ry="2.5" style="stroke:#181818;stroke-width:0.5;" width="212" x="7" y="178"/><ellipse cx="49.9" cy="194" fill="#B4A7E5" rx="11" ry="11" style="stroke:#181818;stroke-width:1.0;"/><path d="M50.8531,190.7813 L52.5719,190.7813 C52.9625,190.7813 53.15,190.75 53.275,190.6719 C53.5406,190.5156 53.6813,190.2344 53.6813,189.9375 C53.6813,189.6719 53.5719,189.4063 53.3375,189.2344 C53.1656,189.125 53.025,189.0938 52.5719,189.0938 L47.4313,189.0938 C46.9938,189.0938 46.8688,189.1094 46.7125,189.2031 C46.4625,189.3594 46.3063,189.6563 46.3063,189.9375 C46.3063,190.2188 46.4469,190.4688 46.6656,190.6406 C46.8219,190.75 47.0094,190.7813 47.4313,190.7813 L49.15,190.7813 L49.15,197.2969 L47.4313,197.2969 C46.9938,197.2969 46.8688,197.3125 46.7125,197.4219 C46.4625,197.5781 46.3063,197.8594 46.3063,198.1563 C46.3063,198.4063 46.4469,198.6719 46.6656,198.8281 C46.8219,198.9531 47.025,199 47.4313,199 L52.5719,199 C53.3219,199 53.6813,198.7188 53.6813,198.1563 C53.6813,197.875 53.5719,197.625 53.3375,197.4531 C53.1656,197.3281 53.025,197.2969 52.5719,197.2969 L50.8531,197.2969 L50.8531,190.7813 Z " fill="#000000"/><text fill="#000000" font-family="sans-serif" font-size="14" font-style="italic" lengthAdjust="spacing" textLength="107" x="70.1" y="198.8467">ComponentRef</text><rect fill="#FFFFFF" height="15.9688" style="stroke:#181818;stroke-width:1.0;stroke-dasharray:2.0,2.0;" width="9" x="213" y="175"/><text fill="#000000" font-family="sans-serif" font-size="12" font-style="italic" lengthAdjust="spacing" textLength="7" x="214" y="187.1387">T</text><line style="stroke:#181818;stroke-width:0.5;" x1="8" x2="218" y1="210" y2="210"/><line style="stroke:#181818;stroke-width:0.5;" x1="8" x2="218" y1="218" y2="218"/><ellipse cx="18" cy="231.6484" fill="#84BE84" rx="3" ry="3" style="stroke:#038048;stroke-width:1.0;"/><text fill="#000000" font-family="sans-serif" font-size="14" lengthAdjust="spacing" textLength="148" x="27" y="234.9951">sendToComponent()</text><ellipse cx="18" cy="247.9453" fill="#84BE84" rx="3" ry="3" style="stroke:#038048;stroke-width:1.0;"/><text fill="#000000" font-family="sans-serif" font-size="14" lengthAdjust="spacing" textLength="186" x="27" y="251.292">receiveFromComponent()</text></g><!--class pps--><g id="elem_pps"><rect codeLine="15" fill="#F1F1F1" height="80.5938" id="pps" rx="2.5" ry="2.5" style="stroke:#181818;stroke-width:0.5;" width="319" x="78.5" y="10"/><ellipse cx="93.5" cy="26" fill="#B4A7E5" rx="11" ry="11" style="stroke:#181818;stroke-width:1.0;"/><path d="M94.4531,22.7813 L96.1719,22.7813 C96.5625,22.7813 96.75,22.75 96.875,22.6719 C97.1406,22.5156 97.2813,22.2344 97.2813,21.9375 C97.2813,21.6719 97.1719,21.4063 96.9375,21.2344 C96.7656,21.125 96.625,21.0938 96.1719,21.0938 L91.0313,21.0938 C90.5938,21.0938 90.4688,21.1094 90.3125,21.2031 C90.0625,21.3594 89.9063,21.6563 89.9063,21.9375 C89.9063,22.2188 90.0469,22.4688 90.2656,22.6406 C90.4219,22.75 90.6094,22.7813 91.0313,22.7813 L92.75,22.7813 L92.75,29.2969 L91.0313,29.2969 C90.5938,29.2969 90.4688,29.3125 90.3125,29.4219 C90.0625,29.5781 89.9063,29.8594 89.9063,30.1563 C89.9063,30.4063 90.0469,30.6719 90.2656,30.8281 C90.4219,30.9531 90.625,31 91.0313,31 L96.1719,31 C96.9219,31 97.2813,30.7188 97.2813,30.1563 C97.2813,29.875 97.1719,29.625 96.9375,29.4531 C96.7656,29.3281 96.625,29.2969 96.1719,29.2969 L94.4531,29.2969 L94.4531,22.7813 Z " fill="#000000"/><text fill="#000000" font-family="sans-serif" font-size="14" font-style="italic" lengthAdjust="spacing" textLength="195" x="107.5" y="30.8467">PulverizationPlatformScope</text><rect fill="#FFFFFF" height="15.9688" style="stroke:#181818;stroke-width:1.0;stroke-dasharray:2.0,2.0;" width="90" x="310.5" y="7"/><text fill="#000000" font-family="sans-serif" font-size="12" font-style="italic" lengthAdjust="spacing" textLength="88" x="311.5" y="19.1387">S, C, SS, AS, R</text><line style="stroke:#181818;stroke-width:0.5;" x1="79.5" x2="396.5" y1="42" y2="42"/><line style="stroke:#181818;stroke-width:0.5;" x1="79.5" x2="396.5" y1="50" y2="50"/><ellipse cx="89.5" cy="63.6484" fill="#84BE84" rx="3" ry="3" style="stroke:#038048;stroke-width:1.0;"/><text fill="#000000" font-family="sans-serif" font-size="14" lengthAdjust="spacing" textLength="45" x="98.5" y="66.9951">start()</text><ellipse cx="89.5" cy="79.9453" fill="#84BE84" rx="3" ry="3" style="stroke:#038048;stroke-width:1.0;"/><text fill="#000000" font-family="sans-serif" font-size="14" lengthAdjust="spacing" textLength="43" x="98.5" y="83.292">stop()</text></g><!--link pps to cr--><g id="link_pps_cr"><path codeLine="23" d="M208.059,91.261 C188.341,117.447 162.625,151.598 142.913,177.776 " fill="none" id="pps-cr" style="stroke:#181818;stroke-width:1.0;"/><polygon fill="#000000" points="181.9923,138.5606,189.781,133.1029,185.0855,129.5671,181.9923,138.5606" style="stroke:#000000;stroke-width:1.0;"/><text fill="#000000" font-family="sans-serif" font-size="13" lengthAdjust="spacing" textLength="30" x="194" y="139.0669">uses</text></g><!--link pps to comm--><g id="link_pps_comm"><path codeLine="24" d="M268.18,91.261 C288.056,117.447 313.978,151.598 333.848,177.776 " fill="none" id="pps-comm" style="stroke:#181818;stroke-width:1.0;"/><polygon fill="#000000" points="313.023,138.5491,309.8953,129.5675,305.2134,133.1212,313.023,138.5491" style="stroke:#000000;stroke-width:1.0;"/><text fill="#000000" font-family="sans-serif" font-size="13" lengthAdjust="spacing" textLength="48" x="319" y="139.0669">creates</text></g><!--reverse link cr to comm--><g id="link_cr_comm"><path codeLine="25" d="M232.409,218.5 C251.228,218.5 270.047,218.5 288.866,218.5 " fill="none" id="cr-backto-comm" style="stroke:#181818;stroke-width:1.0;"/><polygon fill="#181818" points="219.381,218.5,225.381,222.5,231.381,218.5,225.381,214.5,219.381,218.5" style="stroke:#181818;stroke-width:1.0;"/><text fill="#000000" font-family="sans-serif" font-size="13" lengthAdjust="spacing" textLength="8" x="273.0762" y="214.8551">1</text></g><!--link pps to core--><g id="link_pps_core"><path codeLine="26" d="M397.864,50.5 C437.25,50.5 474.969,50.5 498.946,50.5 " fill="none" id="pps-core" style="stroke:#181818;stroke-width:1.0;"/><text fill="#000000" font-family="sans-serif" font-size="13" lengthAdjust="spacing" textLength="30" x="433.25" y="43.5669">uses</text></g><!--SRC=[NP3FQiCm38VlUGgHq_uqi9q6fHH6ORT1QVe2cgDq9hLbPAM7ZRxxx2GDwGx6y4d-VfAL0oZ35wkoWyOA6RNiYzXP7r3GWUU68WLuUrb0GTzDiB1UILeq1EMEdUkzDQWic-Es18nW4eFV0k0PsgJ_f1ZnH0-F0qbnP2yBUFtl2-p9wu7QsIUJBP9lZZott1i_XDsoT8KxyRu_NqZi3-PbzsVKbiNLXWDjwXNiLb2dwpsTmnWQGhobAiejAog7SUQ0faiBG6bOQ5fRA3t9jVIsglBSQ-WZHTZEA7_DEbK8TU2fvwaIU_hM2ihNScWOcoUOhQFb3m00]--></g></svg>