<?xml version="1.0" encoding="UTF-8" standalone="no"?><svg xmlns="http://www.w3.org/2000/svg" xmlns:xlink="http://www.w3.org/1999/xlink" contentStyleType="text/css" height="555px" preserveAspectRatio="none" style="width:268px;height:555px;background:#FFFFFF;" version="1.1" viewBox="0 0 268 555" width="268px" zoomAndPan="magnify"><defs/><g><ellipse cx="134" cy="20" fill="#222222" rx="10" ry="10" style="stroke:#222222;stroke-width:1.0;"/><rect fill="#F1F1F1" height="36.3441" rx="12.5" ry="12.5" style="stroke:#181818;stroke-width:0.5;" width="218" x="25" y="50"/><text fill="#000000" font-family="sans-serif" font-size="12" lengthAdjust="spacing" textLength="198" x="35" y="72.8281">Setup dependency injection module</text><rect fill="#F1F1F1" height="36.3441" rx="12.5" ry="12.5" style="stroke:#181818;stroke-width:0.5;" width="131" x="68.5" y="106.3441"/><text fill="#000000" font-family="sans-serif" font-size="12" lengthAdjust="spacing" textLength="111" x="78.5" y="129.1722">Check configuration</text><rect fill="#F1F1F1" height="36.3441" rx="12.5" ry="12.5" style="stroke:#181818;stroke-width:0.5;" width="107" x="80.5" y="212.1792"/><text fill="#000000" font-family="sans-serif" font-size="12" lengthAdjust="spacing" textLength="87" x="90.5" y="235.0073">Raise exception</text><ellipse cx="134" cy="284.8512" fill="none" rx="10" ry="10" style="stroke:#222222;stroke-width:1.5;"/><line style="stroke:#222222;stroke-width:2.5;" x1="127.8128" x2="140.1872" y1="278.664" y2="291.0384"/><line style="stroke:#222222;stroke-width:2.5;" x1="140.1872" x2="127.8128" y1="278.664" y2="291.0384"/><polygon fill="#F1F1F1" points="75,162.6882,193,162.6882,205,174.6882,193,186.6882,75,186.6882,63,174.6882,75,162.6882" style="stroke:#181818;stroke-width:0.5;"/><text fill="#000000" font-family="sans-serif" font-size="11" lengthAdjust="spacing" textLength="14" x="138" y="198.4471">no</text><text fill="#000000" font-family="sans-serif" font-size="11" lengthAdjust="spacing" textLength="118" x="75" y="178.9562">Configuration is valid?</text><text fill="#000000" font-family="sans-serif" font-size="11" lengthAdjust="spacing" textLength="17" x="205" y="171.4653">yes</text><rect fill="#F1F1F1" height="52.6882" rx="12.5" ry="12.5" style="stroke:#181818;stroke-width:0.5;" width="207" x="30.5" y="336.8512"/><text fill="#000000" font-family="sans-serif" font-size="12" lengthAdjust="spacing" textLength="168" x="40.5" y="359.6793">Setup components references</text><text fill="#000000" font-family="sans-serif" font-size="12" lengthAdjust="spacing" textLength="187" x="40.5" y="376.0234">with communicators and bindings</text><rect fill="#F1F1F1" height="36.3441" rx="12.5" ry="12.5" style="stroke:#181818;stroke-width:0.5;" width="237" x="15.5" y="409.5395"/><text fill="#000000" font-family="sans-serif" font-size="12" lengthAdjust="spacing" textLength="217" x="25.5" y="432.3675">Launch coroutines for each component</text><rect fill="#F1F1F1" height="36.3441" rx="12.5" ry="12.5" style="stroke:#181818;stroke-width:0.5;" width="246" x="11" y="465.8836"/><text fill="#000000" font-family="sans-serif" font-size="12" lengthAdjust="spacing" textLength="226" x="21" y="488.7117">Save the reference to each coroutine job</text><ellipse cx="134" cy="533.2277" fill="none" rx="11" ry="11" style="stroke:#222222;stroke-width:1.0;"/><ellipse cx="134" cy="533.2277" fill="#222222" rx="6" ry="6" style="stroke:#111111;stroke-width:1.0;"/><line style="stroke:#181818;stroke-width:1.0;" x1="134" x2="134" y1="30" y2="50"/><polygon fill="#181818" points="130,40,134,50,138,40,134,44" style="stroke:#181818;stroke-width:1.0;"/><line style="stroke:#181818;stroke-width:1.0;" x1="134" x2="134" y1="86.3441" y2="106.3441"/><polygon fill="#181818" points="130,96.3441,134,106.3441,138,96.3441,134,100.3441" style="stroke:#181818;stroke-width:1.0;"/><line style="stroke:#181818;stroke-width:1.0;" x1="134" x2="134" y1="248.5233" y2="274.8512"/><polygon fill="#181818" points="130,264.8512,134,274.8512,138,264.8512,134,268.8512" style="stroke:#181818;stroke-width:1.0;"/><line style="stroke:#181818;stroke-width:1.0;" x1="134" x2="134" y1="186.6882" y2="212.1792"/><polygon fill="#181818" points="130,202.1792,134,212.1792,138,202.1792,134,206.1792" style="stroke:#181818;stroke-width:1.0;"/><line style="stroke:#181818;stroke-width:1.0;" x1="205" x2="217" y1="174.6882" y2="174.6882"/><polygon fill="#181818" points="213,244.8512,217,254.8512,221,244.8512,217,248.8512" style="stroke:#181818;stroke-width:1.0;"/><line style="stroke:#181818;stroke-width:1.0;" x1="217" x2="217" y1="174.6882" y2="316.8512"/><line style="stroke:#181818;stroke-width:1.0;" x1="217" x2="134" y1="316.8512" y2="316.8512"/><line style="stroke:#181818;stroke-width:1.0;" x1="134" x2="134" y1="316.8512" y2="336.8512"/><polygon fill="#181818" points="130,326.8512,134,336.8512,138,326.8512,134,330.8512" style="stroke:#181818;stroke-width:1.0;"/><line style="stroke:#181818;stroke-width:1.0;" x1="134" x2="134" y1="142.6882" y2="162.6882"/><polygon fill="#181818" points="130,152.6882,134,162.6882,138,152.6882,134,156.6882" style="stroke:#181818;stroke-width:1.0;"/><line style="stroke:#181818;stroke-width:1.0;" x1="134" x2="134" y1="389.5395" y2="409.5395"/><polygon fill="#181818" points="130,399.5395,134,409.5395,138,399.5395,134,403.5395" style="stroke:#181818;stroke-width:1.0;"/><line style="stroke:#181818;stroke-width:1.0;" x1="134" x2="134" y1="445.8836" y2="465.8836"/><polygon fill="#181818" points="130,455.8836,134,465.8836,138,455.8836,134,459.8836" style="stroke:#181818;stroke-width:1.0;"/><line style="stroke:#181818;stroke-width:1.0;" x1="134" x2="134" y1="502.2277" y2="522.2277"/><polygon fill="#181818" points="130,512.2277,134,522.2277,138,512.2277,134,516.2277" style="stroke:#181818;stroke-width:1.0;"/><!--MD5=[a2f086327d06ee268b903316e67ba783]
@startuml platform-setup-sequence
start

:Setup dependency injection module;
:Check configuration;
if (Configuration is valid?) then (no)
  :Raise exception;
  end
else (yes)
endif

:Setup components references\nwith communicators and bindings;
:Launch coroutines for each component;
:Save the reference to each coroutine job;
stop
@enduml

PlantUML version 1.2022.7(Mon Aug 22 19:01:30 CEST 2022)
(GPL source distribution)
Java Runtime: OpenJDK Runtime Environment
JVM: OpenJDK 64-Bit Server VM
Default Encoding: ANSI_X3.4-1968
Language: en
Country: US
--></g></svg>