<?xml version="1.0" encoding="UTF-8" standalone="no"?><svg xmlns="http://www.w3.org/2000/svg" xmlns:xlink="http://www.w3.org/1999/xlink" contentStyleType="text/css" height="313px" preserveAspectRatio="none" style="width:741px;height:313px;background:#FFFFFF;" version="1.1" viewBox="0 0 741 313" width="741px" zoomAndPan="magnify"><defs/><g><!--entity bh--><g id="elem_bh"><rect fill="#F1F1F1" height="46.2969" rx="2.5" ry="2.5" style="stroke:#181818;stroke-width:0.5;" width="111" x="557.0834" y="261"/><rect fill="#F1F1F1" height="10" style="stroke:#181818;stroke-width:0.5;" width="15" x="648.0834" y="266"/><rect fill="#F1F1F1" height="2" style="stroke:#181818;stroke-width:0.5;" width="4" x="646.0834" y="268"/><rect fill="#F1F1F1" height="2" style="stroke:#181818;stroke-width:0.5;" width="4" x="646.0834" y="272"/><text fill="#000000" font-family="sans-serif" font-size="14" lengthAdjust="spacing" textLength="71" x="572.0834" y="293.9951">Behaviour</text></g><!--entity st--><g id="elem_st"><rect fill="#F1F1F1" height="46.2969" rx="2.5" ry="2.5" style="stroke:#181818;stroke-width:0.5;" width="80" x="48.5829" y="261"/><rect fill="#F1F1F1" height="10" style="stroke:#181818;stroke-width:0.5;" width="15" x="108.5829" y="266"/><rect fill="#F1F1F1" height="2" style="stroke:#181818;stroke-width:0.5;" width="4" x="106.5829" y="268"/><rect fill="#F1F1F1" height="2" style="stroke:#181818;stroke-width:0.5;" width="4" x="106.5829" y="272"/><text fill="#000000" font-family="sans-serif" font-size="14" lengthAdjust="spacing" textLength="40" x="63.5829" y="293.9951">State</text></g><!--entity exc--><g id="elem_exc"><rect fill="#F1F1F1" height="52.5938" rx="2.5" ry="2.5" style="stroke:#181818;stroke-width:0.5;" width="92" x="318.5834" y="7"/><text fill="#000000" font-family="sans-serif" font-size="14" lengthAdjust="spacing" textLength="72" x="328.5834" y="29.9951">RabbitMQ</text><text fill="#000000" font-family="sans-serif" font-size="14" lengthAdjust="spacing" textLength="69" x="328.5834" y="46.292">Exchange</text></g><!--entity q1--><g id="elem_q1"><path d="M185.5834,155 L325.5834,155 C330.5834,155 330.5834,168.1484 330.5834,168.1484 C330.5834,168.1484 330.5834,181.2969 325.5834,181.2969 L185.5834,181.2969 C180.5834,181.2969 180.5834,168.1484 180.5834,168.1484 C180.5834,168.1484 180.5834,155 185.5834,155 " fill="#F1F1F1" style="stroke:#181818;stroke-width:0.5;"/><path d="M325.5834,155 C320.5834,155 320.5834,168.1484 320.5834,168.1484 C320.5834,181.2969 325.5834,181.2969 325.5834,181.2969 " fill="none" style="stroke:#181818;stroke-width:0.5;"/><text fill="#000000" font-family="sans-serif" font-size="14" lengthAdjust="spacing" textLength="130" x="185.5834" y="172.9951">Behaviour/State/1</text></g><!--entity q2--><g id="elem_q2"><path d="M405.5834,155 L545.5834,155 C550.5834,155 550.5834,168.1484 550.5834,168.1484 C550.5834,168.1484 550.5834,181.2969 545.5834,181.2969 L405.5834,181.2969 C400.5834,181.2969 400.5834,168.1484 400.5834,168.1484 C400.5834,168.1484 400.5834,155 405.5834,155 " fill="#F1F1F1" style="stroke:#181818;stroke-width:0.5;"/><path d="M545.5834,155 C540.5834,155 540.5834,168.1484 540.5834,168.1484 C540.5834,181.2969 545.5834,181.2969 545.5834,181.2969 " fill="none" style="stroke:#181818;stroke-width:0.5;"/><text fill="#000000" font-family="sans-serif" font-size="14" lengthAdjust="spacing" textLength="130" x="405.5834" y="172.9951">State/Behaviour/1</text></g><!--link exc to q1--><g id="link_exc_q1"><path d="M318.3514,49.723 C298.9884,58.465 278.1094,71.473 265.5834,90 C253.6444,107.659 252.6384,132.88 253.6154,149.584 " fill="none" id="exc-to-q1" style="stroke:#181818;stroke-width:1.0;"/><polygon fill="#181818" points="254.0094,154.899,257.335,145.6286,253.6408,149.9126,249.3568,146.2184,254.0094,154.899" style="stroke:#181818;stroke-width:1.0;"/><text fill="#000000" font-family="sans-serif" font-size="13" lengthAdjust="spacing" textLength="52" x="297.0834" y="103.0669">Forward</text><line style="stroke:#181818;stroke-width:1.0;" x1="266.5834" x2="266.5834" y1="113.6992" y2="113.6992"/><text fill="#000000" font-family="sans-serif" font-size="13" lengthAdjust="spacing" textLength="113" x="266.5834" y="117.6997">1.state.behaviour</text><line style="stroke:#181818;stroke-width:1.0;" x1="379.5834" x2="379.5834" y1="113.6992" y2="113.6992"/></g><!--link exc to q2--><g id="link_exc_q2"><path d="M385.9844,60.047 C408.4034,86.808 442.9394,128.034 461.9204,150.691 " fill="none" id="exc-to-q2" style="stroke:#181818;stroke-width:1.0;"/><polygon fill="#181818" points="465.2774,154.698,462.5654,145.2299,462.0671,150.8648,456.4322,150.3664,465.2774,154.698" style="stroke:#181818;stroke-width:1.0;"/><text fill="#000000" font-family="sans-serif" font-size="13" lengthAdjust="spacing" textLength="52" x="468.0834" y="103.0669">Forward</text><line style="stroke:#181818;stroke-width:1.0;" x1="437.5834" x2="437.5834" y1="113.6992" y2="113.6992"/><text fill="#000000" font-family="sans-serif" font-size="13" lengthAdjust="spacing" textLength="113" x="437.5834" y="117.6997">1.behaviour.state</text><line style="stroke:#181818;stroke-width:1.0;" x1="550.5834" x2="550.5834" y1="113.6992" y2="113.6992"/></g><!--link q1 to st--><g id="link_q1_st"><path d="M237.7114,181.2 C210.9474,199.47 159.8844,234.3275 125.0414,258.1125 " fill="none" id="q1-to-st" style="stroke:#181818;stroke-width:1.0;stroke-dasharray:7.0,7.0;"/><polygon fill="#181818" points="120.875,260.9563,130.5636,259.1866,125.0048,258.1377,126.0537,252.5789,120.875,260.9563" style="stroke:#181818;stroke-width:1.0;"/><text fill="#000000" font-family="sans-serif" font-size="13" lengthAdjust="spacing" textLength="51" x="188.5834" y="227.0669">Receive</text></g><!--link q2 to bh--><g id="link_q2_bh"><path d="M490.2444,181.2 C512.0214,199.321 553.4104,233.7618 581.9744,257.5302 " fill="none" id="q2-to-bh" style="stroke:#181818;stroke-width:1.0;stroke-dasharray:7.0,7.0;"/><polygon fill="#181818" points="586.0914,260.9563,581.7304,252.1256,582.2475,257.7588,576.6143,258.2758,586.0914,260.9563" style="stroke:#181818;stroke-width:1.0;"/><text fill="#000000" font-family="sans-serif" font-size="13" lengthAdjust="spacing" textLength="51" x="549.5834" y="227.0669">Receive</text></g><!--reverse link exc to st--><g id="link_exc_st"><path d="M313.0564,35.401 C236.6014,39.858 95.2043,60.763 30.5829,152 C6,186.708 40.1369,233.4981 65.5161,260.7434 " fill="none" id="exc-backto-st" style="stroke:#181818;stroke-width:1.0;"/><polygon fill="#181818" points="318.4474,35.108,309.2425,31.6051,313.4548,35.3808,309.6791,39.5932,318.4474,35.108" style="stroke:#181818;stroke-width:1.0;"/><text fill="#000000" font-family="sans-serif" font-size="13" lengthAdjust="spacing" textLength="32" x="72.0829" y="165.0669">Send</text><line style="stroke:#181818;stroke-width:1.0;" x1="31.5829" x2="31.5829" y1="175.6992" y2="175.6992"/><text fill="#000000" font-family="sans-serif" font-size="13" lengthAdjust="spacing" textLength="113" x="31.5829" y="179.6997">1.behaviour.state</text><line style="stroke:#181818;stroke-width:1.0;" x1="144.5829" x2="144.5829" y1="175.6992" y2="175.6992"/></g><!--link bh to exc--><g id="link_bh_exc"><path d="M615.7154,260.7807 C616.8634,251.5844 618.0194,240.7985 618.5834,231 C622.4004,164.62 618.2814,134.17 568.5834,90 C526.3164,52.435 461.0394,39.983 415.7554,36.023 " fill="none" id="bh-to-exc" style="stroke:#181818;stroke-width:1.0;"/><polygon fill="#181818" points="410.6114,35.602,419.2558,40.3216,415.5948,36.0092,419.9073,32.3482,410.6114,35.602" style="stroke:#181818;stroke-width:1.0;"/><text fill="#000000" font-family="sans-serif" font-size="13" lengthAdjust="spacing" textLength="32" x="661.0834" y="165.0669">Send</text><line style="stroke:#181818;stroke-width:1.0;" x1="620.5834" x2="620.5834" y1="175.6992" y2="175.6992"/><text fill="#000000" font-family="sans-serif" font-size="13" lengthAdjust="spacing" textLength="113" x="620.5834" y="179.6997">1.state.behaviour</text><line style="stroke:#181818;stroke-width:1.0;" x1="733.5834" x2="733.5834" y1="175.6992" y2="175.6992"/></g><!--SRC=[TOynRy8m48Nt-nKdTWV2G2K61YJOEZIiBEVaH2B4ETXEuETpIHgQGhj-xtlFld2kf2PF5nHNSE0QFnOGdj2Jd3kuMa3kBhKJbeYpBPVKLgxnCwI0jfncXqYHUnuYqAbd6LbRnS-le-pkUKbo6WI-vt1jkE79uhplpzDUkAPZFj0VwpjV0kW8ciBTn6pKnpNkdR-HBuvYJ9g4hfVOiMVCRt_vwZ_DeQa-w6ZI-Sb6Br8_uvohba7B8xVbX8DQfgbrldjgZGUMVyUrQFuGttxz0000]--></g></svg>