<?xml version="1.0" encoding="UTF-8"?><svg xmlns="http://www.w3.org/2000/svg" xmlns:xlink="http://www.w3.org/1999/xlink" fill-opacity="1" color-rendering="auto" color-interpolation="auto" text-rendering="auto" stroke="black" stroke-linecap="square" width="1013" stroke-miterlimit="10" shape-rendering="auto" stroke-opacity="1" fill="black" stroke-dasharray="none" font-weight="normal" stroke-width="1" height="377" font-family="'Dialog'" font-style="normal" stroke-linejoin="miter" font-size="12px" stroke-dashoffset="0" image-rendering="auto">
  <!--Generated by ySVG 2.6-->
  <defs id="genericDefs"/>
  <g>
    <defs id="defs1">
      <clipPath clipPathUnits="userSpaceOnUse" id="clipPath1">
        <path d="M0 0 L1013 0 L1013 377 L0 377 L0 0 Z"/>
      </clipPath>
      <clipPath clipPathUnits="userSpaceOnUse" id="clipPath2">
        <path d="M242 234 L1255 234 L1255 611 L242 611 L242 234 Z"/>
      </clipPath>
    </defs>
    <g fill="white" text-rendering="geometricPrecision" shape-rendering="geometricPrecision" transform="translate(-242,-234)" stroke="white">
      <rect x="242" width="1013" height="377" y="234" clip-path="url(#clipPath2)" stroke="none"/>
    </g>
    <g fill="white" text-rendering="geometricPrecision" shape-rendering="geometricPrecision" transform="matrix(1,0,0,1,-242,-234)" stroke="white">
      <rect x="387.5" width="400" height="150" y="249.5" clip-path="url(#clipPath2)" stroke="none"/>
    </g>
    <g text-rendering="geometricPrecision" stroke-miterlimit="1.45" stroke-width="2" shape-rendering="geometricPrecision" transform="matrix(1,0,0,1,-242,-234)" stroke-linecap="butt">
      <rect fill="none" x="387.5" width="400" height="150" y="249.5" clip-path="url(#clipPath2)"/>
      <text x="408.0338" font-size="28px" y="333.1154" clip-path="url(#clipPath2)" font-family="'Fira Code'" stroke="none" stroke-width="1" xml:space="preserve">scalac</text>
    </g>
    <g fill="white" text-rendering="geometricPrecision" shape-rendering="geometricPrecision" transform="matrix(1,0,0,1,-242,-234)" stroke="white">
      <rect x="387.5" width="400" height="150" y="446" clip-path="url(#clipPath2)" stroke="none"/>
    </g>
    <g text-rendering="geometricPrecision" stroke-miterlimit="1.45" stroke-width="2" shape-rendering="geometricPrecision" transform="matrix(1,0,0,1,-242,-234)" stroke-linecap="butt">
      <rect fill="none" x="387.5" width="400" height="150" y="446" clip-path="url(#clipPath2)"/>
      <text x="408.423" font-size="28px" y="529.6154" clip-path="url(#clipPath2)" font-family="'Fira Code'" stroke="none" stroke-width="1" xml:space="preserve">dotty</text>
    </g>
    <g fill="silver" text-rendering="geometricPrecision" shape-rendering="geometricPrecision" transform="matrix(1,0,0,1,-242,-234)" stroke="silver">
      <rect x="929.3756" width="176.2488" height="275" y="285.25" clip-path="url(#clipPath2)" stroke="none"/>
    </g>
    <g text-rendering="geometricPrecision" stroke-miterlimit="1.45" stroke-width="2" shape-rendering="geometricPrecision" transform="matrix(1,0,0,1,-242,-234)" stroke-linecap="butt">
      <rect fill="none" x="929.3756" width="176.2488" height="275" y="285.25" clip-path="url(#clipPath2)"/>
      <text x="969.5001" font-size="26px" y="414.75" clip-path="url(#clipPath2)" font-family="'Fira Code'" stroke="none" stroke-width="1" xml:space="preserve">native</text>
      <text x="953.5001" font-size="26px" y="446.75" clip-path="url(#clipPath2)" font-family="'Fira Code'" stroke="none" stroke-width="1" xml:space="preserve">compiler</text>
    </g>
    <g fill="silver" text-rendering="geometricPrecision" shape-rendering="geometricPrecision" transform="matrix(1,0,0,1,-242,-234)" stroke="silver">
      <rect x="657.5" width="112" height="112" y="268.5" clip-path="url(#clipPath2)" stroke="none"/>
    </g>
    <g text-rendering="geometricPrecision" stroke-miterlimit="1.45" stroke-width="2" shape-rendering="geometricPrecision" transform="matrix(1,0,0,1,-242,-234)" stroke-linecap="butt">
      <rect fill="none" x="657.5" width="112" height="112" y="268.5" clip-path="url(#clipPath2)"/>
      <text x="685.9639" font-size="32px" y="336.916" clip-path="url(#clipPath2)" font-family="sans-serif" stroke="none" stroke-width="1" xml:space="preserve">NIR</text>
    </g>
    <g fill="silver" text-rendering="geometricPrecision" shape-rendering="geometricPrecision" transform="matrix(1,0,0,1,-242,-234)" stroke="silver">
      <rect x="658" width="112" height="112" y="465" clip-path="url(#clipPath2)" stroke="none"/>
    </g>
    <g text-rendering="geometricPrecision" stroke-miterlimit="1.45" stroke-width="2" shape-rendering="geometricPrecision" transform="matrix(1,0,0,1,-242,-234)" stroke-linecap="butt">
      <rect fill="none" x="658" width="112" height="112" y="465" clip-path="url(#clipPath2)"/>
      <text x="684.4614" font-size="32px" y="530.8462" clip-path="url(#clipPath2)" font-family="'Fira Code'" stroke="none" stroke-width="1" xml:space="preserve">NIR</text>
    </g>
    <g fill="white" text-rendering="geometricPrecision" shape-rendering="geometricPrecision" transform="matrix(1,0,0,1,-242,-234)" stroke="white">
      <rect x="516" width="112" height="112" y="465" clip-path="url(#clipPath2)" stroke="none"/>
    </g>
    <g text-rendering="geometricPrecision" stroke-miterlimit="1.45" stroke-width="2" shape-rendering="geometricPrecision" transform="matrix(1,0,0,1,-242,-234)" stroke-linecap="butt">
      <rect fill="none" x="516" width="112" height="112" y="465" clip-path="url(#clipPath2)"/>
      <text x="542.4614" font-size="32px" y="530.8462" clip-path="url(#clipPath2)" font-family="'Fira Code'" stroke="none" stroke-width="1" xml:space="preserve">LTO</text>
      <path fill="none" d="M787.5 324.5 L919.3794 324.5" stroke-width="3" clip-path="url(#clipPath2)"/>
      <path d="M929.3794 324.5 L914.3794 318.25 L918.1294 324.5 L914.3794 330.75 Z" stroke-width="3" clip-path="url(#clipPath2)" stroke="none"/>
      <text x="831.3611" font-size="22px" y="301.2692" clip-path="url(#clipPath2)" font-family="'Fira Code SemiBold'" stroke="none" stroke-width="1" xml:space="preserve">.nir</text>
      <path fill="none" d="M787.5 521 L919.3638 521" stroke-width="3" clip-path="url(#clipPath2)"/>
      <path d="M929.3638 521 L914.3638 514.75 L918.1138 521 L914.3638 527.25 Z" stroke-width="3" clip-path="url(#clipPath2)" stroke="none"/>
      <text x="831.3611" font-size="22px" y="497.7692" clip-path="url(#clipPath2)" font-family="'Fira Code SemiBold'" stroke="none" stroke-width="1" xml:space="preserve">.nir</text>
      <path fill="none" d="M1105.6244 422.75 L1199.4955 422.75" stroke-width="3" clip-path="url(#clipPath2)"/>
      <path d="M1209.4955 422.75 L1194.4955 416.5 L1198.2455 422.75 L1194.4955 429 Z" stroke-width="3" clip-path="url(#clipPath2)" stroke="none"/>
      <text x="1137.2546" font-size="22px" y="399.5192" clip-path="url(#clipPath2)" font-family="'Fira Code SemiBold'" stroke="none" stroke-width="1" xml:space="preserve">.ll</text>
      <path fill="none" d="M287.5348 324.5 L377.5 324.5" stroke-width="3" clip-path="url(#clipPath2)"/>
      <path d="M387.5 324.5 L372.5 318.25 L376.25 324.5 L372.5 330.75 Z" stroke-width="3" clip-path="url(#clipPath2)" stroke="none"/>
      <text x="294.5" font-size="22px" y="301.2692" clip-path="url(#clipPath2)" font-family="'Fira Code SemiBold'" stroke="none" stroke-width="1" xml:space="preserve">.scala</text>
      <path fill="none" d="M287.5348 521 L377.5 521" stroke-width="3" clip-path="url(#clipPath2)"/>
      <path d="M387.5 521 L372.5 514.75 L376.25 521 L372.5 527.25 Z" stroke-width="3" clip-path="url(#clipPath2)" stroke="none"/>
      <text x="294.5" font-size="22px" y="497.7692" clip-path="url(#clipPath2)" font-family="'Fira Code SemiBold'" stroke="none" stroke-width="1" xml:space="preserve">.scala</text>
    </g>
  </g>
</svg>
