<?xml version="1.0" encoding="UTF-8"?><svg xmlns="http://www.w3.org/2000/svg" xmlns:xlink="http://www.w3.org/1999/xlink" fill-opacity="1" color-rendering="auto" color-interpolation="auto" text-rendering="auto" stroke="black" stroke-linecap="square" width="1012" stroke-miterlimit="10" shape-rendering="auto" stroke-opacity="1" fill="black" stroke-dasharray="none" font-weight="normal" stroke-width="1" height="377" font-family="'Dialog'" font-style="normal" stroke-linejoin="miter" font-size="12px" stroke-dashoffset="0" image-rendering="auto">
  <!--Generated by ySVG 2.6-->
  <defs id="genericDefs"/>
  <g>
    <defs id="defs1">
      <clipPath clipPathUnits="userSpaceOnUse" id="clipPath1">
        <path d="M0 0 L1012 0 L1012 377 L0 377 L0 0 Z"/>
      </clipPath>
      <clipPath clipPathUnits="userSpaceOnUse" id="clipPath2">
        <path d="M268 260 L1280 260 L1280 637 L268 637 L268 260 Z"/>
      </clipPath>
    </defs>
    <g fill="white" text-rendering="geometricPrecision" shape-rendering="geometricPrecision" transform="translate(-268,-260)" stroke="white">
      <rect x="268" width="1012" height="377" y="260" clip-path="url(#clipPath2)" stroke="none"/>
    </g>
    <g fill="white" text-rendering="geometricPrecision" shape-rendering="geometricPrecision" transform="matrix(1,0,0,1,-268,-260)" stroke="white">
      <rect x="545.8134" width="176.2488" height="150" y="275" clip-path="url(#clipPath2)" stroke="none"/>
    </g>
    <g text-rendering="geometricPrecision" stroke-miterlimit="1.45" stroke-width="2" shape-rendering="geometricPrecision" transform="matrix(1,0,0,1,-268,-260)" stroke-linecap="butt">
      <rect fill="none" x="545.8134" width="176.2488" height="150" y="275" clip-path="url(#clipPath2)"/>
      <text x="579.7844" font-size="22px" y="343.2308" clip-path="url(#clipPath2)" font-family="'Fira Code SemiBold'" stroke="none" stroke-width="1" xml:space="preserve">scala.js</text>
      <text x="579.7844" font-size="22px" y="370.3076" clip-path="url(#clipPath2)" font-family="'Fira Code SemiBold'" stroke="none" stroke-width="1" xml:space="preserve">Compiler</text>
    </g>
    <g fill="white" text-rendering="geometricPrecision" shape-rendering="geometricPrecision" transform="matrix(1,0,0,1,-268,-260)" stroke="white">
      <rect x="954.8756" width="176.2488" height="275" y="310.75" clip-path="url(#clipPath2)" stroke="none"/>
    </g>
    <g text-rendering="geometricPrecision" stroke-miterlimit="1.45" stroke-width="2" shape-rendering="geometricPrecision" transform="matrix(1,0,0,1,-268,-260)" stroke-linecap="butt">
      <rect fill="none" x="954.8756" width="176.2488" height="275" y="310.75" clip-path="url(#clipPath2)"/>
      <text x="979.0001" font-size="26px" y="440.25" clip-path="url(#clipPath2)" font-family="'Fira Code SemiBold'" stroke="none" stroke-width="1" xml:space="preserve">scala.js</text>
      <text x="971.0001" font-size="26px" y="472.25" clip-path="url(#clipPath2)" font-family="'Fira Code SemiBold'" stroke="none" stroke-width="1" xml:space="preserve">optimizer</text>
    </g>
    <g fill="silver" text-rendering="geometricPrecision" shape-rendering="geometricPrecision" transform="matrix(1,0,0,1,-268,-260)" stroke="silver">
      <rect x="545.8134" width="176.2488" height="150" y="471.5" clip-path="url(#clipPath2)" stroke="none"/>
      <rect x="545.8134" y="471.5" clip-path="url(#clipPath2)" fill="white" width="1" height="150" stroke="none"/>
      <rect x="546.8134" y="471.5" clip-path="url(#clipPath2)" fill="white" width="174.2488" height="1" stroke="none"/>
      <rect x="546.8134" y="620.5" clip-path="url(#clipPath2)" fill="rgb(134,134,134)" width="175.2488" height="1" stroke="none"/>
      <rect x="721.0622" y="471.5" clip-path="url(#clipPath2)" fill="rgb(134,134,134)" width="1" height="149" stroke="none"/>
      <rect x="631.9378" y="544.5" clip-path="url(#clipPath2)" fill="none" width="4" height="4" stroke="black" stroke-miterlimit="1.6"/>
      <rect x="545.8134" y="471.5" clip-path="url(#clipPath2)" fill="white" width="176.2488" height="150" stroke="none"/>
    </g>
    <g text-rendering="geometricPrecision" stroke-miterlimit="1.45" stroke-width="2" shape-rendering="geometricPrecision" transform="matrix(1,0,0,1,-268,-260)" stroke-linecap="butt">
      <rect fill="none" x="545.8134" width="176.2488" height="150" y="471.5" clip-path="url(#clipPath2)"/>
      <text x="552.7076" font-size="22px" y="553.2692" clip-path="url(#clipPath2)" font-family="'Fira Code SemiBold'" stroke="none" stroke-width="1" xml:space="preserve">Dependencies</text>
      <path fill="none" d="M722.0622 350 L944.8856 350" stroke-width="3" clip-path="url(#clipPath2)"/>
      <path d="M954.8856 350 L939.8856 343.75 L943.6356 350 L939.8856 356.25 Z" stroke-width="3" clip-path="url(#clipPath2)" stroke="none"/>
      <text x="797.8538" font-size="22px" y="326.7692" clip-path="url(#clipPath2)" font-family="'Fira Code SemiBold'" stroke="none" stroke-width="1" xml:space="preserve">.sjsir</text>
      <path fill="none" d="M1131.1244 448.25 L1224.9955 448.25" stroke-width="3" clip-path="url(#clipPath2)"/>
      <path d="M1234.9955 448.25 L1219.9955 442 L1223.7455 448.25 L1219.9955 454.5 Z" stroke-width="3" clip-path="url(#clipPath2)" stroke="none"/>
      <text x="1162.7546" font-size="22px" y="425.0192" clip-path="url(#clipPath2)" font-family="'Fira Code SemiBold'" stroke="none" stroke-width="1" xml:space="preserve">.js</text>
      <path fill="none" d="M312.9679 350 L535.8134 350" stroke-width="3" clip-path="url(#clipPath2)"/>
      <path d="M545.8134 350 L530.8134 343.75 L534.5634 350 L530.8134 356.25 Z" stroke-width="3" clip-path="url(#clipPath2)" stroke="none"/>
      <text x="388.7916" font-size="22px" y="326.7692" clip-path="url(#clipPath2)" font-family="'Fira Code SemiBold'" stroke="none" stroke-width="1" xml:space="preserve">.scala</text>
      <path fill="none" d="M722.0445 546.5 L944.8672 546.5" stroke-width="3" clip-path="url(#clipPath2)"/>
      <path d="M954.8672 546.5 L939.8672 540.25 L943.6172 546.5 L939.8672 552.75 Z" stroke-width="3" clip-path="url(#clipPath2)" stroke="none"/>
      <text x="797.8538" font-size="22px" y="523.2692" clip-path="url(#clipPath2)" font-family="'Fira Code SemiBold'" stroke="none" stroke-width="1" xml:space="preserve">.sjsir</text>
    </g>
  </g>
</svg>
