<?xml version="1.0" encoding="UTF-8" standalone="no"?><svg xmlns="http://www.w3.org/2000/svg" xmlns:xlink="http://www.w3.org/1999/xlink" contentStyleType="text/css" height="294px" preserveAspectRatio="none" style="width:311px;height:294px;background:#FFFFFF;" version="1.1" viewBox="0 0 311 294" width="311px" zoomAndPan="magnify"><defs/><g><rect fill="none" height="188.7969" style="stroke:#000000;stroke-width:1.5;" width="295" x="10" y="53.2969"/><line style="stroke:#181818;stroke-width:0.5;stroke-dasharray:5.0,5.0;" x1="47" x2="47" y1="36.2969" y2="259.0938"/><line style="stroke:#181818;stroke-width:0.5;stroke-dasharray:5.0,5.0;" x1="172.5" x2="172.5" y1="36.2969" y2="259.0938"/><rect fill="#E2E2F0" height="30.2969" rx="2.5" ry="2.5" style="stroke:#181818;stroke-width:0.5;" width="54" x="20" y="5"/><text fill="#000000" font-family="sans-serif" font-size="14" lengthAdjust="spacing" textLength="40" x="27" y="24.9951">State</text><rect fill="#E2E2F0" height="30.2969" rx="2.5" ry="2.5" style="stroke:#181818;stroke-width:0.5;" width="54" x="20" y="258.0938"/><text fill="#000000" font-family="sans-serif" font-size="14" lengthAdjust="spacing" textLength="40" x="27" y="278.0889">State</text><rect fill="#E2E2F0" height="30.2969" rx="2.5" ry="2.5" style="stroke:#181818;stroke-width:0.5;" width="85" x="130.5" y="5"/><text fill="#000000" font-family="sans-serif" font-size="14" lengthAdjust="spacing" textLength="71" x="137.5" y="24.9951">Behaviour</text><rect fill="#E2E2F0" height="30.2969" rx="2.5" ry="2.5" style="stroke:#181818;stroke-width:0.5;" width="85" x="130.5" y="258.0938"/><text fill="#000000" font-family="sans-serif" font-size="14" lengthAdjust="spacing" textLength="71" x="137.5" y="278.0889">Behaviour</text><path d="M10,53.2969 L88,53.2969 L88,60.4297 L78,70.4297 L10,70.4297 L10,53.2969 " fill="#EEEEEE" style="stroke:#000000;stroke-width:1.5;"/><rect fill="none" height="188.7969" style="stroke:#000000;stroke-width:1.5;" width="295" x="10" y="53.2969"/><text fill="#000000" font-family="sans-serif" font-size="13" font-weight="bold" lengthAdjust="spacing" textLength="33" x="25" y="66.3638">loop</text><polygon fill="#181818" points="58,87.5625,48,91.5625,58,95.5625,54,91.5625" style="stroke:#181818;stroke-width:1.0;"/><line style="stroke:#181818;stroke-width:1.0;" x1="52" x2="172" y1="91.5625" y2="91.5625"/><text fill="#000000" font-family="sans-serif" font-size="13" lengthAdjust="spacing" textLength="37" x="64" y="86.4966">query</text><line style="stroke:#181818;stroke-width:1.0;" x1="47" x2="89" y1="120.6953" y2="120.6953"/><line style="stroke:#181818;stroke-width:1.0;" x1="89" x2="89" y1="120.6953" y2="133.6953"/><line style="stroke:#181818;stroke-width:1.0;" x1="48" x2="89" y1="133.6953" y2="133.6953"/><polygon fill="#181818" points="58,129.6953,48,133.6953,58,137.6953,54,133.6953" style="stroke:#181818;stroke-width:1.0;"/><text fill="#000000" font-family="sans-serif" font-size="13" lengthAdjust="spacing" textLength="112" x="54" y="115.6294">retrieve the state</text><polygon fill="#181818" points="161,158.8281,171,162.8281,161,166.8281,165,162.8281" style="stroke:#181818;stroke-width:1.0;"/><line style="stroke:#181818;stroke-width:1.0;stroke-dasharray:2.0,2.0;" x1="47" x2="167" y1="162.8281" y2="162.8281"/><text fill="#000000" font-family="sans-serif" font-size="13" lengthAdjust="spacing" textLength="101" x="54" y="157.7622">return the state</text><line style="stroke:#181818;stroke-width:1.0;" x1="173" x2="215" y1="191.9609" y2="191.9609"/><line style="stroke:#181818;stroke-width:1.0;" x1="215" x2="215" y1="191.9609" y2="204.9609"/><line style="stroke:#181818;stroke-width:1.0;" x1="174" x2="215" y1="204.9609" y2="204.9609"/><polygon fill="#181818" points="184,200.9609,174,204.9609,184,208.9609,180,204.9609" style="stroke:#181818;stroke-width:1.0;"/><text fill="#000000" font-family="sans-serif" font-size="13" lengthAdjust="spacing" textLength="113" x="180" y="186.895">compute function</text><polygon fill="#181818" points="58,230.0938,48,234.0938,58,238.0938,54,234.0938" style="stroke:#181818;stroke-width:1.0;"/><line style="stroke:#181818;stroke-width:1.0;" x1="52" x2="172" y1="234.0938" y2="234.0938"/><text fill="#000000" font-family="sans-serif" font-size="13" lengthAdjust="spacing" textLength="45" x="64" y="229.0278">update</text><!--SRC=[ROvD3i9028Ntd89qxmLSkF0AFS4unNII5f124szl_zGnSSU3Z_UU9lEIYoPsR5fFJWsc2QTr0gsFL-hJN2Hi0svl1J28A7mqdYxxDvxn4MHFs5MrDd8hD1DwJqVImIpGrsW3mxZ2Vb9gCikeiJZSWxCNuVzzGhlLXRXx0G00]--></g></svg>