<?xml version="1.0" encoding="UTF-8" standalone="no"?><svg xmlns="http://www.w3.org/2000/svg" xmlns:xlink="http://www.w3.org/1999/xlink" contentStyleType="text/css" height="307px" preserveAspectRatio="none" style="width:446px;height:307px;background:#FFFFFF;" version="1.1" viewBox="0 0 446 307" width="446px" zoomAndPan="magnify"><defs/><g><rect fill="none" height="201.7969" style="stroke:#000000;stroke-width:1.5;" width="430.5" x="10" y="53.2969"/><line style="stroke:#181818;stroke-width:0.5;stroke-dasharray:5.0,5.0;" x1="51" x2="51" y1="36.2969" y2="272.0938"/><line style="stroke:#181818;stroke-width:0.5;stroke-dasharray:5.0,5.0;" x1="131" x2="131" y1="36.2969" y2="272.0938"/><line style="stroke:#181818;stroke-width:0.5;stroke-dasharray:5.0,5.0;" x1="308" x2="308" y1="36.2969" y2="272.0938"/><rect fill="#E2E2F0" height="30.2969" rx="2.5" ry="2.5" style="stroke:#181818;stroke-width:0.5;" width="63" x="20" y="5"/><text fill="#000000" font-family="sans-serif" font-size="14" lengthAdjust="spacing" textLength="49" x="27" y="24.9951">Sensor</text><rect fill="#E2E2F0" height="30.2969" rx="2.5" ry="2.5" style="stroke:#181818;stroke-width:0.5;" width="63" x="20" y="271.0938"/><text fill="#000000" font-family="sans-serif" font-size="14" lengthAdjust="spacing" textLength="49" x="27" y="291.0889">Sensor</text><rect fill="#E2E2F0" height="30.2969" rx="2.5" ry="2.5" style="stroke:#181818;stroke-width:0.5;" width="77" x="93" y="5"/><text fill="#000000" font-family="sans-serif" font-size="14" lengthAdjust="spacing" textLength="63" x="100" y="24.9951">Actuator</text><rect fill="#E2E2F0" height="30.2969" rx="2.5" ry="2.5" style="stroke:#181818;stroke-width:0.5;" width="77" x="93" y="271.0938"/><text fill="#000000" font-family="sans-serif" font-size="14" lengthAdjust="spacing" textLength="63" x="100" y="291.0889">Actuator</text><rect fill="#E2E2F0" height="30.2969" rx="2.5" ry="2.5" style="stroke:#181818;stroke-width:0.5;" width="85" x="266" y="5"/><text fill="#000000" font-family="sans-serif" font-size="14" lengthAdjust="spacing" textLength="71" x="273" y="24.9951">Behaviour</text><rect fill="#E2E2F0" height="30.2969" rx="2.5" ry="2.5" style="stroke:#181818;stroke-width:0.5;" width="85" x="266" y="271.0938"/><text fill="#000000" font-family="sans-serif" font-size="14" lengthAdjust="spacing" textLength="71" x="273" y="291.0889">Behaviour</text><path d="M10,53.2969 L88,53.2969 L88,60.4297 L78,70.4297 L10,70.4297 L10,53.2969 " fill="#EEEEEE" style="stroke:#000000;stroke-width:1.5;"/><rect fill="none" height="201.7969" style="stroke:#000000;stroke-width:1.5;" width="430.5" x="10" y="53.2969"/><text fill="#000000" font-family="sans-serif" font-size="13" font-weight="bold" lengthAdjust="spacing" textLength="33" x="25" y="66.3638">loop</text><line style="stroke:#181818;stroke-width:1.0;" x1="51.5" x2="93.5" y1="91.5625" y2="91.5625"/><line style="stroke:#181818;stroke-width:1.0;" x1="93.5" x2="93.5" y1="91.5625" y2="104.5625"/><line style="stroke:#181818;stroke-width:1.0;" x1="52.5" x2="93.5" y1="104.5625" y2="104.5625"/><polygon fill="#181818" points="62.5,100.5625,52.5,104.5625,62.5,108.5625,58.5,104.5625" style="stroke:#181818;stroke-width:1.0;"/><text fill="#000000" font-family="sans-serif" font-size="13" lengthAdjust="spacing" textLength="48" x="58.5" y="86.4966">sense()</text><polygon fill="#181818" points="296.5,129.6953,306.5,133.6953,296.5,137.6953,300.5,133.6953" style="stroke:#181818;stroke-width:1.0;"/><line style="stroke:#181818;stroke-width:1.0;" x1="51.5" x2="302.5" y1="133.6953" y2="133.6953"/><text fill="#000000" font-family="sans-serif" font-size="13" lengthAdjust="spacing" textLength="120" x="58.5" y="128.6294">send sensed value</text><line style="stroke:#181818;stroke-width:1.0;" x1="308.5" x2="350.5" y1="162.8281" y2="162.8281"/><line style="stroke:#181818;stroke-width:1.0;" x1="350.5" x2="350.5" y1="162.8281" y2="175.8281"/><line style="stroke:#181818;stroke-width:1.0;" x1="309.5" x2="350.5" y1="175.8281" y2="175.8281"/><polygon fill="#181818" points="319.5,171.8281,309.5,175.8281,319.5,179.8281,315.5,175.8281" style="stroke:#181818;stroke-width:1.0;"/><text fill="#000000" font-family="sans-serif" font-size="13" lengthAdjust="spacing" textLength="113" x="315.5" y="157.7622">compute function</text><polygon fill="#181818" points="142.5,200.9609,132.5,204.9609,142.5,208.9609,138.5,204.9609" style="stroke:#181818;stroke-width:1.0;"/><line style="stroke:#181818;stroke-width:1.0;" x1="136.5" x2="307.5" y1="204.9609" y2="204.9609"/><text fill="#000000" font-family="sans-serif" font-size="13" lengthAdjust="spacing" textLength="153" x="148.5" y="199.895">send prescriptive action</text><line style="stroke:#181818;stroke-width:1.0;" x1="131.5" x2="173.5" y1="234.0938" y2="234.0938"/><line style="stroke:#181818;stroke-width:1.0;" x1="173.5" x2="173.5" y1="234.0938" y2="247.0938"/><line style="stroke:#181818;stroke-width:1.0;" x1="132.5" x2="173.5" y1="247.0938" y2="247.0938"/><polygon fill="#181818" points="142.5,243.0938,132.5,247.0938,142.5,251.0938,138.5,247.0938" style="stroke:#181818;stroke-width:1.0;"/><text fill="#000000" font-family="sans-serif" font-size="13" lengthAdjust="spacing" textLength="59" x="138.5" y="229.0278">actuate()</text><!--SRC=[NOv13i8m30JlVeNL4npu00Sa-08lCAah8fN4Ifoy7z8afUrjhPbTMIYeDLR8AGvFTj670IbYN2B85j-D9j8cK3lsoeFVbArFrNdr2s3sNg2EukNMvl6w13wTDsWjLJfMPSHCSsA0FpwundyaAUEKd57htK7j__PL2HnDiA8sSu6biJfxlyRovQ_u1G00]--></g></svg>